{
	"asset":{
		"generator":"Khronos glTF Blender I/O v4.1.63",
		"version":"2.0"
	},
	"scene":0,
	"scenes":[
		{
			"extras":{
				"faceit_subscribed":1,
				"faceit_live_mocap_settings":[
					{
						"name":"FACECAP",
						"address":"0.0.0.0",
						"port":9001,
						"rotation_units":0,
						"head_location_multiplier":1.0,
						"rotation_units_variable":0,
						"can_animate_head_rotation":1,
						"can_animate_head_location":1,
						"can_animate_eye_rotation":1
					},
					{
						"name":"EPIC",
						"address":"0.0.0.0",
						"port":11111,
						"rotation_units":1,
						"head_location_multiplier":1.0,
						"rotation_units_variable":0,
						"can_animate_head_rotation":1,
						"can_animate_head_location":0,
						"can_animate_eye_rotation":1
					},
					{
						"name":"TILE",
						"address":"0.0.0.0",
						"port":9001,
						"rotation_units":0,
						"head_location_multiplier":1.0,
						"rotation_units_variable":1,
						"can_animate_head_rotation":1,
						"can_animate_head_location":1,
						"can_animate_eye_rotation":1
					},
					{
						"name":"IFACIALMOCAP",
						"address":"0.0.0.0",
						"port":49983,
						"rotation_units":0,
						"head_location_multiplier":100.0,
						"rotation_units_variable":0,
						"can_animate_head_rotation":1,
						"can_animate_head_location":1,
						"can_animate_eye_rotation":1
					},
					{
						"name":"A2F",
						"address":"0.0.0.0",
						"port":9001,
						"rotation_units":0,
						"head_location_multiplier":1.0,
						"rotation_units_variable":0,
						"can_animate_head_rotation":0,
						"can_animate_head_location":0,
						"can_animate_eye_rotation":0
					}
				],
				"faceit_control_armature":{},
				"faceit_body_armature":{},
				"faceit_armature":{},
				"faceit_workspace":{},
				"faceit_pin_panels":{},
				"faceit_osc_receiver_enabled":0
			},
			"name":"Scene",
			"nodes":[
				14
			]
		}
	],
	"nodes":[
		{
			"name":"car1_front_wheel.001",
			"rotation":[
				-0.5000584125518799,
				-0.4999416470527649,
				-0.5000583529472351,
				0.4999416470527649
			],
			"translation":[
				2.0488647874106723e-14,
				1.2977329788554925e-07,
				9.114184251757251e-08
			]
		},
		{
			"children":[
				0
			],
			"name":"car1_front_wheel",
			"rotation":[
				-8.426155773122446e-09,
				0.7076120972633362,
				0.7066011428833008,
				5.342322850765413e-08
			],
			"translation":[
				-2.0745240192354686e-07,
				1.6746299266815186,
				0.46394532918930054
			]
		},
		{
			"name":"car1_front_wheel.002",
			"rotation":[
				-0.0009867525659501553,
				5.758116117249301e-08,
				0.00026120198890566826,
				0.999999463558197
			],
			"scale":[
				1,
				1,
				0.9999999403953552
			],
			"translation":[
				-2.074292666520705e-07,
				1.8596413135528564,
				0.46368077397346497
			]
		},
		{
			"name":"car1_front_wheel.004",
			"rotation":[
				-0.5000583529472351,
				-0.4999416172504425,
				-0.5000583529472351,
				0.4999416470527649
			],
			"translation":[
				-2.7397604245526196e-14,
				2.983124431921169e-07,
				-2.7434839466877747e-07
			]
		},
		{
			"children":[
				3
			],
			"name":"car1_front_wheel.003",
			"rotation":[
				-8.426131792305114e-09,
				0.7076120376586914,
				0.7066012024879456,
				5.342323206036781e-08
			],
			"scale":[
				1,
				1.0000003576278687,
				1
			],
			"translation":[
				-1.7114897943315555e-08,
				-1.5041842460632324,
				0.46849068999290466
			]
		},
		{
			"name":"car1_front_wheel.005",
			"rotation":[
				-0.0009867531480267644,
				5.758125354304866e-08,
				0.000261202163528651,
				0.999999463558197
			],
			"scale":[
				1,
				1,
				0.9999999403953552
			],
			"translation":[
				-1.708698427194122e-08,
				-1.2808603048324585,
				0.4681713879108429
			]
		},
		{
			"name":"car1_body",
			"rotation":[
				-8.281746122218436e-11,
				-0.9999998807907104,
				0.0005083399009890854,
				7.54978870531886e-08
			],
			"scale":[
				1,
				1.000000238418579,
				0.9999999403953552
			],
			"translation":[
				-1.963305464869336e-07,
				-0.0800030529499054,
				2.2457594871520996
			]
		},
		{
			"children":[
				1,
				2,
				4,
				5,
				6
			],
			"name":"car1_wheel_sub",
			"rotation":[
				-0.9999986886978149,
				-5.115513221354284e-11,
				-1.192091474422341e-07,
				0.0016093342565000057
			],
			"scale":[
				1,
				0.9999999403953552,
				0.9999999403953552
			]
		},
		{
			"children":[
				7
			],
			"name":"car1_wheel_main",
			"rotation":[
				-5.333730968004602e-08,
				-0.7077389359474182,
				0.7064741253852844,
				5.3432810176445855e-08
			],
			"scale":[
				1,
				0.9999999403953552,
				1
			],
			"translation":[
				-1.668930025289228e-07,
				-0.4663390815258026,
				-1.6739647388458252
			]
		},
		{
			"extras":{
				"als":{}
			},
			"mesh":0,
			"name":"Car_1",
			"skin":0
		},
		{
			"extras":{
				"als":{}
			},
			"mesh":1,
			"name":"Car_1_tire.001",
			"skin":0
		},
		{
			"extras":{
				"als":{}
			},
			"mesh":2,
			"name":"Car_1_tire.002",
			"skin":0
		},
		{
			"extras":{
				"als":{}
			},
			"mesh":3,
			"name":"Car_1_tire.003",
			"skin":0
		},
		{
			"extras":{
				"als":{}
			},
			"mesh":4,
			"name":"Car_1_tire.004",
			"skin":0
		},
		{
			"children":[
				9,
				10,
				11,
				12,
				13,
				8
			],
			"extras":{
				"als":{}
			},
			"name":"car1",
			"translation":[
				0,
				0.4663390815258026,
				1.6739647388458252
			]
		}
	],
	"animations":[
		{
			"channels":[
				{
					"sampler":0,
					"target":{
						"node":8,
						"path":"translation"
					}
				},
				{
					"sampler":1,
					"target":{
						"node":8,
						"path":"rotation"
					}
				},
				{
					"sampler":2,
					"target":{
						"node":8,
						"path":"scale"
					}
				},
				{
					"sampler":3,
					"target":{
						"node":7,
						"path":"translation"
					}
				},
				{
					"sampler":4,
					"target":{
						"node":7,
						"path":"rotation"
					}
				},
				{
					"sampler":5,
					"target":{
						"node":7,
						"path":"scale"
					}
				},
				{
					"sampler":6,
					"target":{
						"node":1,
						"path":"translation"
					}
				},
				{
					"sampler":7,
					"target":{
						"node":1,
						"path":"rotation"
					}
				},
				{
					"sampler":8,
					"target":{
						"node":1,
						"path":"scale"
					}
				},
				{
					"sampler":9,
					"target":{
						"node":0,
						"path":"translation"
					}
				},
				{
					"sampler":10,
					"target":{
						"node":0,
						"path":"rotation"
					}
				},
				{
					"sampler":11,
					"target":{
						"node":0,
						"path":"scale"
					}
				},
				{
					"sampler":12,
					"target":{
						"node":2,
						"path":"translation"
					}
				},
				{
					"sampler":13,
					"target":{
						"node":2,
						"path":"rotation"
					}
				},
				{
					"sampler":14,
					"target":{
						"node":2,
						"path":"scale"
					}
				},
				{
					"sampler":15,
					"target":{
						"node":4,
						"path":"translation"
					}
				},
				{
					"sampler":16,
					"target":{
						"node":4,
						"path":"rotation"
					}
				},
				{
					"sampler":17,
					"target":{
						"node":4,
						"path":"scale"
					}
				},
				{
					"sampler":18,
					"target":{
						"node":3,
						"path":"translation"
					}
				},
				{
					"sampler":19,
					"target":{
						"node":3,
						"path":"rotation"
					}
				},
				{
					"sampler":20,
					"target":{
						"node":3,
						"path":"scale"
					}
				},
				{
					"sampler":21,
					"target":{
						"node":5,
						"path":"translation"
					}
				},
				{
					"sampler":22,
					"target":{
						"node":5,
						"path":"rotation"
					}
				},
				{
					"sampler":23,
					"target":{
						"node":5,
						"path":"scale"
					}
				},
				{
					"sampler":24,
					"target":{
						"node":6,
						"path":"translation"
					}
				},
				{
					"sampler":25,
					"target":{
						"node":6,
						"path":"rotation"
					}
				},
				{
					"sampler":26,
					"target":{
						"node":6,
						"path":"scale"
					}
				}
			],
			"name":"car1_default_pose",
			"samplers":[
				{
					"input":30,
					"interpolation":"STEP",
					"output":31
				},
				{
					"input":30,
					"interpolation":"STEP",
					"output":32
				},
				{
					"input":30,
					"interpolation":"STEP",
					"output":33
				},
				{
					"input":30,
					"interpolation":"STEP",
					"output":34
				},
				{
					"input":30,
					"interpolation":"STEP",
					"output":35
				},
				{
					"input":30,
					"interpolation":"STEP",
					"output":36
				},
				{
					"input":30,
					"interpolation":"STEP",
					"output":37
				},
				{
					"input":30,
					"interpolation":"STEP",
					"output":38
				},
				{
					"input":30,
					"interpolation":"STEP",
					"output":39
				},
				{
					"input":30,
					"interpolation":"STEP",
					"output":40
				},
				{
					"input":30,
					"interpolation":"STEP",
					"output":41
				},
				{
					"input":30,
					"interpolation":"STEP",
					"output":42
				},
				{
					"input":30,
					"interpolation":"STEP",
					"output":43
				},
				{
					"input":30,
					"interpolation":"STEP",
					"output":44
				},
				{
					"input":30,
					"interpolation":"STEP",
					"output":45
				},
				{
					"input":30,
					"interpolation":"STEP",
					"output":46
				},
				{
					"input":30,
					"interpolation":"STEP",
					"output":47
				},
				{
					"input":30,
					"interpolation":"STEP",
					"output":48
				},
				{
					"input":30,
					"interpolation":"STEP",
					"output":49
				},
				{
					"input":30,
					"interpolation":"STEP",
					"output":50
				},
				{
					"input":30,
					"interpolation":"STEP",
					"output":51
				},
				{
					"input":30,
					"interpolation":"STEP",
					"output":52
				},
				{
					"input":30,
					"interpolation":"STEP",
					"output":53
				},
				{
					"input":30,
					"interpolation":"STEP",
					"output":54
				},
				{
					"input":30,
					"interpolation":"STEP",
					"output":55
				},
				{
					"input":30,
					"interpolation":"STEP",
					"output":56
				},
				{
					"input":30,
					"interpolation":"STEP",
					"output":57
				}
			]
		}
	],
	"materials":[
		{
			"doubleSided":true,
			"name":"car1_mat",
			"pbrMetallicRoughness":{
				"baseColorTexture":{
					"index":0
				},
				"metallicFactor":0,
				"roughnessFactor":0.5527864098548889
			}
		}
	],
	"meshes":[
		{
			"name":"Mesh",
			"primitives":[
				{
					"attributes":{
						"POSITION":0,
						"NORMAL":1,
						"TEXCOORD_0":2,
						"JOINTS_0":3,
						"WEIGHTS_0":4
					},
					"indices":5,
					"material":0
				}
			]
		},
		{
			"name":"Mesh.087",
			"primitives":[
				{
					"attributes":{
						"POSITION":7,
						"NORMAL":8,
						"TEXCOORD_0":9,
						"JOINTS_0":10,
						"WEIGHTS_0":11
					},
					"indices":12,
					"material":0
				}
			]
		},
		{
			"name":"Mesh.090",
			"primitives":[
				{
					"attributes":{
						"POSITION":13,
						"NORMAL":14,
						"TEXCOORD_0":15,
						"JOINTS_0":16,
						"WEIGHTS_0":17
					},
					"indices":18,
					"material":0
				}
			]
		},
		{
			"name":"Mesh.093",
			"primitives":[
				{
					"attributes":{
						"POSITION":19,
						"NORMAL":20,
						"TEXCOORD_0":21,
						"JOINTS_0":22,
						"WEIGHTS_0":23
					},
					"indices":24,
					"material":0
				}
			]
		},
		{
			"name":"Mesh.095",
			"primitives":[
				{
					"attributes":{
						"POSITION":25,
						"NORMAL":26,
						"TEXCOORD_0":27,
						"JOINTS_0":28,
						"WEIGHTS_0":29
					},
					"indices":24,
					"material":0
				}
			]
		}
	],
	"textures":[
		{
			"sampler":0,
			"source":0
		}
	],
	"images":[
		{
			"mimeType":"image/jpeg",
			"name":"car1 and 2_base color",
			"uri":"car1%20and%202_base%20color.jpg"
		}
	],
	"skins":[
		{
			"inverseBindMatrices":6,
			"joints":[
				8,
				7,
				1,
				0,
				2,
				4,
				3,
				5,
				6
			],
			"name":"car1"
		}
	],
	"accessors":[
		{
			"bufferView":0,
			"componentType":5126,
			"count":1895,
			"max":[
				2.372706890106201,
				5.030195713043213,
				2.885263442993164
			],
			"min":[
				-2.372706890106201,
				0.194311261177063,
				-2.8735132217407227
			],
			"type":"VEC3"
		},
		{
			"bufferView":1,
			"componentType":5126,
			"count":1895,
			"type":"VEC3"
		},
		{
			"bufferView":2,
			"componentType":5126,
			"count":1895,
			"type":"VEC2"
		},
		{
			"bufferView":3,
			"componentType":5121,
			"count":1895,
			"type":"VEC4"
		},
		{
			"bufferView":4,
			"componentType":5126,
			"count":1895,
			"type":"VEC4"
		},
		{
			"bufferView":5,
			"componentType":5123,
			"count":7986,
			"type":"SCALAR"
		},
		{
			"bufferView":6,
			"componentType":5126,
			"count":9,
			"type":"MAT4"
		},
		{
			"bufferView":7,
			"componentType":5126,
			"count":88,
			"max":[
				2.1678459644317627,
				0.971410870552063,
				2.1876087188720703
			],
			"min":[
				1.7730554342269897,
				-0.05405628681182861,
				1.167758822441101
			],
			"type":"VEC3"
		},
		{
			"bufferView":8,
			"componentType":5126,
			"count":88,
			"type":"VEC3"
		},
		{
			"bufferView":9,
			"componentType":5126,
			"count":88,
			"type":"VEC2"
		},
		{
			"bufferView":10,
			"componentType":5121,
			"count":88,
			"type":"VEC4"
		},
		{
			"bufferView":11,
			"componentType":5126,
			"count":88,
			"type":"VEC4"
		},
		{
			"bufferView":12,
			"componentType":5123,
			"count":318,
			"type":"SCALAR"
		},
		{
			"bufferView":13,
			"componentType":5126,
			"count":88,
			"max":[
				2.2215540409088135,
				0.971411406993866,
				-0.9912083745002747
			],
			"min":[
				1.8267635107040405,
				-0.05405580997467041,
				-2.0110583305358887
			],
			"type":"VEC3"
		},
		{
			"bufferView":14,
			"componentType":5126,
			"count":88,
			"type":"VEC3"
		},
		{
			"bufferView":15,
			"componentType":5126,
			"count":88,
			"type":"VEC2"
		},
		{
			"bufferView":16,
			"componentType":5121,
			"count":88,
			"type":"VEC4"
		},
		{
			"bufferView":17,
			"componentType":5126,
			"count":88,
			"type":"VEC4"
		},
		{
			"bufferView":18,
			"componentType":5123,
			"count":318,
			"type":"SCALAR"
		},
		{
			"bufferView":19,
			"componentType":5126,
			"count":88,
			"max":[
				-1.7730554342269897,
				0.971410870552063,
				2.1876087188720703
			],
			"min":[
				-2.1678459644317627,
				-0.05405628681182861,
				1.167758822441101
			],
			"type":"VEC3"
		},
		{
			"bufferView":20,
			"componentType":5126,
			"count":88,
			"type":"VEC3"
		},
		{
			"bufferView":21,
			"componentType":5126,
			"count":88,
			"type":"VEC2"
		},
		{
			"bufferView":22,
			"componentType":5121,
			"count":88,
			"type":"VEC4"
		},
		{
			"bufferView":23,
			"componentType":5126,
			"count":88,
			"type":"VEC4"
		},
		{
			"bufferView":24,
			"componentType":5123,
			"count":318,
			"type":"SCALAR"
		},
		{
			"bufferView":25,
			"componentType":5126,
			"count":88,
			"max":[
				-1.8267635107040405,
				0.971411406993866,
				-0.9912083745002747
			],
			"min":[
				-2.2215540409088135,
				-0.05405580997467041,
				-2.0110583305358887
			],
			"type":"VEC3"
		},
		{
			"bufferView":26,
			"componentType":5126,
			"count":88,
			"type":"VEC3"
		},
		{
			"bufferView":27,
			"componentType":5126,
			"count":88,
			"type":"VEC2"
		},
		{
			"bufferView":28,
			"componentType":5121,
			"count":88,
			"type":"VEC4"
		},
		{
			"bufferView":29,
			"componentType":5126,
			"count":88,
			"type":"VEC4"
		},
		{
			"bufferView":30,
			"componentType":5126,
			"count":2,
			"max":[
				0.06666666666666667
			],
			"min":[
				0.03333333333333333
			],
			"type":"SCALAR"
		},
		{
			"bufferView":31,
			"componentType":5126,
			"count":2,
			"type":"VEC3"
		},
		{
			"bufferView":32,
			"componentType":5126,
			"count":2,
			"type":"VEC4"
		},
		{
			"bufferView":33,
			"componentType":5126,
			"count":2,
			"type":"VEC3"
		},
		{
			"bufferView":34,
			"componentType":5126,
			"count":2,
			"type":"VEC3"
		},
		{
			"bufferView":35,
			"componentType":5126,
			"count":2,
			"type":"VEC4"
		},
		{
			"bufferView":36,
			"componentType":5126,
			"count":2,
			"type":"VEC3"
		},
		{
			"bufferView":37,
			"componentType":5126,
			"count":2,
			"type":"VEC3"
		},
		{
			"bufferView":38,
			"componentType":5126,
			"count":2,
			"type":"VEC4"
		},
		{
			"bufferView":39,
			"componentType":5126,
			"count":2,
			"type":"VEC3"
		},
		{
			"bufferView":40,
			"componentType":5126,
			"count":2,
			"type":"VEC3"
		},
		{
			"bufferView":41,
			"componentType":5126,
			"count":2,
			"type":"VEC4"
		},
		{
			"bufferView":42,
			"componentType":5126,
			"count":2,
			"type":"VEC3"
		},
		{
			"bufferView":43,
			"componentType":5126,
			"count":2,
			"type":"VEC3"
		},
		{
			"bufferView":44,
			"componentType":5126,
			"count":2,
			"type":"VEC4"
		},
		{
			"bufferView":45,
			"componentType":5126,
			"count":2,
			"type":"VEC3"
		},
		{
			"bufferView":46,
			"componentType":5126,
			"count":2,
			"type":"VEC3"
		},
		{
			"bufferView":47,
			"componentType":5126,
			"count":2,
			"type":"VEC4"
		},
		{
			"bufferView":48,
			"componentType":5126,
			"count":2,
			"type":"VEC3"
		},
		{
			"bufferView":49,
			"componentType":5126,
			"count":2,
			"type":"VEC3"
		},
		{
			"bufferView":50,
			"componentType":5126,
			"count":2,
			"type":"VEC4"
		},
		{
			"bufferView":51,
			"componentType":5126,
			"count":2,
			"type":"VEC3"
		},
		{
			"bufferView":52,
			"componentType":5126,
			"count":2,
			"type":"VEC3"
		},
		{
			"bufferView":53,
			"componentType":5126,
			"count":2,
			"type":"VEC4"
		},
		{
			"bufferView":54,
			"componentType":5126,
			"count":2,
			"type":"VEC3"
		},
		{
			"bufferView":55,
			"componentType":5126,
			"count":2,
			"type":"VEC3"
		},
		{
			"bufferView":56,
			"componentType":5126,
			"count":2,
			"type":"VEC4"
		},
		{
			"bufferView":57,
			"componentType":5126,
			"count":2,
			"type":"VEC3"
		}
	],
	"bufferViews":[
		{
			"buffer":0,
			"byteLength":22740,
			"byteOffset":0,
			"target":34962
		},
		{
			"buffer":0,
			"byteLength":22740,
			"byteOffset":22740,
			"target":34962
		},
		{
			"buffer":0,
			"byteLength":15160,
			"byteOffset":45480,
			"target":34962
		},
		{
			"buffer":0,
			"byteLength":7580,
			"byteOffset":60640,
			"target":34962
		},
		{
			"buffer":0,
			"byteLength":30320,
			"byteOffset":68220,
			"target":34962
		},
		{
			"buffer":0,
			"byteLength":15972,
			"byteOffset":98540,
			"target":34963
		},
		{
			"buffer":0,
			"byteLength":576,
			"byteOffset":114512
		},
		{
			"buffer":0,
			"byteLength":1056,
			"byteOffset":115088,
			"target":34962
		},
		{
			"buffer":0,
			"byteLength":1056,
			"byteOffset":116144,
			"target":34962
		},
		{
			"buffer":0,
			"byteLength":704,
			"byteOffset":117200,
			"target":34962
		},
		{
			"buffer":0,
			"byteLength":352,
			"byteOffset":117904,
			"target":34962
		},
		{
			"buffer":0,
			"byteLength":1408,
			"byteOffset":118256,
			"target":34962
		},
		{
			"buffer":0,
			"byteLength":636,
			"byteOffset":119664,
			"target":34963
		},
		{
			"buffer":0,
			"byteLength":1056,
			"byteOffset":120300,
			"target":34962
		},
		{
			"buffer":0,
			"byteLength":1056,
			"byteOffset":121356,
			"target":34962
		},
		{
			"buffer":0,
			"byteLength":704,
			"byteOffset":122412,
			"target":34962
		},
		{
			"buffer":0,
			"byteLength":352,
			"byteOffset":123116,
			"target":34962
		},
		{
			"buffer":0,
			"byteLength":1408,
			"byteOffset":123468,
			"target":34962
		},
		{
			"buffer":0,
			"byteLength":636,
			"byteOffset":124876,
			"target":34963
		},
		{
			"buffer":0,
			"byteLength":1056,
			"byteOffset":125512,
			"target":34962
		},
		{
			"buffer":0,
			"byteLength":1056,
			"byteOffset":126568,
			"target":34962
		},
		{
			"buffer":0,
			"byteLength":704,
			"byteOffset":127624,
			"target":34962
		},
		{
			"buffer":0,
			"byteLength":352,
			"byteOffset":128328,
			"target":34962
		},
		{
			"buffer":0,
			"byteLength":1408,
			"byteOffset":128680,
			"target":34962
		},
		{
			"buffer":0,
			"byteLength":636,
			"byteOffset":130088,
			"target":34963
		},
		{
			"buffer":0,
			"byteLength":1056,
			"byteOffset":130724,
			"target":34962
		},
		{
			"buffer":0,
			"byteLength":1056,
			"byteOffset":131780,
			"target":34962
		},
		{
			"buffer":0,
			"byteLength":704,
			"byteOffset":132836,
			"target":34962
		},
		{
			"buffer":0,
			"byteLength":352,
			"byteOffset":133540,
			"target":34962
		},
		{
			"buffer":0,
			"byteLength":1408,
			"byteOffset":133892,
			"target":34962
		},
		{
			"buffer":0,
			"byteLength":8,
			"byteOffset":135300
		},
		{
			"buffer":0,
			"byteLength":24,
			"byteOffset":135308
		},
		{
			"buffer":0,
			"byteLength":32,
			"byteOffset":135332
		},
		{
			"buffer":0,
			"byteLength":24,
			"byteOffset":135364
		},
		{
			"buffer":0,
			"byteLength":24,
			"byteOffset":135388
		},
		{
			"buffer":0,
			"byteLength":32,
			"byteOffset":135412
		},
		{
			"buffer":0,
			"byteLength":24,
			"byteOffset":135444
		},
		{
			"buffer":0,
			"byteLength":24,
			"byteOffset":135468
		},
		{
			"buffer":0,
			"byteLength":32,
			"byteOffset":135492
		},
		{
			"buffer":0,
			"byteLength":24,
			"byteOffset":135524
		},
		{
			"buffer":0,
			"byteLength":24,
			"byteOffset":135548
		},
		{
			"buffer":0,
			"byteLength":32,
			"byteOffset":135572
		},
		{
			"buffer":0,
			"byteLength":24,
			"byteOffset":135604
		},
		{
			"buffer":0,
			"byteLength":24,
			"byteOffset":135628
		},
		{
			"buffer":0,
			"byteLength":32,
			"byteOffset":135652
		},
		{
			"buffer":0,
			"byteLength":24,
			"byteOffset":135684
		},
		{
			"buffer":0,
			"byteLength":24,
			"byteOffset":135708
		},
		{
			"buffer":0,
			"byteLength":32,
			"byteOffset":135732
		},
		{
			"buffer":0,
			"byteLength":24,
			"byteOffset":135764
		},
		{
			"buffer":0,
			"byteLength":24,
			"byteOffset":135788
		},
		{
			"buffer":0,
			"byteLength":32,
			"byteOffset":135812
		},
		{
			"buffer":0,
			"byteLength":24,
			"byteOffset":135844
		},
		{
			"buffer":0,
			"byteLength":24,
			"byteOffset":135868
		},
		{
			"buffer":0,
			"byteLength":32,
			"byteOffset":135892
		},
		{
			"buffer":0,
			"byteLength":24,
			"byteOffset":135924
		},
		{
			"buffer":0,
			"byteLength":24,
			"byteOffset":135948
		},
		{
			"buffer":0,
			"byteLength":32,
			"byteOffset":135972
		},
		{
			"buffer":0,
			"byteLength":24,
			"byteOffset":136004
		}
	],
	"samplers":[
		{
			"magFilter":9729,
			"minFilter":9987
		}
	],
	"buffers":[
		{
			"byteLength":136028,
			"uri":"car01_v01.bin"
		}
	]
}
