{
	"asset":{
		"generator":"Khronos glTF Blender I/O v4.1.63",
		"version":"2.0"
	},
	"scene":0,
	"scenes":[
		{
			"extras":{
				"faceit_subscribed":1,
				"faceit_live_mocap_settings":[
					{
						"name":"FACECAP",
						"address":"0.0.0.0",
						"port":9001,
						"rotation_units":0,
						"head_location_multiplier":1.0,
						"rotation_units_variable":0,
						"can_animate_head_rotation":1,
						"can_animate_head_location":1,
						"can_animate_eye_rotation":1
					},
					{
						"name":"EPIC",
						"address":"0.0.0.0",
						"port":11111,
						"rotation_units":1,
						"head_location_multiplier":1.0,
						"rotation_units_variable":0,
						"can_animate_head_rotation":1,
						"can_animate_head_location":0,
						"can_animate_eye_rotation":1
					},
					{
						"name":"TILE",
						"address":"0.0.0.0",
						"port":9001,
						"rotation_units":0,
						"head_location_multiplier":1.0,
						"rotation_units_variable":1,
						"can_animate_head_rotation":1,
						"can_animate_head_location":1,
						"can_animate_eye_rotation":1
					},
					{
						"name":"IFACIALMOCAP",
						"address":"0.0.0.0",
						"port":49983,
						"rotation_units":0,
						"head_location_multiplier":100.0,
						"rotation_units_variable":0,
						"can_animate_head_rotation":1,
						"can_animate_head_location":1,
						"can_animate_eye_rotation":1
					},
					{
						"name":"A2F",
						"address":"0.0.0.0",
						"port":9001,
						"rotation_units":0,
						"head_location_multiplier":1.0,
						"rotation_units_variable":0,
						"can_animate_head_rotation":0,
						"can_animate_head_location":0,
						"can_animate_eye_rotation":0
					}
				],
				"faceit_control_armature":{},
				"faceit_body_armature":{},
				"faceit_armature":{},
				"faceit_workspace":{},
				"faceit_pin_panels":{},
				"faceit_osc_receiver_enabled":0
			},
			"name":"Scene",
			"nodes":[
				14
			]
		}
	],
	"nodes":[
		{
			"name":"car1_front_wheel.001",
			"rotation":[
				-0.5000583529472351,
				-0.49994170665740967,
				-0.5000583529472351,
				0.49994170665740967
			],
			"translation":[
				-3.285184759860629e-14,
				2.8590130796146696e-07,
				3.228739586802476e-08
			]
		},
		{
			"children":[
				0
			],
			"name":"car1_front_wheel",
			"rotation":[
				-8.426130904126694e-09,
				0.7076120972633362,
				0.7066011428833008,
				5.342323206036781e-08
			],
			"scale":[
				1,
				1.0000003576278687,
				1
			],
			"translation":[
				-3.453406236531009e-07,
				1.7974042892456055,
				0.5412477850914001
			]
		},
		{
			"name":"car1_front_wheel.002",
			"rotation":[
				-0.0009867096086964011,
				-4.772243300976697e-06,
				0.0002612067910376936,
				0.999999463558197
			],
			"scale":[
				1,
				1,
				0.9999999403953552
			],
			"translation":[
				-3.4531157666606305e-07,
				2.02984356880188,
				0.5409154891967773
			]
		},
		{
			"name":"car1_front_wheel.004",
			"rotation":[
				-0.5000584125518799,
				-0.49994170665740967,
				-0.5000582933425903,
				0.4999416470527649
			],
			"translation":[
				-5.932769110917257e-15,
				2.854254432804737e-07,
				-3.2540700800609557e-08
			]
		},
		{
			"children":[
				3
			],
			"name":"car1_front_wheel.003",
			"rotation":[
				-8.426146003159829e-09,
				0.7076120972633362,
				0.7066011428833008,
				5.3423239165795167e-08
			],
			"scale":[
				1,
				1.0000003576278687,
				1
			],
			"translation":[
				-2.2657307852114172e-07,
				-1.7363399267196655,
				0.5463008284568787
			]
		},
		{
			"name":"car1_front_wheel.005",
			"rotation":[
				-0.0009867096086964011,
				-4.772243300976697e-06,
				0.0002612067910376936,
				0.999999463558197
			],
			"scale":[
				1,
				1,
				0.9999999403953552
			],
			"translation":[
				-2.2654094777863065e-07,
				-1.479289174079895,
				0.5459333062171936
			]
		},
		{
			"name":"car1_body",
			"rotation":[
				-8.279624902352012e-11,
				-0.9999998807907104,
				0.0005083400174044073,
				7.54978870531886e-08
			],
			"scale":[
				1,
				1.000000238418579,
				0.9999999403953552
			],
			"translation":[
				-4.849440529142157e-07,
				0.17814356088638306,
				2.819922685623169
			]
		},
		{
			"children":[
				1,
				2,
				4,
				5,
				6
			],
			"name":"car1_wheel_sub",
			"rotation":[
				-0.9999986886978149,
				-5.115513221354284e-11,
				-1.192091474422341e-07,
				0.0016093342565000057
			],
			"scale":[
				1,
				0.9999999403953552,
				0.9999999403953552
			]
		},
		{
			"children":[
				7
			],
			"name":"car1_wheel_main",
			"rotation":[
				-5.333730968004602e-08,
				-0.7077389359474182,
				0.7064741253852844,
				5.3432810176445855e-08
			],
			"scale":[
				1,
				0.9999999403953552,
				1
			],
			"translation":[
				-1.668930025289228e-07,
				-0.4663390815258026,
				-1.6739647388458252
			]
		},
		{
			"extras":{
				"als":{}
			},
			"mesh":0,
			"name":"Car_2",
			"skin":0
		},
		{
			"extras":{
				"als":{}
			},
			"mesh":1,
			"name":"Car_2_tire.001",
			"skin":0
		},
		{
			"extras":{
				"als":{}
			},
			"mesh":2,
			"name":"Car_2_tire.002",
			"skin":0
		},
		{
			"extras":{
				"als":{}
			},
			"mesh":3,
			"name":"Car_2_tire.003",
			"skin":0
		},
		{
			"extras":{
				"als":{}
			},
			"mesh":4,
			"name":"Car_2_tire.004",
			"skin":0
		},
		{
			"children":[
				9,
				10,
				11,
				12,
				13,
				8
			],
			"extras":{
				"als":{}
			},
			"name":"car2",
			"translation":[
				0,
				0.4663390815258026,
				1.6739647388458252
			]
		}
	],
	"animations":[
		{
			"channels":[
				{
					"sampler":0,
					"target":{
						"node":8,
						"path":"translation"
					}
				},
				{
					"sampler":1,
					"target":{
						"node":8,
						"path":"rotation"
					}
				},
				{
					"sampler":2,
					"target":{
						"node":8,
						"path":"scale"
					}
				},
				{
					"sampler":3,
					"target":{
						"node":7,
						"path":"translation"
					}
				},
				{
					"sampler":4,
					"target":{
						"node":7,
						"path":"rotation"
					}
				},
				{
					"sampler":5,
					"target":{
						"node":7,
						"path":"scale"
					}
				},
				{
					"sampler":6,
					"target":{
						"node":1,
						"path":"translation"
					}
				},
				{
					"sampler":7,
					"target":{
						"node":1,
						"path":"rotation"
					}
				},
				{
					"sampler":8,
					"target":{
						"node":1,
						"path":"scale"
					}
				},
				{
					"sampler":9,
					"target":{
						"node":0,
						"path":"translation"
					}
				},
				{
					"sampler":10,
					"target":{
						"node":0,
						"path":"rotation"
					}
				},
				{
					"sampler":11,
					"target":{
						"node":0,
						"path":"scale"
					}
				},
				{
					"sampler":12,
					"target":{
						"node":2,
						"path":"translation"
					}
				},
				{
					"sampler":13,
					"target":{
						"node":2,
						"path":"rotation"
					}
				},
				{
					"sampler":14,
					"target":{
						"node":2,
						"path":"scale"
					}
				},
				{
					"sampler":15,
					"target":{
						"node":4,
						"path":"translation"
					}
				},
				{
					"sampler":16,
					"target":{
						"node":4,
						"path":"rotation"
					}
				},
				{
					"sampler":17,
					"target":{
						"node":4,
						"path":"scale"
					}
				},
				{
					"sampler":18,
					"target":{
						"node":3,
						"path":"translation"
					}
				},
				{
					"sampler":19,
					"target":{
						"node":3,
						"path":"rotation"
					}
				},
				{
					"sampler":20,
					"target":{
						"node":3,
						"path":"scale"
					}
				},
				{
					"sampler":21,
					"target":{
						"node":5,
						"path":"translation"
					}
				},
				{
					"sampler":22,
					"target":{
						"node":5,
						"path":"rotation"
					}
				},
				{
					"sampler":23,
					"target":{
						"node":5,
						"path":"scale"
					}
				},
				{
					"sampler":24,
					"target":{
						"node":6,
						"path":"translation"
					}
				},
				{
					"sampler":25,
					"target":{
						"node":6,
						"path":"rotation"
					}
				},
				{
					"sampler":26,
					"target":{
						"node":6,
						"path":"scale"
					}
				}
			],
			"name":"car2_default_pose",
			"samplers":[
				{
					"input":31,
					"interpolation":"STEP",
					"output":32
				},
				{
					"input":31,
					"interpolation":"STEP",
					"output":33
				},
				{
					"input":31,
					"interpolation":"STEP",
					"output":34
				},
				{
					"input":31,
					"interpolation":"STEP",
					"output":35
				},
				{
					"input":31,
					"interpolation":"STEP",
					"output":36
				},
				{
					"input":31,
					"interpolation":"STEP",
					"output":37
				},
				{
					"input":31,
					"interpolation":"STEP",
					"output":38
				},
				{
					"input":31,
					"interpolation":"STEP",
					"output":39
				},
				{
					"input":31,
					"interpolation":"STEP",
					"output":40
				},
				{
					"input":31,
					"interpolation":"STEP",
					"output":41
				},
				{
					"input":31,
					"interpolation":"STEP",
					"output":42
				},
				{
					"input":31,
					"interpolation":"STEP",
					"output":43
				},
				{
					"input":31,
					"interpolation":"STEP",
					"output":44
				},
				{
					"input":31,
					"interpolation":"STEP",
					"output":45
				},
				{
					"input":31,
					"interpolation":"STEP",
					"output":46
				},
				{
					"input":31,
					"interpolation":"STEP",
					"output":47
				},
				{
					"input":31,
					"interpolation":"STEP",
					"output":48
				},
				{
					"input":31,
					"interpolation":"STEP",
					"output":49
				},
				{
					"input":31,
					"interpolation":"STEP",
					"output":50
				},
				{
					"input":31,
					"interpolation":"STEP",
					"output":51
				},
				{
					"input":31,
					"interpolation":"STEP",
					"output":52
				},
				{
					"input":31,
					"interpolation":"STEP",
					"output":53
				},
				{
					"input":31,
					"interpolation":"STEP",
					"output":54
				},
				{
					"input":31,
					"interpolation":"STEP",
					"output":55
				},
				{
					"input":31,
					"interpolation":"STEP",
					"output":56
				},
				{
					"input":31,
					"interpolation":"STEP",
					"output":57
				},
				{
					"input":31,
					"interpolation":"STEP",
					"output":58
				}
			]
		}
	],
	"materials":[
		{
			"doubleSided":true,
			"name":"car2_mat",
			"pbrMetallicRoughness":{
				"baseColorTexture":{
					"index":0
				},
				"metallicFactor":0,
				"roughnessFactor":0.5527864098548889
			}
		}
	],
	"meshes":[
		{
			"name":"Mesh.011",
			"primitives":[
				{
					"attributes":{
						"POSITION":0,
						"NORMAL":1,
						"TEXCOORD_0":2,
						"JOINTS_0":3,
						"WEIGHTS_0":4
					},
					"indices":5,
					"material":0
				}
			]
		},
		{
			"name":"Mesh.096",
			"primitives":[
				{
					"attributes":{
						"POSITION":7,
						"NORMAL":8,
						"TEXCOORD_0":9,
						"JOINTS_0":10,
						"WEIGHTS_0":11
					},
					"indices":12,
					"material":0
				}
			]
		},
		{
			"name":"Mesh.099",
			"primitives":[
				{
					"attributes":{
						"POSITION":13,
						"NORMAL":14,
						"TEXCOORD_0":15,
						"JOINTS_0":16,
						"WEIGHTS_0":17
					},
					"indices":18,
					"material":0
				}
			]
		},
		{
			"name":"Mesh.106",
			"primitives":[
				{
					"attributes":{
						"POSITION":19,
						"NORMAL":20,
						"TEXCOORD_0":21,
						"JOINTS_0":22,
						"WEIGHTS_0":23
					},
					"indices":24,
					"material":0
				}
			]
		},
		{
			"name":"Mesh.120",
			"primitives":[
				{
					"attributes":{
						"POSITION":25,
						"NORMAL":26,
						"TEXCOORD_0":27,
						"JOINTS_0":28,
						"WEIGHTS_0":29
					},
					"indices":30,
					"material":0
				}
			]
		}
	],
	"textures":[
		{
			"sampler":0,
			"source":0
		}
	],
	"images":[
		{
			"mimeType":"image/jpeg",
			"name":"car1 and 2_base color",
			"uri":"car1%20and%202_base%20color.jpg"
		}
	],
	"skins":[
		{
			"inverseBindMatrices":6,
			"joints":[
				8,
				7,
				1,
				0,
				2,
				4,
				3,
				5,
				6
			],
			"name":"car2"
		}
	],
	"accessors":[
		{
			"bufferView":0,
			"componentType":5126,
			"count":1856,
			"max":[
				2.2643728256225586,
				4.6739373207092285,
				2.7908806800842285
			],
			"min":[
				-2.2643723487854004,
				0.4663294553756714,
				-2.7909233570098877
			],
			"type":"VEC3"
		},
		{
			"bufferView":1,
			"componentType":5126,
			"count":1856,
			"type":"VEC3"
		},
		{
			"bufferView":2,
			"componentType":5126,
			"count":1856,
			"type":"VEC2"
		},
		{
			"bufferView":3,
			"componentType":5121,
			"count":1856,
			"type":"VEC4"
		},
		{
			"bufferView":4,
			"componentType":5126,
			"count":1856,
			"type":"VEC4"
		},
		{
			"bufferView":5,
			"componentType":5123,
			"count":7998,
			"type":"SCALAR"
		},
		{
			"bufferView":6,
			"componentType":5126,
			"count":9,
			"type":"MAT4"
		},
		{
			"bufferView":7,
			"componentType":5126,
			"count":88,
			"max":[
				2.002030611038208,
				1.0488890409469604,
				2.310271739959717
			],
			"min":[
				1.5459343194961548,
				0.0234220027923584,
				1.2904222011566162
			],
			"type":"VEC3"
		},
		{
			"bufferView":8,
			"componentType":5126,
			"count":88,
			"type":"VEC3"
		},
		{
			"bufferView":9,
			"componentType":5126,
			"count":88,
			"type":"VEC2"
		},
		{
			"bufferView":10,
			"componentType":5121,
			"count":88,
			"type":"VEC4"
		},
		{
			"bufferView":11,
			"componentType":5126,
			"count":88,
			"type":"VEC4"
		},
		{
			"bufferView":12,
			"componentType":5123,
			"count":318,
			"type":"SCALAR"
		},
		{
			"bufferView":13,
			"componentType":5126,
			"count":88,
			"max":[
				1.9753472805023193,
				1.0488896369934082,
				-1.2234747409820557
			],
			"min":[
				1.520269513130188,
				0.0234224796295166,
				-2.2433245182037354
			],
			"type":"VEC3"
		},
		{
			"bufferView":14,
			"componentType":5126,
			"count":88,
			"type":"VEC3"
		},
		{
			"bufferView":15,
			"componentType":5126,
			"count":88,
			"type":"VEC2"
		},
		{
			"bufferView":16,
			"componentType":5121,
			"count":88,
			"type":"VEC4"
		},
		{
			"bufferView":17,
			"componentType":5126,
			"count":88,
			"type":"VEC4"
		},
		{
			"bufferView":18,
			"componentType":5123,
			"count":318,
			"type":"SCALAR"
		},
		{
			"bufferView":19,
			"componentType":5126,
			"count":88,
			"max":[
				-1.5459342002868652,
				1.0488890409469604,
				2.310271739959717
			],
			"min":[
				-2.00203013420105,
				0.0234220027923584,
				1.2904222011566162
			],
			"type":"VEC3"
		},
		{
			"bufferView":20,
			"componentType":5126,
			"count":88,
			"type":"VEC3"
		},
		{
			"bufferView":21,
			"componentType":5126,
			"count":88,
			"type":"VEC2"
		},
		{
			"bufferView":22,
			"componentType":5121,
			"count":88,
			"type":"VEC4"
		},
		{
			"bufferView":23,
			"componentType":5126,
			"count":88,
			"type":"VEC4"
		},
		{
			"bufferView":24,
			"componentType":5123,
			"count":318,
			"type":"SCALAR"
		},
		{
			"bufferView":25,
			"componentType":5126,
			"count":88,
			"max":[
				-1.5202692747116089,
				1.0488896369934082,
				-1.2234747409820557
			],
			"min":[
				-1.9753468036651611,
				0.0234224796295166,
				-2.2433245182037354
			],
			"type":"VEC3"
		},
		{
			"bufferView":26,
			"componentType":5126,
			"count":88,
			"type":"VEC3"
		},
		{
			"bufferView":27,
			"componentType":5126,
			"count":88,
			"type":"VEC2"
		},
		{
			"bufferView":28,
			"componentType":5121,
			"count":88,
			"type":"VEC4"
		},
		{
			"bufferView":29,
			"componentType":5126,
			"count":88,
			"type":"VEC4"
		},
		{
			"bufferView":30,
			"componentType":5123,
			"count":318,
			"type":"SCALAR"
		},
		{
			"bufferView":31,
			"componentType":5126,
			"count":2,
			"max":[
				0.08333333333333333
			],
			"min":[
				0.041666666666666664
			],
			"type":"SCALAR"
		},
		{
			"bufferView":32,
			"componentType":5126,
			"count":2,
			"type":"VEC3"
		},
		{
			"bufferView":33,
			"componentType":5126,
			"count":2,
			"type":"VEC4"
		},
		{
			"bufferView":34,
			"componentType":5126,
			"count":2,
			"type":"VEC3"
		},
		{
			"bufferView":35,
			"componentType":5126,
			"count":2,
			"type":"VEC3"
		},
		{
			"bufferView":36,
			"componentType":5126,
			"count":2,
			"type":"VEC4"
		},
		{
			"bufferView":37,
			"componentType":5126,
			"count":2,
			"type":"VEC3"
		},
		{
			"bufferView":38,
			"componentType":5126,
			"count":2,
			"type":"VEC3"
		},
		{
			"bufferView":39,
			"componentType":5126,
			"count":2,
			"type":"VEC4"
		},
		{
			"bufferView":40,
			"componentType":5126,
			"count":2,
			"type":"VEC3"
		},
		{
			"bufferView":41,
			"componentType":5126,
			"count":2,
			"type":"VEC3"
		},
		{
			"bufferView":42,
			"componentType":5126,
			"count":2,
			"type":"VEC4"
		},
		{
			"bufferView":43,
			"componentType":5126,
			"count":2,
			"type":"VEC3"
		},
		{
			"bufferView":44,
			"componentType":5126,
			"count":2,
			"type":"VEC3"
		},
		{
			"bufferView":45,
			"componentType":5126,
			"count":2,
			"type":"VEC4"
		},
		{
			"bufferView":46,
			"componentType":5126,
			"count":2,
			"type":"VEC3"
		},
		{
			"bufferView":47,
			"componentType":5126,
			"count":2,
			"type":"VEC3"
		},
		{
			"bufferView":48,
			"componentType":5126,
			"count":2,
			"type":"VEC4"
		},
		{
			"bufferView":49,
			"componentType":5126,
			"count":2,
			"type":"VEC3"
		},
		{
			"bufferView":50,
			"componentType":5126,
			"count":2,
			"type":"VEC3"
		},
		{
			"bufferView":51,
			"componentType":5126,
			"count":2,
			"type":"VEC4"
		},
		{
			"bufferView":52,
			"componentType":5126,
			"count":2,
			"type":"VEC3"
		},
		{
			"bufferView":53,
			"componentType":5126,
			"count":2,
			"type":"VEC3"
		},
		{
			"bufferView":54,
			"componentType":5126,
			"count":2,
			"type":"VEC4"
		},
		{
			"bufferView":55,
			"componentType":5126,
			"count":2,
			"type":"VEC3"
		},
		{
			"bufferView":56,
			"componentType":5126,
			"count":2,
			"type":"VEC3"
		},
		{
			"bufferView":57,
			"componentType":5126,
			"count":2,
			"type":"VEC4"
		},
		{
			"bufferView":58,
			"componentType":5126,
			"count":2,
			"type":"VEC3"
		}
	],
	"bufferViews":[
		{
			"buffer":0,
			"byteLength":22272,
			"byteOffset":0,
			"target":34962
		},
		{
			"buffer":0,
			"byteLength":22272,
			"byteOffset":22272,
			"target":34962
		},
		{
			"buffer":0,
			"byteLength":14848,
			"byteOffset":44544,
			"target":34962
		},
		{
			"buffer":0,
			"byteLength":7424,
			"byteOffset":59392,
			"target":34962
		},
		{
			"buffer":0,
			"byteLength":29696,
			"byteOffset":66816,
			"target":34962
		},
		{
			"buffer":0,
			"byteLength":15996,
			"byteOffset":96512,
			"target":34963
		},
		{
			"buffer":0,
			"byteLength":576,
			"byteOffset":112508
		},
		{
			"buffer":0,
			"byteLength":1056,
			"byteOffset":113084,
			"target":34962
		},
		{
			"buffer":0,
			"byteLength":1056,
			"byteOffset":114140,
			"target":34962
		},
		{
			"buffer":0,
			"byteLength":704,
			"byteOffset":115196,
			"target":34962
		},
		{
			"buffer":0,
			"byteLength":352,
			"byteOffset":115900,
			"target":34962
		},
		{
			"buffer":0,
			"byteLength":1408,
			"byteOffset":116252,
			"target":34962
		},
		{
			"buffer":0,
			"byteLength":636,
			"byteOffset":117660,
			"target":34963
		},
		{
			"buffer":0,
			"byteLength":1056,
			"byteOffset":118296,
			"target":34962
		},
		{
			"buffer":0,
			"byteLength":1056,
			"byteOffset":119352,
			"target":34962
		},
		{
			"buffer":0,
			"byteLength":704,
			"byteOffset":120408,
			"target":34962
		},
		{
			"buffer":0,
			"byteLength":352,
			"byteOffset":121112,
			"target":34962
		},
		{
			"buffer":0,
			"byteLength":1408,
			"byteOffset":121464,
			"target":34962
		},
		{
			"buffer":0,
			"byteLength":636,
			"byteOffset":122872,
			"target":34963
		},
		{
			"buffer":0,
			"byteLength":1056,
			"byteOffset":123508,
			"target":34962
		},
		{
			"buffer":0,
			"byteLength":1056,
			"byteOffset":124564,
			"target":34962
		},
		{
			"buffer":0,
			"byteLength":704,
			"byteOffset":125620,
			"target":34962
		},
		{
			"buffer":0,
			"byteLength":352,
			"byteOffset":126324,
			"target":34962
		},
		{
			"buffer":0,
			"byteLength":1408,
			"byteOffset":126676,
			"target":34962
		},
		{
			"buffer":0,
			"byteLength":636,
			"byteOffset":128084,
			"target":34963
		},
		{
			"buffer":0,
			"byteLength":1056,
			"byteOffset":128720,
			"target":34962
		},
		{
			"buffer":0,
			"byteLength":1056,
			"byteOffset":129776,
			"target":34962
		},
		{
			"buffer":0,
			"byteLength":704,
			"byteOffset":130832,
			"target":34962
		},
		{
			"buffer":0,
			"byteLength":352,
			"byteOffset":131536,
			"target":34962
		},
		{
			"buffer":0,
			"byteLength":1408,
			"byteOffset":131888,
			"target":34962
		},
		{
			"buffer":0,
			"byteLength":636,
			"byteOffset":133296,
			"target":34963
		},
		{
			"buffer":0,
			"byteLength":8,
			"byteOffset":133932
		},
		{
			"buffer":0,
			"byteLength":24,
			"byteOffset":133940
		},
		{
			"buffer":0,
			"byteLength":32,
			"byteOffset":133964
		},
		{
			"buffer":0,
			"byteLength":24,
			"byteOffset":133996
		},
		{
			"buffer":0,
			"byteLength":24,
			"byteOffset":134020
		},
		{
			"buffer":0,
			"byteLength":32,
			"byteOffset":134044
		},
		{
			"buffer":0,
			"byteLength":24,
			"byteOffset":134076
		},
		{
			"buffer":0,
			"byteLength":24,
			"byteOffset":134100
		},
		{
			"buffer":0,
			"byteLength":32,
			"byteOffset":134124
		},
		{
			"buffer":0,
			"byteLength":24,
			"byteOffset":134156
		},
		{
			"buffer":0,
			"byteLength":24,
			"byteOffset":134180
		},
		{
			"buffer":0,
			"byteLength":32,
			"byteOffset":134204
		},
		{
			"buffer":0,
			"byteLength":24,
			"byteOffset":134236
		},
		{
			"buffer":0,
			"byteLength":24,
			"byteOffset":134260
		},
		{
			"buffer":0,
			"byteLength":32,
			"byteOffset":134284
		},
		{
			"buffer":0,
			"byteLength":24,
			"byteOffset":134316
		},
		{
			"buffer":0,
			"byteLength":24,
			"byteOffset":134340
		},
		{
			"buffer":0,
			"byteLength":32,
			"byteOffset":134364
		},
		{
			"buffer":0,
			"byteLength":24,
			"byteOffset":134396
		},
		{
			"buffer":0,
			"byteLength":24,
			"byteOffset":134420
		},
		{
			"buffer":0,
			"byteLength":32,
			"byteOffset":134444
		},
		{
			"buffer":0,
			"byteLength":24,
			"byteOffset":134476
		},
		{
			"buffer":0,
			"byteLength":24,
			"byteOffset":134500
		},
		{
			"buffer":0,
			"byteLength":32,
			"byteOffset":134524
		},
		{
			"buffer":0,
			"byteLength":24,
			"byteOffset":134556
		},
		{
			"buffer":0,
			"byteLength":24,
			"byteOffset":134580
		},
		{
			"buffer":0,
			"byteLength":32,
			"byteOffset":134604
		},
		{
			"buffer":0,
			"byteLength":24,
			"byteOffset":134636
		}
	],
	"samplers":[
		{
			"magFilter":9729,
			"minFilter":9987
		}
	],
	"buffers":[
		{
			"byteLength":134660,
			"uri":"car02_v01.bin"
		}
	]
}
