{
	"asset":{
		"generator":"Khronos glTF Blender I/O v4.4.56",
		"version":"2.0"
	},
	"extensionsUsed":[
		"KHR_materials_specular",
		"KHR_materials_ior"
	],
	"scene":0,
	"scenes":[
		{
			"name":"Scene",
			"nodes":[
				0
			]
		}
	],
	"nodes":[
		{
			"mesh":0,
			"name":"log"
		}
	],
	"materials":[
		{
			"doubleSided":true,
			"extensions":{
				"KHR_materials_specular":{
					"specularFactor":0
				},
				"KHR_materials_ior":{
					"ior":1.4500000476837158
				}
			},
			"name":"crossy_chicken_bg_mat",
			"pbrMetallicRoughness":{
				"baseColorTexture":{
					"index":0
				},
				"metallicFactor":0,
				"roughnessFactor":0.5527864098548889
			}
		}
	],
	"meshes":[
		{
			"name":"Mesh.981",
			"primitives":[
				{
					"attributes":{
						"POSITION":0,
						"NORMAL":1,
						"TEXCOORD_0":2
					},
					"indices":3,
					"material":0
				}
			]
		}
	],
	"textures":[
		{
			"sampler":0,
			"source":0
		}
	],
	"images":[
		{
			"mimeType":"image/png",
			"name":"crossy_chicken_bg_base color",
			"uri":"crossy_chicken_bg_base%20color.png"
		}
	],
	"accessors":[
		{
			"bufferView":0,
			"componentType":5126,
			"count":319,
			"max":[
				1.840466022491455,
				0.7193109393119812,
				7.105344772338867
			],
			"min":[
				-1.7590665817260742,
				-0.43814629316329956,
				-6.071672439575195
			],
			"type":"VEC3"
		},
		{
			"bufferView":1,
			"componentType":5126,
			"count":319,
			"type":"VEC3"
		},
		{
			"bufferView":2,
			"componentType":5126,
			"count":319,
			"type":"VEC2"
		},
		{
			"bufferView":3,
			"componentType":5123,
			"count":702,
			"type":"SCALAR"
		}
	],
	"bufferViews":[
		{
			"buffer":0,
			"byteLength":3828,
			"byteOffset":0,
			"target":34962
		},
		{
			"buffer":0,
			"byteLength":3828,
			"byteOffset":3828,
			"target":34962
		},
		{
			"buffer":0,
			"byteLength":2552,
			"byteOffset":7656,
			"target":34962
		},
		{
			"buffer":0,
			"byteLength":1404,
			"byteOffset":10208,
			"target":34963
		}
	],
	"samplers":[
		{
			"magFilter":9729,
			"minFilter":9987
		}
	],
	"buffers":[
		{
			"byteLength":11612,
			"uri":"Log.bin"
		}
	]
}
