{
	"asset":{
		"generator":"Khronos glTF Blender I/O v4.1.63",
		"version":"2.0"
	},
	"scene":0,
	"scenes":[
		{
			"extras":{
				"faceit_subscribed":1,
				"faceit_live_mocap_settings":[
					{
						"name":"FACECAP",
						"address":"0.0.0.0",
						"port":9001,
						"rotation_units":0,
						"head_location_multiplier":1.0,
						"rotation_units_variable":0,
						"can_animate_head_rotation":1,
						"can_animate_head_location":1,
						"can_animate_eye_rotation":1
					},
					{
						"name":"EPIC",
						"address":"0.0.0.0",
						"port":11111,
						"rotation_units":1,
						"head_location_multiplier":1.0,
						"rotation_units_variable":0,
						"can_animate_head_rotation":1,
						"can_animate_head_location":0,
						"can_animate_eye_rotation":1
					},
					{
						"name":"TILE",
						"address":"0.0.0.0",
						"port":9001,
						"rotation_units":0,
						"head_location_multiplier":1.0,
						"rotation_units_variable":1,
						"can_animate_head_rotation":1,
						"can_animate_head_location":1,
						"can_animate_eye_rotation":1
					},
					{
						"name":"IFACIALMOCAP",
						"address":"0.0.0.0",
						"port":49983,
						"rotation_units":0,
						"head_location_multiplier":100.0,
						"rotation_units_variable":0,
						"can_animate_head_rotation":1,
						"can_animate_head_location":1,
						"can_animate_eye_rotation":1
					},
					{
						"name":"A2F",
						"address":"0.0.0.0",
						"port":9001,
						"rotation_units":0,
						"head_location_multiplier":1.0,
						"rotation_units_variable":0,
						"can_animate_head_rotation":0,
						"can_animate_head_location":0,
						"can_animate_eye_rotation":0
					}
				],
				"faceit_control_armature":{},
				"faceit_body_armature":{},
				"faceit_armature":{},
				"faceit_workspace":{},
				"faceit_pin_panels":{},
				"faceit_osc_receiver_enabled":0
			},
			"name":"Scene",
			"nodes":[
				14
			]
		}
	],
	"nodes":[
		{
			"name":"car1_front_wheel.001",
			"rotation":[
				-0.5000584125518799,
				-0.4999416470527649,
				-0.5000583529472351,
				0.4999416470527649
			],
			"translation":[
				5.493538957068722e-09,
				3.12404637270447e-07,
				-9.035594672468505e-08
			]
		},
		{
			"children":[
				0
			],
			"name":"car1_front_wheel",
			"rotation":[
				-9.828226232855286e-09,
				0.7076120972633362,
				0.7066011428833008,
				5.342323206036781e-08
			],
			"scale":[
				1,
				1.0000003576278687,
				1
			],
			"translation":[
				0.051554374396800995,
				1.7368327379226685,
				0.43086203932762146
			]
		},
		{
			"name":"car1_front_wheel.002",
			"rotation":[
				-0.000986753380857408,
				1.5495641036977759e-06,
				0.00026120393886230886,
				0.999999463558197
			],
			"scale":[
				1,
				1,
				0.9999999403953552
			],
			"translation":[
				0.051554374396800995,
				2.0124785900115967,
				0.4304679334163666
			]
		},
		{
			"name":"car1_front_wheel.004",
			"rotation":[
				-0.5000584125518799,
				-0.49994170665740967,
				-0.5000582933425903,
				0.4999416470527649
			],
			"translation":[
				6.676313724085503e-09,
				2.8807610874537204e-07,
				-2.2754999662311093e-08
			]
		},
		{
			"children":[
				3
			],
			"name":"car1_front_wheel.003",
			"rotation":[
				-9.82821646289267e-09,
				0.7076120972633362,
				0.7066011428833008,
				5.342323206036781e-08
			],
			"scale":[
				1,
				1.0000003576278687,
				1
			],
			"translation":[
				0.05155429616570473,
				-2.0544352531433105,
				0.43628329038619995
			]
		},
		{
			"name":"car1_front_wheel.005",
			"rotation":[
				-0.000986795756034553,
				1.4899486586728017e-06,
				0.0002612041134852916,
				0.999999463558197
			],
			"scale":[
				1,
				1,
				0.9999999403953552
			],
			"translation":[
				0.05155429616570473,
				-1.7315356731414795,
				0.43582168221473694
			]
		},
		{
			"name":"car1_body",
			"rotation":[
				-3.837859544053579e-11,
				-0.9999998807907104,
				0.0005083399009890854,
				7.549789415861596e-08
			],
			"scale":[
				1,
				1.000000238418579,
				0.9999999403953552
			],
			"translation":[
				0.103587806224823,
				-0.06596941500902176,
				3.0461575984954834
			]
		},
		{
			"children":[
				1,
				2,
				4,
				5,
				6
			],
			"name":"car1_wheel_sub",
			"rotation":[
				-0.9999986886978149,
				-5.115513221354284e-11,
				-1.192091474422341e-07,
				0.0016093342565000057
			],
			"scale":[
				1,
				0.9999999403953552,
				0.9999999403953552
			]
		},
		{
			"children":[
				7
			],
			"name":"car1_wheel_main",
			"rotation":[
				-5.333730968004602e-08,
				-0.7077389359474182,
				0.7064741253852844,
				5.3432810176445855e-08
			],
			"scale":[
				1,
				0.9999999403953552,
				1
			],
			"translation":[
				-1.668930025289228e-07,
				-0.4663390815258026,
				-1.6739647388458252
			]
		},
		{
			"extras":{
				"als":{}
			},
			"mesh":0,
			"name":"Car_3",
			"skin":0
		},
		{
			"extras":{
				"als":{}
			},
			"mesh":1,
			"name":"Car_3_tire.001",
			"skin":0
		},
		{
			"extras":{
				"als":{}
			},
			"mesh":2,
			"name":"Car_3_tire.002",
			"skin":0
		},
		{
			"extras":{
				"als":{}
			},
			"mesh":3,
			"name":"Car_3_tire.003",
			"skin":0
		},
		{
			"extras":{
				"als":{}
			},
			"mesh":4,
			"name":"Car_3_tire.004",
			"skin":0
		},
		{
			"children":[
				9,
				10,
				11,
				12,
				13,
				8
			],
			"extras":{
				"als":{}
			},
			"name":"car3",
			"translation":[
				0,
				0.4663390815258026,
				1.6739647388458252
			]
		}
	],
	"animations":[
		{
			"channels":[
				{
					"sampler":0,
					"target":{
						"node":8,
						"path":"translation"
					}
				},
				{
					"sampler":1,
					"target":{
						"node":8,
						"path":"rotation"
					}
				},
				{
					"sampler":2,
					"target":{
						"node":8,
						"path":"scale"
					}
				},
				{
					"sampler":3,
					"target":{
						"node":7,
						"path":"translation"
					}
				},
				{
					"sampler":4,
					"target":{
						"node":7,
						"path":"rotation"
					}
				},
				{
					"sampler":5,
					"target":{
						"node":7,
						"path":"scale"
					}
				},
				{
					"sampler":6,
					"target":{
						"node":1,
						"path":"translation"
					}
				},
				{
					"sampler":7,
					"target":{
						"node":1,
						"path":"rotation"
					}
				},
				{
					"sampler":8,
					"target":{
						"node":1,
						"path":"scale"
					}
				},
				{
					"sampler":9,
					"target":{
						"node":0,
						"path":"translation"
					}
				},
				{
					"sampler":10,
					"target":{
						"node":0,
						"path":"rotation"
					}
				},
				{
					"sampler":11,
					"target":{
						"node":0,
						"path":"scale"
					}
				},
				{
					"sampler":12,
					"target":{
						"node":2,
						"path":"translation"
					}
				},
				{
					"sampler":13,
					"target":{
						"node":2,
						"path":"rotation"
					}
				},
				{
					"sampler":14,
					"target":{
						"node":2,
						"path":"scale"
					}
				},
				{
					"sampler":15,
					"target":{
						"node":4,
						"path":"translation"
					}
				},
				{
					"sampler":16,
					"target":{
						"node":4,
						"path":"rotation"
					}
				},
				{
					"sampler":17,
					"target":{
						"node":4,
						"path":"scale"
					}
				},
				{
					"sampler":18,
					"target":{
						"node":3,
						"path":"translation"
					}
				},
				{
					"sampler":19,
					"target":{
						"node":3,
						"path":"rotation"
					}
				},
				{
					"sampler":20,
					"target":{
						"node":3,
						"path":"scale"
					}
				},
				{
					"sampler":21,
					"target":{
						"node":5,
						"path":"translation"
					}
				},
				{
					"sampler":22,
					"target":{
						"node":5,
						"path":"rotation"
					}
				},
				{
					"sampler":23,
					"target":{
						"node":5,
						"path":"scale"
					}
				},
				{
					"sampler":24,
					"target":{
						"node":6,
						"path":"translation"
					}
				},
				{
					"sampler":25,
					"target":{
						"node":6,
						"path":"rotation"
					}
				},
				{
					"sampler":26,
					"target":{
						"node":6,
						"path":"scale"
					}
				}
			],
			"name":"car3_dedault_pose",
			"samplers":[
				{
					"input":30,
					"interpolation":"STEP",
					"output":31
				},
				{
					"input":30,
					"interpolation":"STEP",
					"output":32
				},
				{
					"input":30,
					"interpolation":"STEP",
					"output":33
				},
				{
					"input":30,
					"interpolation":"STEP",
					"output":34
				},
				{
					"input":30,
					"interpolation":"STEP",
					"output":35
				},
				{
					"input":30,
					"interpolation":"STEP",
					"output":36
				},
				{
					"input":30,
					"interpolation":"STEP",
					"output":37
				},
				{
					"input":30,
					"interpolation":"STEP",
					"output":38
				},
				{
					"input":30,
					"interpolation":"STEP",
					"output":39
				},
				{
					"input":30,
					"interpolation":"STEP",
					"output":40
				},
				{
					"input":30,
					"interpolation":"STEP",
					"output":41
				},
				{
					"input":30,
					"interpolation":"STEP",
					"output":42
				},
				{
					"input":30,
					"interpolation":"STEP",
					"output":43
				},
				{
					"input":30,
					"interpolation":"STEP",
					"output":44
				},
				{
					"input":30,
					"interpolation":"STEP",
					"output":45
				},
				{
					"input":30,
					"interpolation":"STEP",
					"output":46
				},
				{
					"input":30,
					"interpolation":"STEP",
					"output":47
				},
				{
					"input":30,
					"interpolation":"STEP",
					"output":48
				},
				{
					"input":30,
					"interpolation":"STEP",
					"output":49
				},
				{
					"input":30,
					"interpolation":"STEP",
					"output":50
				},
				{
					"input":30,
					"interpolation":"STEP",
					"output":51
				},
				{
					"input":30,
					"interpolation":"STEP",
					"output":52
				},
				{
					"input":30,
					"interpolation":"STEP",
					"output":53
				},
				{
					"input":30,
					"interpolation":"STEP",
					"output":54
				},
				{
					"input":30,
					"interpolation":"STEP",
					"output":55
				},
				{
					"input":30,
					"interpolation":"STEP",
					"output":56
				},
				{
					"input":30,
					"interpolation":"STEP",
					"output":57
				}
			]
		}
	],
	"materials":[
		{
			"doubleSided":true,
			"name":"car3_mat",
			"pbrMetallicRoughness":{
				"baseColorTexture":{
					"index":0
				},
				"metallicFactor":0,
				"roughnessFactor":0.5527864098548889
			}
		}
	],
	"meshes":[
		{
			"name":"Mesh.069",
			"primitives":[
				{
					"attributes":{
						"POSITION":0,
						"NORMAL":1,
						"TEXCOORD_0":2,
						"JOINTS_0":3,
						"WEIGHTS_0":4
					},
					"indices":5,
					"material":0
				}
			]
		},
		{
			"name":"Mesh.107",
			"primitives":[
				{
					"attributes":{
						"POSITION":7,
						"NORMAL":8,
						"TEXCOORD_0":9,
						"JOINTS_0":10,
						"WEIGHTS_0":11
					},
					"indices":12,
					"material":0
				}
			]
		},
		{
			"name":"Mesh.111",
			"primitives":[
				{
					"attributes":{
						"POSITION":13,
						"NORMAL":14,
						"TEXCOORD_0":15,
						"JOINTS_0":16,
						"WEIGHTS_0":17
					},
					"indices":18,
					"material":0
				}
			]
		},
		{
			"name":"Mesh.114",
			"primitives":[
				{
					"attributes":{
						"POSITION":19,
						"NORMAL":20,
						"TEXCOORD_0":21,
						"JOINTS_0":22,
						"WEIGHTS_0":23
					},
					"indices":24,
					"material":0
				}
			]
		},
		{
			"name":"Mesh.117",
			"primitives":[
				{
					"attributes":{
						"POSITION":25,
						"NORMAL":26,
						"TEXCOORD_0":27,
						"JOINTS_0":28,
						"WEIGHTS_0":29
					},
					"indices":24,
					"material":0
				}
			]
		}
	],
	"textures":[
		{
			"sampler":0,
			"source":0
		}
	],
	"images":[
		{
			"mimeType":"image/jpeg",
			"name":"car_3_base color",
			"uri":"car_3_base%20color.jpg"
		}
	],
	"skins":[
		{
			"inverseBindMatrices":6,
			"joints":[
				8,
				7,
				1,
				0,
				2,
				4,
				3,
				5,
				6
			],
			"name":"car3"
		}
	],
	"accessors":[
		{
			"bufferView":0,
			"componentType":5126,
			"count":3736,
			"max":[
				2.0895166397094727,
				4.627899169921875,
				3.151533603668213
			],
			"min":[
				-2.1926255226135254,
				0.4552924633026123,
				-3.1958887577056885
			],
			"type":"VEC3"
		},
		{
			"bufferView":1,
			"componentType":5126,
			"count":3736,
			"type":"VEC3"
		},
		{
			"bufferView":2,
			"componentType":5126,
			"count":3736,
			"type":"VEC2"
		},
		{
			"bufferView":3,
			"componentType":5121,
			"count":3736,
			"type":"VEC4"
		},
		{
			"bufferView":4,
			"componentType":5126,
			"count":3736,
			"type":"VEC4"
		},
		{
			"bufferView":5,
			"componentType":5123,
			"count":17130,
			"type":"SCALAR"
		},
		{
			"bufferView":6,
			"componentType":5126,
			"count":9,
			"type":"MAT4"
		},
		{
			"bufferView":7,
			"componentType":5126,
			"count":88,
			"max":[
				1.528442144393921,
				0.8477895259857178,
				2.1576929092407227
			],
			"min":[
				1.155020833015442,
				0.006326436996459961,
				1.3208391666412354
			],
			"type":"VEC3"
		},
		{
			"bufferView":8,
			"componentType":5126,
			"count":88,
			"type":"VEC3"
		},
		{
			"bufferView":9,
			"componentType":5126,
			"count":88,
			"type":"VEC2"
		},
		{
			"bufferView":10,
			"componentType":5121,
			"count":88,
			"type":"VEC4"
		},
		{
			"bufferView":11,
			"componentType":5126,
			"count":88,
			"type":"VEC4"
		},
		{
			"bufferView":12,
			"componentType":5123,
			"count":318,
			"type":"SCALAR"
		},
		{
			"bufferView":13,
			"componentType":5126,
			"count":88,
			"max":[
				1.528442144393921,
				0.8477902412414551,
				-1.633577823638916
			],
			"min":[
				1.155020833015442,
				0.006326913833618164,
				-2.4704315662384033
			],
			"type":"VEC3"
		},
		{
			"bufferView":14,
			"componentType":5126,
			"count":88,
			"type":"VEC3"
		},
		{
			"bufferView":15,
			"componentType":5126,
			"count":88,
			"type":"VEC2"
		},
		{
			"bufferView":16,
			"componentType":5121,
			"count":88,
			"type":"VEC4"
		},
		{
			"bufferView":17,
			"componentType":5126,
			"count":88,
			"type":"VEC4"
		},
		{
			"bufferView":18,
			"componentType":5123,
			"count":318,
			"type":"SCALAR"
		},
		{
			"bufferView":19,
			"componentType":5126,
			"count":88,
			"max":[
				-1.2581298351287842,
				0.8477895259857178,
				2.1576929092407227
			],
			"min":[
				-1.6315510272979736,
				0.006326436996459961,
				1.3208391666412354
			],
			"type":"VEC3"
		},
		{
			"bufferView":20,
			"componentType":5126,
			"count":88,
			"type":"VEC3"
		},
		{
			"bufferView":21,
			"componentType":5126,
			"count":88,
			"type":"VEC2"
		},
		{
			"bufferView":22,
			"componentType":5121,
			"count":88,
			"type":"VEC4"
		},
		{
			"bufferView":23,
			"componentType":5126,
			"count":88,
			"type":"VEC4"
		},
		{
			"bufferView":24,
			"componentType":5123,
			"count":318,
			"type":"SCALAR"
		},
		{
			"bufferView":25,
			"componentType":5126,
			"count":88,
			"max":[
				-1.2581298351287842,
				0.8477902412414551,
				-1.633577823638916
			],
			"min":[
				-1.6315510272979736,
				0.006326913833618164,
				-2.4704315662384033
			],
			"type":"VEC3"
		},
		{
			"bufferView":26,
			"componentType":5126,
			"count":88,
			"type":"VEC3"
		},
		{
			"bufferView":27,
			"componentType":5126,
			"count":88,
			"type":"VEC2"
		},
		{
			"bufferView":28,
			"componentType":5121,
			"count":88,
			"type":"VEC4"
		},
		{
			"bufferView":29,
			"componentType":5126,
			"count":88,
			"type":"VEC4"
		},
		{
			"bufferView":30,
			"componentType":5126,
			"count":2,
			"max":[
				0.06666666666666667
			],
			"min":[
				0.03333333333333333
			],
			"type":"SCALAR"
		},
		{
			"bufferView":31,
			"componentType":5126,
			"count":2,
			"type":"VEC3"
		},
		{
			"bufferView":32,
			"componentType":5126,
			"count":2,
			"type":"VEC4"
		},
		{
			"bufferView":33,
			"componentType":5126,
			"count":2,
			"type":"VEC3"
		},
		{
			"bufferView":34,
			"componentType":5126,
			"count":2,
			"type":"VEC3"
		},
		{
			"bufferView":35,
			"componentType":5126,
			"count":2,
			"type":"VEC4"
		},
		{
			"bufferView":36,
			"componentType":5126,
			"count":2,
			"type":"VEC3"
		},
		{
			"bufferView":37,
			"componentType":5126,
			"count":2,
			"type":"VEC3"
		},
		{
			"bufferView":38,
			"componentType":5126,
			"count":2,
			"type":"VEC4"
		},
		{
			"bufferView":39,
			"componentType":5126,
			"count":2,
			"type":"VEC3"
		},
		{
			"bufferView":40,
			"componentType":5126,
			"count":2,
			"type":"VEC3"
		},
		{
			"bufferView":41,
			"componentType":5126,
			"count":2,
			"type":"VEC4"
		},
		{
			"bufferView":42,
			"componentType":5126,
			"count":2,
			"type":"VEC3"
		},
		{
			"bufferView":43,
			"componentType":5126,
			"count":2,
			"type":"VEC3"
		},
		{
			"bufferView":44,
			"componentType":5126,
			"count":2,
			"type":"VEC4"
		},
		{
			"bufferView":45,
			"componentType":5126,
			"count":2,
			"type":"VEC3"
		},
		{
			"bufferView":46,
			"componentType":5126,
			"count":2,
			"type":"VEC3"
		},
		{
			"bufferView":47,
			"componentType":5126,
			"count":2,
			"type":"VEC4"
		},
		{
			"bufferView":48,
			"componentType":5126,
			"count":2,
			"type":"VEC3"
		},
		{
			"bufferView":49,
			"componentType":5126,
			"count":2,
			"type":"VEC3"
		},
		{
			"bufferView":50,
			"componentType":5126,
			"count":2,
			"type":"VEC4"
		},
		{
			"bufferView":51,
			"componentType":5126,
			"count":2,
			"type":"VEC3"
		},
		{
			"bufferView":52,
			"componentType":5126,
			"count":2,
			"type":"VEC3"
		},
		{
			"bufferView":53,
			"componentType":5126,
			"count":2,
			"type":"VEC4"
		},
		{
			"bufferView":54,
			"componentType":5126,
			"count":2,
			"type":"VEC3"
		},
		{
			"bufferView":55,
			"componentType":5126,
			"count":2,
			"type":"VEC3"
		},
		{
			"bufferView":56,
			"componentType":5126,
			"count":2,
			"type":"VEC4"
		},
		{
			"bufferView":57,
			"componentType":5126,
			"count":2,
			"type":"VEC3"
		}
	],
	"bufferViews":[
		{
			"buffer":0,
			"byteLength":44832,
			"byteOffset":0,
			"target":34962
		},
		{
			"buffer":0,
			"byteLength":44832,
			"byteOffset":44832,
			"target":34962
		},
		{
			"buffer":0,
			"byteLength":29888,
			"byteOffset":89664,
			"target":34962
		},
		{
			"buffer":0,
			"byteLength":14944,
			"byteOffset":119552,
			"target":34962
		},
		{
			"buffer":0,
			"byteLength":59776,
			"byteOffset":134496,
			"target":34962
		},
		{
			"buffer":0,
			"byteLength":34260,
			"byteOffset":194272,
			"target":34963
		},
		{
			"buffer":0,
			"byteLength":576,
			"byteOffset":228532
		},
		{
			"buffer":0,
			"byteLength":1056,
			"byteOffset":229108,
			"target":34962
		},
		{
			"buffer":0,
			"byteLength":1056,
			"byteOffset":230164,
			"target":34962
		},
		{
			"buffer":0,
			"byteLength":704,
			"byteOffset":231220,
			"target":34962
		},
		{
			"buffer":0,
			"byteLength":352,
			"byteOffset":231924,
			"target":34962
		},
		{
			"buffer":0,
			"byteLength":1408,
			"byteOffset":232276,
			"target":34962
		},
		{
			"buffer":0,
			"byteLength":636,
			"byteOffset":233684,
			"target":34963
		},
		{
			"buffer":0,
			"byteLength":1056,
			"byteOffset":234320,
			"target":34962
		},
		{
			"buffer":0,
			"byteLength":1056,
			"byteOffset":235376,
			"target":34962
		},
		{
			"buffer":0,
			"byteLength":704,
			"byteOffset":236432,
			"target":34962
		},
		{
			"buffer":0,
			"byteLength":352,
			"byteOffset":237136,
			"target":34962
		},
		{
			"buffer":0,
			"byteLength":1408,
			"byteOffset":237488,
			"target":34962
		},
		{
			"buffer":0,
			"byteLength":636,
			"byteOffset":238896,
			"target":34963
		},
		{
			"buffer":0,
			"byteLength":1056,
			"byteOffset":239532,
			"target":34962
		},
		{
			"buffer":0,
			"byteLength":1056,
			"byteOffset":240588,
			"target":34962
		},
		{
			"buffer":0,
			"byteLength":704,
			"byteOffset":241644,
			"target":34962
		},
		{
			"buffer":0,
			"byteLength":352,
			"byteOffset":242348,
			"target":34962
		},
		{
			"buffer":0,
			"byteLength":1408,
			"byteOffset":242700,
			"target":34962
		},
		{
			"buffer":0,
			"byteLength":636,
			"byteOffset":244108,
			"target":34963
		},
		{
			"buffer":0,
			"byteLength":1056,
			"byteOffset":244744,
			"target":34962
		},
		{
			"buffer":0,
			"byteLength":1056,
			"byteOffset":245800,
			"target":34962
		},
		{
			"buffer":0,
			"byteLength":704,
			"byteOffset":246856,
			"target":34962
		},
		{
			"buffer":0,
			"byteLength":352,
			"byteOffset":247560,
			"target":34962
		},
		{
			"buffer":0,
			"byteLength":1408,
			"byteOffset":247912,
			"target":34962
		},
		{
			"buffer":0,
			"byteLength":8,
			"byteOffset":249320
		},
		{
			"buffer":0,
			"byteLength":24,
			"byteOffset":249328
		},
		{
			"buffer":0,
			"byteLength":32,
			"byteOffset":249352
		},
		{
			"buffer":0,
			"byteLength":24,
			"byteOffset":249384
		},
		{
			"buffer":0,
			"byteLength":24,
			"byteOffset":249408
		},
		{
			"buffer":0,
			"byteLength":32,
			"byteOffset":249432
		},
		{
			"buffer":0,
			"byteLength":24,
			"byteOffset":249464
		},
		{
			"buffer":0,
			"byteLength":24,
			"byteOffset":249488
		},
		{
			"buffer":0,
			"byteLength":32,
			"byteOffset":249512
		},
		{
			"buffer":0,
			"byteLength":24,
			"byteOffset":249544
		},
		{
			"buffer":0,
			"byteLength":24,
			"byteOffset":249568
		},
		{
			"buffer":0,
			"byteLength":32,
			"byteOffset":249592
		},
		{
			"buffer":0,
			"byteLength":24,
			"byteOffset":249624
		},
		{
			"buffer":0,
			"byteLength":24,
			"byteOffset":249648
		},
		{
			"buffer":0,
			"byteLength":32,
			"byteOffset":249672
		},
		{
			"buffer":0,
			"byteLength":24,
			"byteOffset":249704
		},
		{
			"buffer":0,
			"byteLength":24,
			"byteOffset":249728
		},
		{
			"buffer":0,
			"byteLength":32,
			"byteOffset":249752
		},
		{
			"buffer":0,
			"byteLength":24,
			"byteOffset":249784
		},
		{
			"buffer":0,
			"byteLength":24,
			"byteOffset":249808
		},
		{
			"buffer":0,
			"byteLength":32,
			"byteOffset":249832
		},
		{
			"buffer":0,
			"byteLength":24,
			"byteOffset":249864
		},
		{
			"buffer":0,
			"byteLength":24,
			"byteOffset":249888
		},
		{
			"buffer":0,
			"byteLength":32,
			"byteOffset":249912
		},
		{
			"buffer":0,
			"byteLength":24,
			"byteOffset":249944
		},
		{
			"buffer":0,
			"byteLength":24,
			"byteOffset":249968
		},
		{
			"buffer":0,
			"byteLength":32,
			"byteOffset":249992
		},
		{
			"buffer":0,
			"byteLength":24,
			"byteOffset":250024
		}
	],
	"samplers":[
		{
			"magFilter":9729,
			"minFilter":9987
		}
	],
	"buffers":[
		{
			"byteLength":250048,
			"uri":"car03_v01.bin"
		}
	]
}
