{
	"asset":{
		"generator":"Khronos glTF Blender I/O v4.4.56",
		"version":"2.0"
	},
	"extensionsUsed":[
		"KHR_materials_specular",
		"KHR_materials_ior"
	],
	"scene":0,
	"scenes":[
		{
			"name":"Scene",
			"nodes":[
				0
			]
		}
	],
	"nodes":[
		{
			"mesh":0,
			"name":"Train"
		}
	],
	"materials":[
		{
			"doubleSided":true,
			"extensions":{
				"KHR_materials_specular":{
					"specularFactor":0
				},
				"KHR_materials_ior":{
					"ior":1.4500000476837158
				}
			},
			"name":"crossy_chicken_bg_mat",
			"pbrMetallicRoughness":{
				"baseColorTexture":{
					"index":0
				},
				"metallicFactor":0,
				"roughnessFactor":0.5527864098548889
			}
		}
	],
	"meshes":[
		{
			"name":"Mesh.1399",
			"primitives":[
				{
					"attributes":{
						"POSITION":0,
						"NORMAL":1,
						"TEXCOORD_0":2
					},
					"indices":3,
					"material":0
				}
			]
		}
	],
	"textures":[
		{
			"sampler":0,
			"source":0
		}
	],
	"images":[
		{
			"mimeType":"image/png",
			"name":"crossy_chicken_bg_base color",
			"uri":"crossy_chicken_bg_base%20color.png"
		}
	],
	"accessors":[
		{
			"bufferView":0,
			"componentType":5126,
			"count":4415,
			"max":[
				2.3283371925354004,
				3.1591415405273438,
				31.096527099609375
			],
			"min":[
				-2.3304953575134277,
				-1.6872886419296265,
				-31.3016300201416
			],
			"type":"VEC3"
		},
		{
			"bufferView":1,
			"componentType":5126,
			"count":4415,
			"type":"VEC3"
		},
		{
			"bufferView":2,
			"componentType":5126,
			"count":4415,
			"type":"VEC2"
		},
		{
			"bufferView":3,
			"componentType":5123,
			"count":9342,
			"type":"SCALAR"
		}
	],
	"bufferViews":[
		{
			"buffer":0,
			"byteLength":52980,
			"byteOffset":0,
			"target":34962
		},
		{
			"buffer":0,
			"byteLength":52980,
			"byteOffset":52980,
			"target":34962
		},
		{
			"buffer":0,
			"byteLength":35320,
			"byteOffset":105960,
			"target":34962
		},
		{
			"buffer":0,
			"byteLength":18684,
			"byteOffset":141280,
			"target":34963
		}
	],
	"samplers":[
		{
			"magFilter":9729,
			"minFilter":9987
		}
	],
	"buffers":[
		{
			"byteLength":159964,
			"uri":"Train.bin"
		}
	]
}
