<svg id="Group_3368" data-name="Group 3368" xmlns="http://www.w3.org/2000/svg" xmlns:xlink="http://www.w3.org/1999/xlink" width="56.023" height="51.562" viewBox="0 0 56.023 51.562">
  <defs>
    <radialGradient id="radial-gradient" cx="0.477" cy="0.537" r="0.581" gradientUnits="objectBoundingBox">
      <stop offset="0.263" stop-color="#f2f2f2"/>
      <stop offset="0.633" stop-color="#717171"/>
      <stop offset="0.885" stop-color="#1f1f1f"/>
      <stop offset="1"/>
    </radialGradient>
    <radialGradient id="radial-gradient-2" cx="0.477" cy="0.535" r="0.563" xlink:href="#radial-gradient"/>
    <radialGradient id="radial-gradient-3" cx="0.396" cy="0.275" r="0.611" gradientUnits="objectBoundingBox">
      <stop offset="0.263" stop-color="#f2f2f2"/>
      <stop offset="0.564" stop-color="#717171"/>
      <stop offset="0.769" stop-color="#1f1f1f"/>
      <stop offset="0.863"/>
    </radialGradient>
    <radialGradient id="radial-gradient-4" cx="0.484" cy="0.517" r="0.534" xlink:href="#radial-gradient"/>
    <radialGradient id="radial-gradient-5" cx="0.548" cy="0.492" r="0.515" gradientUnits="objectBoundingBox">
      <stop offset="0.81"/>
      <stop offset="0.881" stop-color="#010101"/>
      <stop offset="0.907" stop-color="#080808"/>
      <stop offset="0.926" stop-color="#141414"/>
      <stop offset="0.94" stop-color="#252525"/>
      <stop offset="0.953" stop-color="#3b3b3b"/>
      <stop offset="0.964" stop-color="#565656"/>
      <stop offset="0.975" stop-color="#777"/>
      <stop offset="0.984" stop-color="#9c9c9c"/>
      <stop offset="0.992" stop-color="#c6c6c6"/>
      <stop offset="1" stop-color="#f2f2f2"/>
    </radialGradient>
  </defs>
  <g id="Group_3348" data-name="Group 3348" transform="translate(1.321 2.642)" opacity="0.3" style="mix-blend-mode: multiply;isolation: isolate">
    <path id="Path_1540" data-name="Path 1540" d="M1973.167,1003.037l-2.494-1.58a21.476,21.476,0,0,0-4.609-2.144c-.929-.314-1.8-.554-2.552-.735l1.669-.939-1.653-.739c-.858-.383-1.7-.715-2.5-.984-4.125-1.4-7.469-1.282-9.938.338-2.971,1.949-3.771,5.537-3.985,7.183a12.221,12.221,0,0,0-1.76,1.156c-2.931-.882-5.754-.362-7.216,1.285a19,19,0,1,0,14.231,7.2,2.644,2.644,0,0,0-.632-.811,5.1,5.1,0,0,0-.761-3.545l.057-.023a6.727,6.727,0,0,1,3.347,3.224,1.269,1.269,0,0,0,.713.764.949.949,0,0,0,1.13-.434,6.209,6.209,0,0,1,1.228-.582,3.591,3.591,0,0,0,1.275.72,5.89,5.89,0,0,0,1.575.283c2.693.143,4.47-3.652,4.663-4.085l.357-.8-.148-.074c2.917-.994,3.651-2.837,3.688-2.934l.32-.846-.842-.327a3.428,3.428,0,0,1-.416-.2,13.347,13.347,0,0,1,2.3-.275Z" transform="translate(-1918.465 -994.948)"/>
    <circle id="Ellipse_204" data-name="Ellipse 204" cx="18.008" cy="18.008" r="18.008" transform="translate(0.994 11.909)"/>
    <path id="Path_1541" data-name="Path 1541" d="M1945.326,1014.543a17.974,17.974,0,0,0-15.492.379l-1.25,2.8-.725-1.634a18.009,18.009,0,1,0,22.469,28.006l-1.828-2.5a14.4,14.4,0,0,1-4.278,3.532c.1-.094.568-.905.683-1.029a37.667,37.667,0,0,0,2.789-3.606l-1.971-2.7,2.613,1.762c1.223-1.806,2.34-3.608,2.9-4.637a4.6,4.6,0,0,1,1.384-1.6,25.635,25.635,0,0,1-3.16,7l2.679,1.808a18.02,18.02,0,0,0-6.808-27.573Z" transform="translate(-1918.974 -1001.065)"/>
    <path id="Path_1542" data-name="Path 1542" d="M1962.975,1004.833s.287-13.3,15.213-6.63l-2.258,1.271a25.694,25.694,0,0,1,9.287,3.223s-3.688.125-3.58,1.018c-.041.657,1.4,1.217,1.4,1.217s-.929,2.456-5.6,2.9l1.728.857s-1.636,3.661-3.781,3.547-2.605-1.165-2.605-1.165-2.076.676-2.3,1.169-.379-2.366-4.634-4.184S1962.975,1004.833,1962.975,1004.833Z" transform="translate(-1933.498 -995.417)"/>
    <path id="Path_1543" data-name="Path 1543" d="M1962.975,1004.833s.287-13.3,15.213-6.63l-2.258,1.271a25.694,25.694,0,0,1,9.287,3.223s-3.688.125-3.58,1.018c-.041.657,1.4,1.217,1.4,1.217s-.929,2.456-5.6,2.9l1.728.857s-1.636,3.661-3.781,3.547-2.605-1.165-2.605-1.165-2.076.676-2.3,1.169-.379-2.366-4.634-4.184S1962.975,1004.833,1962.975,1004.833Z" transform="translate(-1933.498 -995.417)" style="mix-blend-mode: soft-light;isolation: isolate"/>
    <path id="Path_1544" data-name="Path 1544" d="M1966.57,1006.6s-1.37-3.738.744-3.553c0,0,1.262-4.336,4.847-3.662s3.737,2.6,3.148,3.351a11.07,11.07,0,0,0,1.966-.05c1.237-.123,1.1.746,1.634,1.068s1.158.433,1.488.074.825,2.312-3.245,1.59c0,0-.815.311.843,1.137a7.324,7.324,0,0,0-4.322,3.178,1.056,1.056,0,0,1-.957.5C1971.242,1010.157,1967.777,1009.644,1966.57,1006.6Z" transform="translate(-1934.643 -996.431)"/>
    <path id="Path_1545" data-name="Path 1545" d="M1966.57,1006.6s-1.37-3.738.744-3.553c0,0,1.262-4.336,4.847-3.662s3.737,2.6,3.148,3.351a11.07,11.07,0,0,0,1.966-.05c1.237-.123,1.1.746,1.634,1.068s1.158.433,1.488.074.825,2.312-3.245,1.59c0,0-.815.311.843,1.137a7.324,7.324,0,0,0-4.322,3.178,1.056,1.056,0,0,1-.957.5C1971.242,1010.157,1967.777,1009.644,1966.57,1006.6Z" transform="translate(-1934.643 -996.431)" style="mix-blend-mode: soft-light;isolation: isolate"/>
    <path id="Path_1546" data-name="Path 1546" d="M1955.436,1028.488c-3.5,11.524-17.455,8.32-17.455,8.32l2.8,1.605s-2.092,1.529-8.386-.932c-7.76-3.117-6.279-8.793-6.279-8.793a5.417,5.417,0,0,0,1.2,1.243c-2-3.272-1.142-8.147-.309-11.341a18.02,18.02,0,0,0-1.756,27.059,11.116,11.116,0,0,1,12.245.1,3.123,3.123,0,0,0-2.547.973c2.313.143,3.83,3.19,4.247,4.137a18.085,18.085,0,0,0,11.123-4.86l-1.83-2.5a14.4,14.4,0,0,1-4.278,3.532c.1-.095.568-.905.683-1.029a37.68,37.68,0,0,0,2.789-3.606l-1.971-2.7,2.613,1.762c1.223-1.806,2.34-3.608,2.9-4.637a4.6,4.6,0,0,1,1.384-1.6,25.633,25.633,0,0,1-3.16,7l2.684,1.811a18.033,18.033,0,0,0,3.3-15.538Z" transform="translate(-1918.972 -1002.972)"/>
    <path id="Path_1547" data-name="Path 1547" d="M1943.96,1043.614l1.02-9.451-8.251-6.311-.625,2.051-.237-2.728-2.806-1.546c-7.654,4.737-7.117,6.143-7.117,6.143l2.066,6.459-2.325,1.292c.34,5.105,6.737,7.091,6.737,7.091l.791-3.726C1943.9,1045.045,1943.96,1043.614,1943.96,1043.614Zm-14.756-8.054c-1.7-.76-1.637-4.811-1.177-5.188s4.408-2.691,4.408-2.691l-.094,6.077S1930.9,1036.32,1929.2,1035.56Zm.505,3.431,2.083-1.4-.223,3.105C1929.383,1039.72,1929.709,1038.991,1929.709,1038.991Zm5.208,2.037.849-5.156c4.536.279,5.865-2.04,5.865-2.04s.838.083,1.266,1.731-1.014,6.831-1.014,6.831A10.735,10.735,0,0,1,1934.917,1041.028Z" transform="translate(-1920.915 -1005.361)"/>
    <path id="Path_1548" data-name="Path 1548" d="M1946.3,1016.078a13.3,13.3,0,0,0-2.719.483c-.3.246-.78,1.744.013,2.1s2.965-.182,2.965-.182Z" transform="translate(-1926.847 -1002.119)"/>
    <path id="Path_1549" data-name="Path 1549" d="M1956.792,1026.335s-.285,1.921-.309,2.162c-.067.676.118.79.582.881.183.036,1.008.175,1.206.174h0a.7.7,0,0,0,.621-.422,7.053,7.053,0,0,0,.332-2.364Z" transform="translate(-1931.363 -1005.601)"/>
    <path id="Path_1550" data-name="Path 1550" d="M1966.131,1021.682l-.612,1.369,1.917.857s1.009-1.521-1.183-2.5Z" transform="translate(-1934.435 -1003.929)"/>
    <circle id="Ellipse_205" data-name="Ellipse 205" cx="18.008" cy="18.008" r="18.008" transform="translate(0.994 11.909)" style="mix-blend-mode: soft-light;isolation: isolate"/>
    <path id="Path_1551" data-name="Path 1551" d="M1960.373,1018.372c-1.014,2.269-2.545,5.687-8.583,2.972s-4.757-6.213-3.742-8.482,4.136-1.516,7.54.005S1961.388,1016.1,1960.373,1018.372Z" transform="translate(-1928.214 -1000.542)"/>
    <path id="Path_1552" data-name="Path 1552" d="M1960.373,1018.372c-1.014,2.269-2.545,5.687-8.583,2.972s-4.757-6.213-3.742-8.482,4.136-1.516,7.54.005S1961.388,1016.1,1960.373,1018.372Z" transform="translate(-1928.214 -1000.542)" opacity="0.5" style="mix-blend-mode: soft-light;isolation: isolate"/>
    <ellipse id="Ellipse_206" data-name="Ellipse 206" cx="4.5" cy="6.75" rx="4.5" ry="6.75" transform="matrix(0.408, -0.913, 0.913, 0.408, 17.998, 16.429)"/>
    <ellipse id="Ellipse_207" data-name="Ellipse 207" cx="4.5" cy="6.75" rx="4.5" ry="6.75" transform="matrix(0.408, -0.913, 0.913, 0.408, 17.998, 16.429)" style="mix-blend-mode: soft-light;isolation: isolate"/>
    <ellipse id="Ellipse_208" data-name="Ellipse 208" cx="2.672" cy="4.35" rx="2.672" ry="4.35" transform="matrix(0.408, -0.913, 0.913, 0.408, 21.119, 15.328)"/>
    <path id="Path_1553" data-name="Path 1553" d="M1954.988,1011.711a11.63,11.63,0,0,1,9.4-6.315l1.1-2.465s.612-1.37,1.067-.18a8.037,8.037,0,0,1,.332,1.463c.053.254.182.612.425.519.419-.161,1.207-.644,1.463-.332.426.519-.583,2.04-.583,2.04s2.587.828,2.343,1.376-2.256.635-2.256.635-.222.092-.122.273c.626.575,1.276,1.687.244,1.866a1.5,1.5,0,0,1-.665-.045,16.047,16.047,0,0,1-2.627-.883,11.217,11.217,0,0,0-6.835,4.407.641.641,0,0,1-.625.281C1956.576,1014.194,1953.875,1013.607,1954.988,1011.711Z" transform="translate(-1930.771 -997.431)"/>
    <path id="Path_1554" data-name="Path 1554" d="M1960.381,1013.769a.912.912,0,0,1-.172-1.564,11.771,11.771,0,0,1,1.99-1.188.912.912,0,1,1,.781,1.649,9.97,9.97,0,0,0-1.682,1A.91.91,0,0,1,1960.381,1013.769Z" transform="translate(-1932.508 -1000.372)"/>
    <path id="Path_1555" data-name="Path 1555" d="M1966.193,1011.354a.912.912,0,0,1,.116-1.708c.486-.142,1-.266,1.52-.369a.912.912,0,1,1,.352,1.79c-.469.093-.927.2-1.361.33A.909.909,0,0,1,1966.193,1011.354Z" transform="translate(-1934.48 -999.805)"/>
    <path id="Path_1556" data-name="Path 1556" d="M1957.412,1017.79a.912.912,0,0,1-1.194-1.227c.219-.456.468-.92.741-1.377a.912.912,0,1,1,1.566.934c-.245.41-.468.825-.663,1.233A.907.907,0,0,1,1957.412,1017.79Z" transform="translate(-1931.248 -1001.665)"/>
    <path id="Path_1557" data-name="Path 1557" d="M1970.586,1007.089a1.846,1.846,0,0,1,.634,2.864l1.179.528c.114.017.351-.2.3-.3-.206-.385-.616-1.23-.131-1.374a3.753,3.753,0,0,0,.474-.169.159.159,0,0,0,0-.289,2.678,2.678,0,0,1-.862-.546c-.077-.2.473-.871.435-.972s-1.3-.08-1.333-.929S1970.819,1006.194,1970.586,1007.089Z" transform="translate(-1936.154 -998.564)"/>
  </g>
  <g id="Group_3367" data-name="Group 3367">
    <g id="Group_3366" data-name="Group 3366">
      <g id="Group_3349" data-name="Group 3349">
        <path id="Path_1558" data-name="Path 1558" d="M1971.167,999.037l-2.494-1.58a21.487,21.487,0,0,0-4.609-2.144c-.929-.314-1.8-.554-2.552-.734l1.669-.939-1.653-.739c-.858-.383-1.7-.715-2.5-.984-4.125-1.4-7.469-1.282-9.938.338-2.971,1.949-3.771,5.537-3.985,7.183a12.221,12.221,0,0,0-1.76,1.156c-2.931-.882-5.754-.362-7.216,1.285a19,19,0,1,0,14.232,7.2,2.649,2.649,0,0,0-.632-.811,5.1,5.1,0,0,0-.761-3.545l.057-.023a6.729,6.729,0,0,1,3.347,3.224,1.269,1.269,0,0,0,.713.764.949.949,0,0,0,1.13-.434,6.211,6.211,0,0,1,1.228-.582,3.593,3.593,0,0,0,1.275.72,5.89,5.89,0,0,0,1.575.283c2.693.143,4.47-3.652,4.663-4.085l.357-.8-.149-.074c2.917-.994,3.651-2.837,3.688-2.934l.32-.846-.842-.327a3.448,3.448,0,0,1-.416-.2,13.347,13.347,0,0,1,2.3-.275Z" transform="translate(-1916.465 -990.948)" fill="#38020d"/>
      </g>
      <g id="Group_3350" data-name="Group 3350" transform="translate(0.994 11.909)">
        <circle id="Ellipse_209" data-name="Ellipse 209" cx="18.008" cy="18.008" r="18.008" fill="#680b1b"/>
      </g>
      <g id="Group_3351" data-name="Group 3351" transform="translate(0.991 11.906)">
        <path id="Path_1559" data-name="Path 1559" d="M1943.326,1010.543a17.974,17.974,0,0,0-15.492.379l-1.25,2.8-.725-1.634a18.009,18.009,0,1,0,22.469,28.006l-1.828-2.5a14.4,14.4,0,0,1-4.278,3.532c.1-.094.568-.905.682-1.029a37.624,37.624,0,0,0,2.789-3.606l-1.971-2.7,2.613,1.762c1.223-1.805,2.34-3.608,2.9-4.637a4.594,4.594,0,0,1,1.384-1.6,25.635,25.635,0,0,1-3.16,7l2.679,1.808a18.02,18.02,0,0,0-6.808-27.573Z" transform="translate(-1917.965 -1008.971)" fill="#e22220"/>
      </g>
      <g id="Group_3352" data-name="Group 3352" transform="translate(29.26 0.913)">
        <path id="Path_1560" data-name="Path 1560" d="M1960.975,1000.833s.287-13.3,15.213-6.63l-2.258,1.271a25.694,25.694,0,0,1,9.288,3.223s-3.688.125-3.581,1.018c-.041.657,1.4,1.217,1.4,1.217s-.929,2.456-5.6,2.9l1.728.857s-1.636,3.661-3.781,3.547-2.605-1.165-2.605-1.165-2.076.676-2.3,1.169-.379-2.366-4.634-4.184S1960.975,1000.833,1960.975,1000.833Z" transform="translate(-1960.758 -992.33)" fill="#e22220"/>
        <path id="Path_1561" data-name="Path 1561" d="M1960.975,1000.833s.287-13.3,15.213-6.63l-2.258,1.271a25.694,25.694,0,0,1,9.288,3.223s-3.688.125-3.581,1.018c-.041.657,1.4,1.217,1.4,1.217s-.929,2.456-5.6,2.9l1.728.857s-1.636,3.661-3.781,3.547-2.605-1.165-2.605-1.165-2.076.676-2.3,1.169-.379-2.366-4.634-4.184S1960.975,1000.833,1960.975,1000.833Z" transform="translate(-1960.758 -992.33)" fill="url(#radial-gradient)" style="mix-blend-mode: soft-light;isolation: isolate"/>
      </g>
      <g id="Group_3353" data-name="Group 3353" transform="translate(31.49 2.886)">
        <path id="Path_1562" data-name="Path 1562" d="M1964.57,1002.6s-1.37-3.738.744-3.553c0,0,1.262-4.336,4.847-3.662s3.737,2.6,3.148,3.351a11.076,11.076,0,0,0,1.966-.05c1.237-.123,1.1.746,1.634,1.068s1.158.433,1.488.074.825,2.311-3.245,1.59c0,0-.815.311.843,1.137a7.324,7.324,0,0,0-4.322,3.178,1.056,1.056,0,0,1-.957.5C1969.242,1006.157,1965.776,1005.645,1964.57,1002.6Z" transform="translate(-1964.133 -995.318)" fill="#facf00"/>
        <path id="Path_1563" data-name="Path 1563" d="M1964.57,1002.6s-1.37-3.738.744-3.553c0,0,1.262-4.336,4.847-3.662s3.737,2.6,3.148,3.351a11.076,11.076,0,0,0,1.966-.05c1.237-.123,1.1.746,1.634,1.068s1.158.433,1.488.074.825,2.311-3.245,1.59c0,0-.815.311.843,1.137a7.324,7.324,0,0,0-4.322,3.178,1.056,1.056,0,0,1-.957.5C1969.242,1006.157,1965.776,1005.645,1964.57,1002.6Z" transform="translate(-1964.133 -995.318)" fill="url(#radial-gradient-2)" style="mix-blend-mode: soft-light;isolation: isolate"/>
      </g>
      <g id="Group_3354" data-name="Group 3354" transform="translate(0.986 15.618)" opacity="0.2">
        <path id="Path_1564" data-name="Path 1564" d="M1953.436,1024.488c-3.5,11.524-17.455,8.32-17.455,8.32l2.8,1.605s-2.092,1.529-8.386-.932c-7.76-3.117-6.279-8.793-6.279-8.793a5.415,5.415,0,0,0,1.2,1.243c-2-3.272-1.142-8.147-.309-11.341a18.02,18.02,0,0,0-1.756,27.059,11.117,11.117,0,0,1,12.245.1,3.124,3.124,0,0,0-2.547.973c2.313.143,3.83,3.19,4.247,4.137a18.083,18.083,0,0,0,11.123-4.86l-1.83-2.5a14.4,14.4,0,0,1-4.278,3.532c.1-.094.568-.905.682-1.029a37.608,37.608,0,0,0,2.789-3.606l-1.971-2.7,2.613,1.762c1.223-1.805,2.34-3.608,2.9-4.637a4.6,4.6,0,0,1,1.384-1.6,25.638,25.638,0,0,1-3.16,7l2.684,1.811a18.032,18.032,0,0,0,3.3-15.538Z" transform="translate(-1917.958 -1014.59)"/>
      </g>
      <path id="Path_1565" data-name="Path 1565" d="M1941.96,1039.614l1.02-9.451-8.251-6.311-.625,2.051-.237-2.728-2.806-1.546c-7.654,4.737-7.117,6.143-7.117,6.143l2.066,6.459-2.325,1.292c.339,5.105,6.737,7.091,6.737,7.091l.791-3.726C1941.9,1041.045,1941.96,1039.614,1941.96,1039.614Zm-14.756-8.054c-1.7-.76-1.637-4.811-1.177-5.188s4.408-2.691,4.408-2.691l-.094,6.077S1928.9,1032.32,1927.2,1031.56Zm.505,3.431,2.083-1.4-.223,3.105C1927.383,1035.72,1927.709,1034.991,1927.709,1034.991Zm5.208,2.037.849-5.157c4.536.279,5.865-2.04,5.865-2.04s.838.083,1.266,1.731-1.014,6.831-1.014,6.831A10.735,10.735,0,0,1,1932.917,1037.028Z" transform="translate(-1918.915 -1001.361)" fill="#fff"/>
      <g id="Group_3355" data-name="Group 3355" transform="translate(16.315 13.959)">
        <path id="Path_1566" data-name="Path 1566" d="M1944.3,1012.078a13.3,13.3,0,0,0-2.719.483c-.3.246-.78,1.744.013,2.1s2.966-.182,2.966-.182Z" transform="translate(-1941.162 -1012.078)" fill="#929496"/>
      </g>
      <g id="Group_3356" data-name="Group 3356" transform="translate(25.106 20.734)">
        <path id="Path_1567" data-name="Path 1567" d="M1954.792,1022.335s-.285,1.921-.309,2.162c-.067.676.118.79.581.881.183.036,1.008.175,1.206.174h0a.7.7,0,0,0,.621-.422,7.057,7.057,0,0,0,.332-2.364Z" transform="translate(-1954.47 -1022.335)" fill="#929496"/>
      </g>
      <g id="Group_3357" data-name="Group 3357" transform="translate(31.084 17.48)">
        <path id="Path_1568" data-name="Path 1568" d="M1964.131,1017.682l-.612,1.369,1.917.857s1.009-1.521-1.182-2.5Z" transform="translate(-1963.519 -1017.409)" fill="#929496"/>
      </g>
      <circle id="Ellipse_210" data-name="Ellipse 210" cx="18.008" cy="18.008" r="18.008" transform="translate(0.994 11.909)" fill="url(#radial-gradient-3)" style="mix-blend-mode: soft-light;isolation: isolate"/>
      <g id="Group_3358" data-name="Group 3358" transform="translate(18.975 10.888)">
        <path id="Path_1569" data-name="Path 1569" d="M1958.373,1014.372c-1.014,2.269-2.545,5.686-8.583,2.972s-4.757-6.213-3.742-8.482,4.136-1.516,7.54.005S1959.388,1012.1,1958.373,1014.372Z" transform="translate(-1945.188 -1007.43)" fill="#606060"/>
        <path id="Path_1570" data-name="Path 1570" d="M1958.373,1014.372c-1.014,2.269-2.545,5.686-8.583,2.972s-4.757-6.213-3.742-8.482,4.136-1.516,7.54.005S1959.388,1012.1,1958.373,1014.372Z" transform="translate(-1945.188 -1007.43)" opacity="0.5" fill="url(#radial-gradient-4)" style="mix-blend-mode: soft-light;isolation: isolate"/>
      </g>
      <g id="Group_3359" data-name="Group 3359" transform="translate(17.998 8.212)">
        <ellipse id="Ellipse_211" data-name="Ellipse 211" cx="4.5" cy="6.75" rx="4.5" ry="6.75" transform="matrix(0.408, -0.913, 0.913, 0.408, 0, 8.217)" fill="#929496"/>
        <ellipse id="Ellipse_212" data-name="Ellipse 212" cx="4.5" cy="6.75" rx="4.5" ry="6.75" transform="matrix(0.408, -0.913, 0.913, 0.408, 0, 8.217)" fill="url(#radial-gradient-5)" style="mix-blend-mode: soft-light;isolation: isolate"/>
      </g>
      <ellipse id="Ellipse_213" data-name="Ellipse 213" cx="2.672" cy="4.35" rx="2.672" ry="4.35" transform="matrix(0.408, -0.913, 0.913, 0.408, 21.119, 15.328)" fill="#121212"/>
      <path id="Path_1571" data-name="Path 1571" d="M1952.988,1007.711a11.63,11.63,0,0,1,9.4-6.315l1.1-2.465s.612-1.369,1.067-.18a8.022,8.022,0,0,1,.332,1.463c.054.254.182.612.426.519.419-.161,1.207-.644,1.463-.332.426.519-.583,2.04-.583,2.04s2.587.828,2.343,1.376-2.256.635-2.256.635-.222.092-.122.273c.626.575,1.276,1.687.244,1.866a1.493,1.493,0,0,1-.665-.045,16.053,16.053,0,0,1-2.627-.883,11.217,11.217,0,0,0-6.835,4.407.641.641,0,0,1-.625.281C1954.576,1010.194,1951.874,1009.607,1952.988,1007.711Z" transform="translate(-1928.771 -993.431)" fill="#2d2d2d"/>
      <g id="Group_3361" data-name="Group 3361" transform="translate(27.334 10.558)">
        <g id="Group_3360" data-name="Group 3360">
          <path id="Path_1572" data-name="Path 1572" d="M1958.381,1009.769a.912.912,0,0,1-.172-1.564,11.771,11.771,0,0,1,1.99-1.188.912.912,0,1,1,.781,1.649,9.974,9.974,0,0,0-1.682,1A.909.909,0,0,1,1958.381,1009.769Z" transform="translate(-1957.842 -1006.93)" fill="#fff"/>
        </g>
      </g>
      <g id="Group_3363" data-name="Group 3363" transform="translate(31.172 9.454)">
        <g id="Group_3362" data-name="Group 3362">
          <path id="Path_1573" data-name="Path 1573" d="M1964.193,1007.354a.912.912,0,0,1,.115-1.708c.486-.142,1-.266,1.52-.369a.912.912,0,1,1,.352,1.79c-.469.093-.927.2-1.361.33A.908.908,0,0,1,1964.193,1007.354Z" transform="translate(-1963.652 -1005.26)" fill="#fff"/>
        </g>
      </g>
      <g id="Group_3365" data-name="Group 3365" transform="translate(24.881 13.075)">
        <g id="Group_3364" data-name="Group 3364">
          <path id="Path_1574" data-name="Path 1574" d="M1955.412,1013.79a.912.912,0,0,1-1.194-1.227c.219-.457.468-.92.741-1.377a.912.912,0,1,1,1.566.934c-.245.41-.468.825-.663,1.233A.906.906,0,0,1,1955.412,1013.79Z" transform="translate(-1954.129 -1010.74)" fill="#fff"/>
        </g>
      </g>
      <path id="Path_1575" data-name="Path 1575" d="M1968.586,1003.089a1.846,1.846,0,0,1,.634,2.864l1.179.528c.114.017.351-.2.3-.3-.206-.385-.616-1.23-.131-1.374a3.758,3.758,0,0,0,.474-.169.159.159,0,0,0,0-.289,2.677,2.677,0,0,1-.862-.546c-.077-.2.473-.871.435-.972s-1.3-.08-1.333-.929S1968.819,1002.194,1968.586,1003.089Z" transform="translate(-1934.155 -994.564)" fill="#fff"/>
    </g>
  </g>
</svg>
