<svg xmlns="http://www.w3.org/2000/svg" xmlns:xlink="http://www.w3.org/1999/xlink" width="113.767" height="73.91" viewBox="0 0 113.767 73.91">
  <defs>
    <radialGradient id="radial-gradient" cx="0.628" cy="0.873" r="1.238" gradientUnits="objectBoundingBox">
      <stop offset="0.5"/>
      <stop offset="0.5" stop-color="#fff"/>
    </radialGradient>
  </defs>
  <g id="Group_3734" data-name="Group 3734" transform="translate(-888.1 -279.074)">
    <g id="Group_3708" data-name="Group 3708" transform="translate(813.875 99.6)">
      <g id="Group_3697" data-name="Group 3697" transform="translate(152.572 231.955)">
        <path id="Path_3468" data-name="Path 3468" d="M547.831,447.652a36.1,36.1,0,0,1-9.232-1.1c-5.227-1.464-10.519-9.39-10.741-9.726a.864.864,0,0,1,1.441-.953c.051.077,5.159,7.725,9.767,9.016a37.737,37.737,0,0,0,10.651.986.864.864,0,0,1,.109,1.724C549.739,447.607,548.987,447.652,547.831,447.652Z" transform="translate(-527.714 -435.488)" fill="#231f20"/>
      </g>
      <g id="Group_3698" data-name="Group 3698" transform="translate(110.456 230.067)">
        <path id="Path_3469" data-name="Path 3469" d="M287.01,446a.863.863,0,0,1-.769-.47c-2.849-5.559-2.265-19.55-2.239-20.143a.864.864,0,0,1,1.726.076c-.006.141-.59,14.125,2.05,19.278A.864.864,0,0,1,287.01,446Z" transform="translate(-283.936 -424.56)" fill="#231f20"/>
      </g>
      <path id="Path_3470" data-name="Path 3470" d="M264.286,533.125s-5.762,2.664-5.6,3.654,9.511.524,9.483-.893-2.048-3.222-2.048-3.222Z" transform="translate(-152.589 -283.92)" fill="#231f20"/>
      <path id="Path_3471" data-name="Path 3471" d="M643.272,496.6s-.913,6.282,0,6.687,5.63-7.683,4.428-8.434-3.817-.042-3.817-.042Z" transform="translate(-470.401 -252.353)" fill="#231f20"/>
      <g id="Group_3701" data-name="Group 3701" transform="translate(88.186 189.448)">
        <path id="Path_3472" data-name="Path 3472" d="M243.748,213.1c-1.352-5.14-4.8-5.076-9.022-6.375.877-1.258,1.928-2.129,1.883-3.81-.065-2.4-2.381-4.477-4.245-5.748a11.227,11.227,0,0,0-11.145-1.193c.946-4.929-4.12-6.639-8.243-6.518-4.664.137-6.906,2.288-9.524,6.047-1.813-3.732-7.929-3.293-9.885-1.116-1.2,1.337-2.041,4.448-2.238,4.2-5.077-6.3-11.947-7.522-14.213-3.506-5.437-2.517-14.4.853-14.237,7.575-2.958.593-6,1.777-7.3,5.053a9.657,9.657,0,0,0-.238,5.655c.59,2.019,1.814,2.432,3.24,3.564-8.082,7.8,2.486,19.761,11.947,15.436,1.782,3.376,4.025,4.357,8.118,4.968a15.563,15.563,0,0,0,7.734-.557c1.982-.763,3.368-2.229,5.127-3.251,1.954,2.288,3.19,3.28,6.7,3.259,3.631-.021,6.319-.974,8.355-3.81,4.867,3.949,9.922,5.868,16.416,4.917a6.731,6.731,0,0,0,5.578-3.806c.838-1.637.278-1.335,1.967-1.567,3.691-.507,9.2-1.948,10.422-6.107.74-2.516-.577-4.1-1.779-6.032C242.627,218.675,244.915,217.534,243.748,213.1Z" transform="translate(-155.033 -189.448)" fill="#eaaaa7"/>
        <path id="Path_3473" data-name="Path 3473" d="M240.714,236.759c1.786-.954,1.928-2.129,1.883-3.81-.065-2.4-2.381-4.477-4.245-5.748a12.932,12.932,0,0,0-2.774-1.444c.844.761,1.668,1.432,2.006,1.806a7.428,7.428,0,0,1,2.091,5.541c-.028,2.42-1.02,3.863-2.005,5.941,2.151.594,4.164,1.94,4.511,4.3.458,3.109-2.7,4.432-4.9,5.818,1.227,1.43,2.5,2.266,1.351,4.291a7.525,7.525,0,0,1-8.538,3.2c-1.051,4.423-8.849,5.477-12.559,5.163-3.122-.265-5.394-1.726-7.819-3.481.195,1.93-2.77,4.61-4.749,4.822-4.525.485-6.716-2.9-9.749-5.331-1.427,1.728-4.612,3.071-6.691,3.9a7.528,7.528,0,0,1-5.774.031c-3.1-1.26-4.942-3.852-7.164-6.23-2.727,1.784-5.15,3.354-8.685,2.888a9.337,9.337,0,0,1-4.635-2.09c1.91,5.078,8.3,8.8,14.249,6.08,1.782,3.376,4.025,4.357,8.118,4.968a15.563,15.563,0,0,0,7.734-.557c1.982-.763,3.368-2.229,5.127-3.251,1.954,2.288,3.19,3.28,6.7,3.259,3.631-.021,6.319-.974,8.355-3.81,2.876,5.41,8.67,6.543,15.164,5.593,2.628-.385,5.634-2.143,6.83-4.482.838-1.637.873-1.524.873-1.524s9.809,3.1,11.516-6.15c.476-2.579-.577-4.1-1.779-6.032,3.458-1.705,6.084-2.887,5.442-7.429C249.9,238.058,246.529,235.684,240.714,236.759Z" transform="translate(-161.02 -219.484)" fill="#d69a9a"/>
        <g id="Group_3699" data-name="Group 3699" transform="translate(24.828 3.294)">
          <path id="Path_3474" data-name="Path 3474" d="M310.454,219.114c-.209-1.64-.113-3.7-.731-5.292-3.6-4.181-7.976-5.907-10.982-5.12,2.66.432,3.135,1.02,3.892,1.77,1.795,1.779.753,2.693.282,4.169,1.923-.935,2.972.507,3.732,1.3,1.074,1.125.632,2.731.113,3.831-.379.8,3.18-1,3.4,4.913C310.976,223.19,310.663,220.754,310.454,219.114Z" transform="translate(-298.74 -208.516)" fill="#d69a9a"/>
        </g>
        <path id="Path_3475" data-name="Path 3475" d="M204.229,239.393c-.584-1.045-3.692-2.52-5.673-2.38-2.413-.024-5.041,1.606-5.176,3.919-.074,1.26.651,3.039.021,4.154-.775,1.37-3.294,1.441-4.649,2.1-3.272,1.587-1.954,4.9.474,6.521,1.209.809,2.659,1.708,2.578,3.356-.069,1.416-1.667,2.556-1.539,3.929.349,3.739,6.58.172,6.951-2.133a4.928,4.928,0,0,0-1.624-3.77c-.791-.785-2.646-1.392-2.971-2.554-.364-1.3,1.131-3.338,2.088-4.087,1.063-.831,2.59-.562,3.665-1.447,2.533-2.087-3.357-5.681-.022-6.491,2.2-.535,2.419,1.229,4.144,1.8C204.355,242.916,205.005,240.781,204.229,239.393Z" transform="translate(-181.311 -228.788)" fill="#f4bdb8"/>
        <g id="Group_3700" data-name="Group 3700" transform="translate(15.726 15.955)">
          <path id="Path_3476" data-name="Path 3476" d="M262.416,285.523c-1.434.058-2.465.933-3.969.106-1.368-.753-1.712-2.387-2.991-3.227a3.4,3.4,0,0,0-5.288,3.5c.133.582.675,4.276-2.239,3.423a1.373,1.373,0,0,0-1.853,1.236c-.332,2.633,3.868,3.129,5.422,2.141,3.065-1.95-.077-4.071,1.053-6.321,1.38-2.748,3.631,2.559,4.627,3.124,1.985,1.125,5.108-.556,5.852,2.475.314,1.282-.1,2.351,1.456,2.706a2.864,2.864,0,0,0,3.143-1.743C268.831,289.928,265.611,285.394,262.416,285.523Z" transform="translate(-246.057 -281.799)" fill="#f4bdb8"/>
        </g>
        <path id="Path_3477" data-name="Path 3477" d="M411.082,224.885c-.209-1.74-1.156-3.475-3.067-3.742-1.449-.2-2.835.833-4.208.2-1.853-.853-1.1-2.9-1.618-4.472-1-3.021-5.275-2.677-7.274-.926-1.525,1.336-2.615,4.152-4.861,4.433-2.8.35-4.5-2.486-7.386-1.706-4.205,1.136-4.478,4.3-3.408,6.337a3.707,3.707,0,0,0,2.9,1.93,3.282,3.282,0,0,0,1.822-.353c.7-.5.444-.731.41-1.455-.22-4.636,6.331-.743,8.382-1.168s2.112-3.422,4.485-3.8c3.022-.481,1.38,2.336,2.438,3.868,1.133,1.641,5.115.04,5.814,2.022.241.683-.426,1.591-.118,2.391.475,1.237,1.9,1.119,2.925.652A4.318,4.318,0,0,0,411.082,224.885Z" transform="translate(-340.082 -210.265)" fill="#f4bdb8"/>
        <path id="Path_3478" data-name="Path 3478" d="M487.064,294.455a2.72,2.72,0,0,0-2.152-2.162c-1.312-.256-2.915.364-4.245.406-1.636.052-3.845-.147-5.166-1.216a1.919,1.919,0,0,1-.68-2.548c.315-.783,1.069-1.606.368-2.4-.833-.941-2.508-.234-3.316.374a4.758,4.758,0,0,0-1.606,3.694c.1,3.208,3.806,3.278,6.151,3.322,1.714.032,4.875.1,6.094,1.557.7.831.138,1.228-.238,2-.287.594-.277,1.417-1.032,1.521-.789.108-1.5-.933-2.233-1.2a3.378,3.378,0,0,0-2.807.334c-1.41.82-1.895,2.2-2.724,3.459-.389.592-1.214,1.773-2.11,1.461-1.007-.351-1.082-1.888-2.351-2.139a2.563,2.563,0,0,0-2.858,1.832,4.241,4.241,0,0,0,2.489,4.234,4.846,4.846,0,0,0,7.081-2.43c.526-1.417.539-4.568,2.894-4.38,1.074.085,1.955,1.251,3.049,1.5a2.574,2.574,0,0,0,3.193-1.344c.424-1.045-.162-2.133.468-3.126C485.95,296.239,487.168,295.805,487.064,294.455Z" transform="translate(-412.38 -269.384)" fill="#f4bdb8"/>
        <path id="Path_3479" data-name="Path 3479" d="M302.557,282.774c-2.466-2.366-6.962-2.083-9.455-.379-1.847,1.262-2.827,3.98-3.213,6.249-.367,2.156,1.413,4.025,1.843,6.1.369,1.777.5,3.367-1.531,3.9a4.324,4.324,0,0,1-4.06-.907,9.2,9.2,0,0,0-4.026-2c-1.668-.193-3.224.709-4.66,1.407-.773.376-2.815,1.72-3.762,1.329-1.089-.45-.012-1.471.143-2.188.468-2.165-3.236-1.507-4.261-.483a6.228,6.228,0,0,0-.932,2.614c-.257,1.768,1.524,3.583,3.1,4.057,4,1.2,6.606-3.9,10.5-3.526,1.635.158,2.514,1.363,3.544,2.522a6.577,6.577,0,0,0,6.276,1.977c2.321-.4,5.4-2.474,5.578-4.958.174-2.464-.83-4.7-1.792-6.93-.478-1.107-1.016-2.366-.47-3.547.518-1.122.742-2.425,1.937-2.806,1.271-.4,2.059,1.405,4.827,1.49,1.183.256,1.261-.912,1.386-1.492A2.728,2.728,0,0,0,302.557,282.774Z" transform="translate(-248.994 -265.231)" fill="#f4bdb8"/>
      </g>
      <g id="Group_3702" data-name="Group 3702" transform="translate(102.009 197.205)">
        <path id="Path_3480" data-name="Path 3480" d="M239.573,234.527a3.865,3.865,0,0,0-2.428.038c-.708.271-3.005,1.679-1.715,2.854.458.417,1.08-.617,1.588-.832a13.3,13.3,0,0,1,2.732-.766C240.373,235.495,240.347,234.9,239.573,234.527Z" transform="translate(-235.044 -234.347)" fill="#231f20"/>
      </g>
      <g id="Group_3703" data-name="Group 3703" transform="translate(170.338 194.921)">
        <path id="Path_3481" data-name="Path 3481" d="M631.15,241.339a.6.6,0,0,1-.1-1.2,12.242,12.242,0,0,0,7.372-5.425c4.512-6.817,1.1-12.425.958-12.66a.6.6,0,0,1,1.023-.645c.165.261,3.984,6.484-.972,13.973a13.2,13.2,0,0,1-8.188,5.951A.6.6,0,0,1,631.15,241.339Z" transform="translate(-630.547 -221.126)" fill="#231f20"/>
      </g>
      <path id="Path_3482" data-name="Path 3482" d="M663.154,193.755a.97.97,0,0,0-.409-.567c-.216-.1-.547.057-.5.291a1.284,1.284,0,0,0-.828-.605c-.351-.031-.715.386-.506.67a1.17,1.17,0,0,0-.421-.322.4.4,0,0,0-.476.13.566.566,0,0,0-.049.318,13.319,13.319,0,0,0,.967,2.985c-.217-.242-1.559-.416-1.606-.094-.109.74,1.343,1.3,1.618,1.489a8.252,8.252,0,0,1,3.694,5.358c1.435-.688.454-3.352.18-4.443A43.286,43.286,0,0,0,663.154,193.755Z" transform="translate(-484.012 -2.833)" fill="#231f20"/>
      <g id="Group_3704" data-name="Group 3704" transform="translate(76.952 210.876)">
        <path id="Path_3483" data-name="Path 3483" d="M103.235,322.711a15.927,15.927,0,0,1-1.935-.12c-8.914-1.088-11.17-8.032-11.262-8.327a.6.6,0,1,1,1.155-.359c.083.263,2.14,6.495,10.254,7.485a12.246,12.246,0,0,0,8.912-2.089.6.6,0,0,1,.783.921A12.72,12.72,0,0,1,103.235,322.711Z" transform="translate(-90.01 -313.48)" fill="#231f20"/>
      </g>
      <path id="Path_3484" data-name="Path 3484" d="M74.409,284.581a.968.968,0,0,1-.166-.679c.061-.231.4-.379.545-.191a1.285,1.285,0,0,1,.077-1.023c.2-.288.758-.294.838.05a1.17,1.17,0,0,1,.028-.53.4.4,0,0,1,.408-.278.568.568,0,0,1,.274.169,13.341,13.341,0,0,1,1.644,2.673c-.044-.322.7-1.456.97-1.283.633.4.12,1.867.083,2.2a8.252,8.252,0,0,0,1.68,6.288c-1.455.645-2.845-1.829-3.5-2.747A43.3,43.3,0,0,1,74.409,284.581Z" transform="translate(0 -76.502)" fill="#231f20"/>
      <g id="Group_3705" data-name="Group 3705" transform="translate(105.036 202.929)">
        <path id="Path_3485" data-name="Path 3485" d="M252.578,272.957a5.2,5.2,0,0,1,1.3-3.263,6.231,6.231,0,0,1,1.656-1.1,7.982,7.982,0,0,1,6.246-.756c2.3.874,3.682,3.259,4.353,5.627a4.483,4.483,0,0,1-1.734-1.077,5.136,5.136,0,0,0-2.8-1.011,8.993,8.993,0,0,0-2.2.23,6.723,6.723,0,0,0-3.695,1.649,6.531,6.531,0,0,0-1.048,1.658c-.193.394-.52,1.99-1.021,2.1A9.952,9.952,0,0,1,252.578,272.957Z" transform="translate(-252.565 -267.479)" fill="#d69a9a"/>
        <path id="Path_3486" data-name="Path 3486" d="M258.819,290.6s-.719-5.5,5.506-6.7,7.005,3.118,7.242,3.516a8.281,8.281,0,0,0-12.748,3.183Z" transform="translate(-257.718 -280.89)" fill="#231f20"/>
      </g>
      <g id="Group_3706" data-name="Group 3706" transform="translate(149.341 196.042)">
        <path id="Path_3487" data-name="Path 3487" d="M509.488,228.08a3.866,3.866,0,0,1,2.391-.424c.747.131,3.269,1.078,2.226,2.476-.371.5-1.177-.4-1.718-.515a13.321,13.321,0,0,0-2.828-.233C508.887,229.182,508.8,228.6,509.488,228.08Z" transform="translate(-509.012 -227.619)" fill="#231f20"/>
      </g>
      <g id="Group_3707" data-name="Group 3707" transform="translate(140.854 201.872)">
        <path id="Path_3488" data-name="Path 3488" d="M474.9,266.413a5.2,5.2,0,0,0-1.491-3.18,6.238,6.238,0,0,0-1.719-1,7.983,7.983,0,0,0-6.279-.382c-2.244,1.01-3.481,3.473-4.01,5.876a4.481,4.481,0,0,0,1.667-1.178,5.135,5.135,0,0,1,2.731-1.176,9,9,0,0,1,2.212.1A6.724,6.724,0,0,1,471.8,266.9a6.531,6.531,0,0,1,1.145,1.592c.216.382.638,1.956,1.144,2.036A9.951,9.951,0,0,0,474.9,266.413Z" transform="translate(-461.138 -261.36)" fill="#d69a9a"/>
        <path id="Path_3489" data-name="Path 3489" d="M472.812,284.488s.389-5.533-5.9-6.359-6.807,3.53-7.02,3.942a8.281,8.281,0,0,1,12.915,2.417Z" transform="translate(-459.886 -275.146)" fill="#231f20"/>
      </g>
      <path id="Path_3490" data-name="Path 3490" d="M339.191,326.573a28.173,28.173,0,0,0,11.572,1.014,47.528,47.528,0,0,0,10.043-2.879s.262,11.914-8.549,12.715C340.771,338.466,339.191,326.573,339.191,326.573Z" transform="translate(-219.189 -111.893)" fill="#231f20"/>
      <path id="Path_3491" data-name="Path 3491" d="M375.707,355.426a3.363,3.363,0,0,0-.484-.531,5.678,5.678,0,0,0-2.729-1.1,9.749,9.749,0,0,0-3.313-.2,4.136,4.136,0,0,0-2.814,1.613,7.346,7.346,0,0,0-5.854.337,4.147,4.147,0,0,0-1.874,2.08c1.949,2.258,5.013,4.066,9.795,3.632C372.446,360.9,374.576,358.226,375.707,355.426Z" transform="translate(-235.276 -135.732)" fill="#ea5036"/>
    </g>
    <g id="Group_3259" data-name="Group 3259" transform="translate(984.643 279.074)">
      <path id="Path_1397" data-name="Path 1397" d="M1842.171,1279.434l1.078,1.744a2.543,2.543,0,0,0,1.474,1.111l1.97.554a2.551,2.551,0,0,1,1.255,4.1l-1.321,1.567a2.553,2.553,0,0,0-.6,1.749l.084,2.05a2.543,2.543,0,0,1-3.5,2.464l-1.895-.776a2.535,2.535,0,0,0-1.844-.03l-1.919.713a2.543,2.543,0,0,1-3.418-2.577l.15-2.047a2.553,2.553,0,0,0-.541-1.768l-1.269-1.609a2.551,2.551,0,0,1,1.387-4.056l1.987-.489a2.542,2.542,0,0,0,1.51-1.062l1.134-1.708A2.538,2.538,0,0,1,1842.171,1279.434Z" transform="translate(-1831.327 -1278.228)" fill="#ab4300"/>
      <path id="Path_1398" data-name="Path 1398" d="M1846.418,1297.559a2.3,2.3,0,0,1-.873-.174l-1.895-.776a2.771,2.771,0,0,0-2.016-.033l-1.919.713a2.3,2.3,0,0,1-3.1-2.335l.15-2.047a2.787,2.787,0,0,0-.592-1.933l-1.269-1.609a2.312,2.312,0,0,1,1.257-3.676l1.987-.489a2.773,2.773,0,0,0,1.651-1.162l1.134-1.708a2.3,2.3,0,0,1,3.875.063l1.078,1.744a2.774,2.774,0,0,0,1.612,1.215l1.97.554a2.312,2.312,0,0,1,1.138,3.715l-1.321,1.567a2.786,2.786,0,0,0-.655,1.913l.083,2.05a2.285,2.285,0,0,1-.634,1.689,2.318,2.318,0,0,1-1.665.718Z" transform="translate(-1834.169 -1281.061)" fill="#ffde3d"/>
      <path id="Path_1399" data-name="Path 1399" d="M1842.171,1279.434l1.078,1.744a2.543,2.543,0,0,0,1.474,1.111l1.97.554a2.551,2.551,0,0,1,1.255,4.1l-1.321,1.567a2.553,2.553,0,0,0-.6,1.749l.084,2.05a2.543,2.543,0,0,1-3.5,2.464l-1.895-.776a2.535,2.535,0,0,0-1.844-.03l-1.919.713a2.543,2.543,0,0,1-3.418-2.577l.15-2.047a2.553,2.553,0,0,0-.541-1.768l-1.269-1.609a2.551,2.551,0,0,1,1.387-4.056l1.987-.489a2.542,2.542,0,0,0,1.51-1.062l1.134-1.708A2.538,2.538,0,0,1,1842.171,1279.434Z" transform="translate(-1831.327 -1278.228)" opacity="0.3" fill="url(#radial-gradient)" style="mix-blend-mode: screen;isolation: isolate"/>
      <g id="Group_3258" data-name="Group 3258" transform="translate(0.24 0.239)" opacity="0.5" style="mix-blend-mode: color-dodge;isolation: isolate">
        <path id="Path_1400" data-name="Path 1400" d="M1846.418,1297.559a2.3,2.3,0,0,1-.873-.174l-1.895-.776a2.772,2.772,0,0,0-2.017-.033l-1.919.713a2.3,2.3,0,0,1-3.1-2.335l.15-2.047a2.787,2.787,0,0,0-.592-1.933l-1.269-1.609a2.312,2.312,0,0,1,1.257-3.676l1.987-.489a2.773,2.773,0,0,0,1.651-1.162l1.134-1.708a2.3,2.3,0,0,1,3.875.063l1.078,1.744a2.774,2.774,0,0,0,1.612,1.215l1.97.554a2.312,2.312,0,0,1,1.138,3.715l-1.321,1.567a2.786,2.786,0,0,0-.655,1.913l.083,2.05a2.286,2.286,0,0,1-.634,1.689A2.318,2.318,0,0,1,1846.418,1297.559Zm-3.818-1.634a3.235,3.235,0,0,1,1.23.242l1.895.776a1.828,1.828,0,0,0,2.516-1.771l-.083-2.05a3.262,3.262,0,0,1,.766-2.241l1.321-1.567a1.834,1.834,0,0,0-.9-2.947l-1.97-.554a3.249,3.249,0,0,1-1.888-1.423l-1.078-1.744a1.825,1.825,0,0,0-3.074-.05l-1.134,1.708a3.247,3.247,0,0,1-1.933,1.361l-1.987.489a1.834,1.834,0,0,0-1,2.917l1.269,1.61a3.262,3.262,0,0,1,.693,2.265l-.15,2.046a1.81,1.81,0,0,0,.479,1.377,1.809,1.809,0,0,0,1.979.475l1.919-.713A3.239,3.239,0,0,1,1842.6,1295.926Z" transform="translate(-1834.408 -1281.3)" fill="#fff"/>
      </g>
    </g>
  </g>
</svg>
