<svg xmlns="http://www.w3.org/2000/svg" xmlns:xlink="http://www.w3.org/1999/xlink" width="154.076" height="68.86" viewBox="0 0 154.076 68.86">
  <defs>
    <radialGradient id="radial-gradient" cx="0.628" cy="0.873" r="1.238" gradientUnits="objectBoundingBox">
      <stop offset="0.5"/>
      <stop offset="0.5" stop-color="#fff"/>
    </radialGradient>
  </defs>
  <g id="Group_3733" data-name="Group 3733" transform="translate(-570.643 -287.441)">
    <g id="Group_3696" data-name="Group 3696" transform="translate(-903.14 88.031)">
      <g id="Group_3685" data-name="Group 3685" transform="translate(1521.354 249.449)">
        <path id="Path_3443" data-name="Path 3443" d="M1700.628,465.635a18.573,18.573,0,0,1-3.9-.38c-3-.647-4.772-1.989-5.268-3.99-1.313-5.3,7.516-12.9,8.528-13.744a1.009,1.009,0,0,1,1.3,1.546c-2.479,2.083-8.725,8.247-7.865,11.713.295,1.189,1.551,2.03,3.734,2.5a16.653,16.653,0,0,0,3.493.339c11.96,0,30.157-9.809,30.359-9.919a1.009,1.009,0,0,1,.964,1.774C1731.125,455.933,1713.119,465.634,1700.628,465.635Z" transform="translate(-1691.325 -447.285)" fill="#231f20"/>
      </g>
      <g id="Group_3686" data-name="Group 3686" transform="translate(1540.341 249.901)">
        <path id="Path_3444" data-name="Path 3444" d="M1818.8,467.893c-12.665,0-31.984-10.01-32.872-10.474a1.009,1.009,0,0,1,.935-1.789c.231.121,23.259,12.056,34.857,10.013,2.2-.387,3.487-1.181,3.826-2.357.88-3.051-4.08-8.982-7.414-12a1.009,1.009,0,1,1,1.356-1.5c.978.886,9.512,8.813,8,14.059-.571,1.98-2.394,3.254-5.416,3.786A18.922,18.922,0,0,1,1818.8,467.893Z" transform="translate(-1785.383 -449.524)" fill="#231f20"/>
      </g>
      <path id="Path_3445" data-name="Path 3445" d="M1768.162,471.418s-6.976,2.521-7.655,1.566,7.471-8.25,8.613-7.05.946,4.359.946,4.359Z" transform="translate(-225.155 -212.615)" fill="#231f20"/>
      <path id="Path_3446" data-name="Path 3446" d="M1875.845,469.982s6.743,3.091,7.5,2.2-6.76-8.842-8-7.741-1.3,4.266-1.3,4.266Z" transform="translate(-315.803 -211.443)" fill="#231f20"/>
      <g id="Group_3689" data-name="Group 3689" transform="translate(1499.385 199.41)">
        <path id="Path_3447" data-name="Path 3447" d="M1686.13,227.394c-1.52-6.021-5.548-5.986-10.467-7.553,1.039-1.46,2.277-2.465,2.244-4.431-.048-2.8-2.73-5.258-4.894-6.764a13.119,13.119,0,0,0-13.008-1.522c1.163-5.748-4.737-7.8-9.556-7.711-5.451.106-8.1,2.593-11.2,6.955-2.075-4.382-9.226-3.939-11.537-1.419-1.42,1.548-2.436,5.173-2.663,4.886-5.859-7.414-13.872-8.927-16.566-4.261-6.323-3-16.83.83-16.723,8.687-3.464.658-7.028,2.007-8.583,5.82a11.283,11.283,0,0,0-.344,6.6c.666,2.366,2.092,2.862,3.745,4.2-9.533,9.025,2.676,23.118,13.78,18.174,2.043,3.965,4.653,5.137,9.428,5.9a18.183,18.183,0,0,0,9.043-.561c2.325-.869,3.961-2.565,6.029-3.739,2.257,2.7,3.689,3.869,7.789,3.885,4.243.017,7.395-1.065,9.806-4.355,5.641,4.671,11.525,6.97,19.123,5.934a7.866,7.866,0,0,0,6.562-4.382c1-1.9.341-1.556,2.316-1.808,4.319-.55,10.77-2.17,12.248-7.015.894-2.932-.627-4.8-2.009-7.068C1684.757,233.9,1687.442,232.591,1686.13,227.394Z" transform="translate(-1582.498 -199.41)" fill="#eaaaa7"/>
        <path id="Path_3448" data-name="Path 3448" d="M1680.742,249.563c2.1-1.094,2.278-2.465,2.244-4.431-.048-2.8-2.73-5.258-4.894-6.764a15.1,15.1,0,0,0-3.225-1.719c.977.9,1.932,1.692,2.324,2.133a8.68,8.68,0,0,1,2.379,6.5c-.061,2.827-1.236,4.5-2.411,6.918,2.506.719,4.843,2.315,5.221,5.071.5,3.638-3.2,5.147-5.791,6.741,1.417,1.685,2.9,2.677,1.529,5.03a8.793,8.793,0,0,1-10.013,3.637c-1.279,5.156-10.4,6.3-14.733,5.887-3.645-.346-6.282-2.079-9.1-4.157.205,2.257-3.29,5.354-5.6,5.58-5.293.515-7.814-3.463-11.329-6.341-1.687,2-5.424,3.535-7.863,4.482a8.8,8.8,0,0,1-6.747-.03c-3.61-1.508-5.73-4.558-8.3-7.361-3.207,2.053-6.056,3.86-10.181,3.275a10.909,10.909,0,0,1-5.391-2.495c2.173,5.956,9.595,10.378,16.579,7.268,2.043,3.965,4.653,5.137,9.428,5.9a18.183,18.183,0,0,0,9.043-.561c2.325-.869,3.961-2.565,6.029-3.739,2.257,2.7,3.689,3.869,7.789,3.885,4.243.017,7.4-1.065,9.806-4.355,3.3,6.354,10.054,7.745,17.653,6.709,3.076-.419,6.608-2.439,8.033-5.157,1-1.9,1.037-1.77,1.037-1.77s11.425,3.733,13.527-7.053c.586-3.008-.627-4.8-2.009-7.068,4.061-1.952,7.142-3.3,6.444-8.618C1691.46,251.187,1687.549,248.374,1680.742,249.563Z" transform="translate(-1587.577 -229.132)" fill="#d69a9a"/>
        <g id="Group_3687" data-name="Group 3687" transform="translate(29.218 3.48)">
          <path id="Path_3449" data-name="Path 3449" d="M1740.8,229.149c-.226-1.919-.09-4.325-.793-6.192-4.156-4.926-9.251-6.993-12.773-6.108,3.1.536,3.651,1.228,4.526,2.113,2.077,2.1.848,3.155.281,4.874,2.258-1.07,3.467.627,4.345,1.565,1.242,1.326.707,3.2.088,4.478-.452.934,3.727-1.128,3.91,5.779C1741.362,233.918,1741.024,231.068,1740.8,229.149Z" transform="translate(-1727.232 -216.649)" fill="#d69a9a"/>
        </g>
        <path id="Path_3450" data-name="Path 3450" d="M1634.775,247.485c-.671-1.227-4.285-2.986-6.6-2.846-2.819-.056-5.909,1.818-6.094,4.519-.1,1.472.725,3.559-.024,4.853-.921,1.592-3.866,1.646-5.457,2.4-3.842,1.816-2.34,5.7.478,7.625,1.4.959,3.087,2.027,2.974,3.951-.1,1.653-1.977,2.968-1.843,4.573.364,4.372,7.686.277,8.146-2.412.268-1.566-.831-3.388-1.854-4.424-.915-.927-3.076-1.657-3.442-3.019-.411-1.528,1.359-3.887,2.487-4.751,1.252-.959,3.032-.627,4.3-1.649,2.984-2.409-3.857-6.677.049-7.584,2.582-.6,2.813,1.464,4.822,2.146C1634.882,251.6,1635.667,249.117,1634.775,247.485Z" transform="translate(-1607.872 -235.503)" fill="#f4bdb8"/>
        <g id="Group_3688" data-name="Group 3688" transform="translate(18.335 18.236)">
          <path id="Path_3451" data-name="Path 3451" d="M1692.5,294.2c-1.676.051-2.891,1.062-4.639.078-1.59-.9-1.973-2.808-3.457-3.805a3.974,3.974,0,0,0-6.218,4.023c.149.682.739,5-2.655,3.974a1.6,1.6,0,0,0-2.18,1.423c-.418,3.072,4.484,3.7,6.31,2.564,3.6-2.243-.043-4.757,1.3-7.374,1.644-3.195,4.213,3.032,5.37,3.7,2.306,1.337,5.975-.59,6.808,2.959.353,1.5-.145,2.746,1.67,3.178a3.347,3.347,0,0,0,3.693-2C1699.941,299.423,1696.231,294.087,1692.5,294.2Z" transform="translate(-1673.321 -289.747)" fill="#f4bdb8"/>
        </g>
        <path id="Path_3452" data-name="Path 3452" d="M1844.472,236.735c-.224-2.035-1.311-4.074-3.541-4.407-1.69-.253-3.322.941-4.919.186-2.155-1.018-1.251-3.4-1.839-5.244-1.129-3.541-6.132-3.189-8.488-1.167-1.8,1.544-3.1,4.822-5.731,5.123-3.278.376-5.226-2.957-8.61-2.078-4.927,1.279-5.281,4.975-4.055,7.365a4.331,4.331,0,0,0,3.365,2.288,3.839,3.839,0,0,0,2.133-.391c.824-.58.528-.85.5-1.7-.2-5.419,7.406-.795,9.807-1.268s2.507-3.974,5.284-4.388c3.536-.527,1.585,2.745,2.8,4.547,1.305,1.931,5.976.106,6.77,2.429.274.8-.516,1.854-.166,2.793.541,1.451,2.2,1.329,3.411.8C1843.142,240.763,1844.708,238.875,1844.472,236.735Z" transform="translate(-1761.434 -219.506)" fill="#f4bdb8"/>
        <path id="Path_3453" data-name="Path 3453" d="M1917.44,306.168a3.179,3.179,0,0,0-2.49-2.551c-1.53-.315-3.41.392-4.965.426-1.912.042-4.492-.217-6.022-1.481a2.242,2.242,0,0,1-.765-2.985c.377-.912,1.268-1.864.458-2.8-.962-1.11-2.927-.3-3.879.4a5.559,5.559,0,0,0-1.919,4.3c.08,3.75,4.409,3.874,7.149,3.952,2,.057,5.7.178,7.1,1.89.8.979.146,1.436-.3,2.337-.343.691-.34,1.652-1.223,1.765-.923.117-1.741-1.107-2.6-1.423a3.947,3.947,0,0,0-3.284.358c-1.657.942-2.239,2.543-3.223,4.01-.461.687-1.439,2.058-2.482,1.682-1.172-.422-1.242-2.219-2.722-2.526a3,3,0,0,0-3.36,2.107,4.955,4.955,0,0,0,2.86,4.975c2.5,1.876,6.951.776,8.3-2.758.63-1.649.683-5.331,3.432-5.085,1.254.112,2.27,1.484,3.545,1.786,1.466.348,3.087.045,3.746-1.533.508-1.215-.164-2.494.583-3.646C1916.117,308.239,1917.545,307.747,1917.44,306.168Z" transform="translate(-1830.218 -276.685)" fill="#f4bdb8"/>
        <path id="Path_3454" data-name="Path 3454" d="M1735.232,292.531c-2.854-2.793-8.111-2.514-11.042-.552-2.173,1.454-3.349,4.618-3.826,7.264-.454,2.515,1.6,4.719,2.083,7.144.411,2.08.546,3.94-1.833,4.538a5.052,5.052,0,0,1-4.733-1.106c-1.4-1.007-2.9-2.156-4.681-2.38-1.947-.245-3.776.791-5.461,1.59-.907.43-3.309,1.978-4.411,1.509-1.267-.538,0-1.719.192-2.555.572-2.525-3.763-1.8-4.973-.614a7.274,7.274,0,0,0-1.119,3.044c-.321,2.063,1.74,4.2,3.575,4.776,4.658,1.451,7.763-4.482,12.3-4,1.909.2,2.921,1.621,4.112,2.988a7.685,7.685,0,0,0,7.311,2.383c2.717-.438,6.341-2.828,6.574-5.729.232-2.877-.916-5.5-2.014-8.118-.546-1.3-1.16-2.776-.508-4.15.619-1.3.9-2.825,2.3-3.256,1.49-.458,2.389,1.665,5.623,1.8,1.38.312,1.484-1.051,1.636-1.727A3.187,3.187,0,0,0,1735.232,292.531Z" transform="translate(-1672.602 -272.088)" fill="#f4bdb8"/>
      </g>
      <g id="Group_3690" data-name="Group 3690" transform="translate(1518.511 208.208)">
        <path id="Path_3455" data-name="Path 3455" d="M1682.844,243.429a4.517,4.517,0,0,0-2.815-.355c-.864.2-3.753,1.448-2.454,3.019.461.558,1.351-.536,1.974-.7,2.551-.675,2.64-.207,3.287-.436C1683.609,244.68,1683.676,243.993,1682.844,243.429Z" transform="translate(-1677.244 -242.995)" fill="#231f20"/>
      </g>
      <g id="Group_3691" data-name="Group 3691" transform="translate(1483.44 227.248)">
        <path id="Path_3456" data-name="Path 3456" d="M1513.148,347.848a14.509,14.509,0,0,1-9.406-3.349.707.707,0,1,1,.961-1.036c.237.218,5.947,5.335,14.746,1.616a14.2,14.2,0,0,0,7.813-7.3.707.707,0,0,1,1.331.476c-.077.216-1.97,5.328-8.593,8.127A17.5,17.5,0,0,1,1513.148,347.848Z" transform="translate(-1503.516 -337.31)" fill="#231f20"/>
      </g>
      <g id="Group_3692" data-name="Group 3692" transform="translate(1517.881 220.84)">
        <path id="Path_3457" data-name="Path 3457" d="M1689.7,314.529a6.072,6.072,0,0,1-2.584,3.188,7.289,7.289,0,0,1-2.231.653c-2.491.4-5.246.226-7.229-1.331-2.262-1.776-2.973-4.917-2.9-7.792a5.238,5.238,0,0,1,1.559,1.8,6,6,0,0,0,2.768,2.1,10.505,10.505,0,0,0,2.537.51,7.857,7.857,0,0,0,4.7-.553,7.631,7.631,0,0,0,1.746-1.484c.353-.372,1.272-2.039,1.869-1.987C1689.931,309.638,1690.426,312.793,1689.7,314.529Z" transform="translate(-1674.624 -308.504)" fill="#d69a9a"/>
        <path id="Path_3458" data-name="Path 3458" d="M1689.455,306.493s-1.113,6.384-8.473,5.556-6.729-5.916-6.855-6.443a9.677,9.677,0,0,0,15.328.887Z" transform="translate(-1674.123 -305.566)" fill="#231f20"/>
      </g>
      <g id="Group_3693" data-name="Group 3693" transform="translate(1573.778 208.967)">
        <path id="Path_3459" data-name="Path 3459" d="M1951.583,247.27a4.519,4.519,0,0,1,2.8-.468c.871.162,3.807,1.3,2.572,2.919-.439.576-1.371-.482-2-.622-2.576-.573-2.646-.1-3.3-.3C1950.869,248.551,1950.775,247.867,1951.583,247.27Z" transform="translate(-1951.019 -246.753)" fill="#231f20"/>
      </g>
      <g id="Group_3694" data-name="Group 3694" transform="translate(1566.008 221.321)">
        <path id="Path_3460" data-name="Path 3460" d="M1912.656,313.856a6.072,6.072,0,0,0,2.091,3.53,7.281,7.281,0,0,0,2.112.972c2.407.754,5.157.989,7.346-.262,2.5-1.426,3.658-4.431,4-7.286a5.239,5.239,0,0,0-1.806,1.557,6,6,0,0,1-3.044,1.675,10.508,10.508,0,0,1-2.584.135,7.856,7.856,0,0,1-4.564-1.232,7.626,7.626,0,0,1-1.511-1.723c-.295-.42-.962-2.2-1.56-2.239C1913.138,308.983,1912.188,312.033,1912.656,313.856Z" transform="translate(-1912.526 -308.775)" fill="#d69a9a"/>
        <path id="Path_3461" data-name="Path 3461" d="M1915.581,307.951s.17,6.479,7.572,6.732,7.52-4.872,7.721-5.374a9.676,9.676,0,0,1-15.293-1.359Z" transform="translate(-1914.964 -307.951)" fill="#231f20"/>
      </g>
      <path id="Path_3462" data-name="Path 3462" d="M1486.742,346.36a1.455,1.455,0,0,1-1.1-1.383,5.608,5.608,0,0,1,.3-1.856,3.489,3.489,0,0,0,.11-1.863,1.945,1.945,0,0,0-1.142-1.24.634.634,0,0,0-.7.066c-.225.251-.024.637.148.927a1.793,1.793,0,0,1,.133,1.927,1.847,1.847,0,0,1-1,.589,2.111,2.111,0,0,1-1.674-.073,1.352,1.352,0,0,1-.623-1.2,1.48,1.48,0,0,1,.71-1.166c.592-.357,1.417-.313,1.877-.83a.574.574,0,0,0,.162-.347c.011-.281-.271-.48-.535-.577a2.848,2.848,0,0,0-3.282,1.3,3.19,3.19,0,0,0-.344.857c-.183-.616-.31-1.256-.445-1.875a.446.446,0,0,0-.179-.324.324.324,0,0,0-.254,0c-.4.141-.524.64-.541,1.062a6.9,6.9,0,0,0,2.2,5.089c1.364,1.328,4.738,2.327,8.514,3.379C1489.85,349.031,1487.068,346.481,1486.742,346.36Z" transform="translate(0 -111.565)" fill="#231f20"/>
      <g id="Group_3695" data-name="Group 3695" transform="translate(1597.877 228.689)">
        <path id="Path_3463" data-name="Path 3463" d="M2084.463,352.362a18.9,18.9,0,0,1-4.021-.448c-7.026-1.527-9.831-6.2-9.947-6.4a.706.706,0,0,1,1.219-.715h0a14.3,14.3,0,0,0,9.028,5.734c9.371,2.036,14.146-4.25,14.194-4.314a.707.707,0,1,1,1.136.84A14.779,14.779,0,0,1,2084.463,352.362Z" transform="translate(-2070.398 -344.451)" fill="#231f20"/>
      </g>
      <path id="Path_3464" data-name="Path 3464" d="M2175.076,328.7a1.455,1.455,0,0,0,.824-1.562,5.616,5.616,0,0,0-.642-1.768,3.489,3.489,0,0,1-.452-1.811,1.944,1.944,0,0,1,.893-1.43.633.633,0,0,1,.7-.064c.267.205.142.622.026.938a1.792,1.792,0,0,0,.225,1.919,1.846,1.846,0,0,0,1.1.394,2.113,2.113,0,0,0,1.631-.382,1.353,1.353,0,0,0,.39-1.3,1.48,1.48,0,0,0-.913-1.014c-.648-.242-1.45-.046-2-.469a.575.575,0,0,1-.223-.311c-.063-.274.177-.522.419-.666a2.849,2.849,0,0,1,3.466.671,3.2,3.2,0,0,1,.5.778c.066-.638.072-1.291.09-1.925a.446.446,0,0,1,.116-.352.323.323,0,0,1,.249-.048c.418.064.633.532.728.944a6.9,6.9,0,0,1-1.225,5.408c-1.1,1.558-4.227,3.163-7.743,4.894C2172.515,331.9,2174.778,328.883,2175.076,328.7Z" transform="translate(-554.482 -96.487)" fill="#231f20"/>
      <path id="Path_3465" data-name="Path 3465" d="M1785.122,366.4c-.508.377,4.08,7.451,11.9,6.911,7.645-.527,10.277-7.836,9.454-7.844-.754-.007-2.708,7.259-10.086,7.157C1787.951,372.512,1785.85,365.863,1785.122,366.4Z" transform="translate(-244.803 -132.538)" fill="#231f20"/>
      <path id="Path_3466" data-name="Path 3466" d="M1778.916,366.251a1.7,1.7,0,0,1,1.024-.505.45.45,0,0,0,.182-.051.136.136,0,0,0,.061-.163.179.179,0,0,0-.091-.075,1.307,1.307,0,0,0-1.3.155,1.979,1.979,0,0,0-.721,1.131.928.928,0,0,0-.023.463c.1.363.472.394.6.08.044-.107-.04-.365-.012-.5A1.16,1.16,0,0,1,1778.916,366.251Z" transform="translate(-239.175 -132.441)" fill="#231f20"/>
      <path id="Path_3467" data-name="Path 3467" d="M1888.2,360.975a2.424,2.424,0,0,1,.669.274.832.832,0,0,1,.39.584,3.553,3.553,0,0,0,.007.449c.033.146.195.283.326.211a.281.281,0,0,0,.1-.111,1.076,1.076,0,0,0-.152-1.192,1.6,1.6,0,0,0-.838-.5c-.09-.022-.277-.1-.367-.049C1888.284,360.667,1888.1,360.945,1888.2,360.975Z" transform="translate(-327.08 -128.668)" fill="#231f20"/>
    </g>
    <g id="Group_3709" data-name="Group 3709" transform="translate(570.643 305.133)">
      <path id="Path_1397" data-name="Path 1397" d="M1842.171,1279.434l1.078,1.744a2.543,2.543,0,0,0,1.474,1.111l1.97.554a2.551,2.551,0,0,1,1.255,4.1l-1.321,1.567a2.553,2.553,0,0,0-.6,1.749l.084,2.05a2.543,2.543,0,0,1-3.5,2.464l-1.895-.776a2.535,2.535,0,0,0-1.844-.03l-1.919.713a2.543,2.543,0,0,1-3.418-2.577l.15-2.047a2.553,2.553,0,0,0-.541-1.768l-1.269-1.609a2.551,2.551,0,0,1,1.387-4.056l1.987-.489a2.542,2.542,0,0,0,1.51-1.062l1.134-1.708A2.538,2.538,0,0,1,1842.171,1279.434Z" transform="translate(-1831.327 -1278.228)" fill="#ab4300"/>
      <path id="Path_1398" data-name="Path 1398" d="M1846.418,1297.559a2.3,2.3,0,0,1-.873-.174l-1.895-.776a2.771,2.771,0,0,0-2.016-.033l-1.919.713a2.3,2.3,0,0,1-3.1-2.335l.15-2.047a2.787,2.787,0,0,0-.592-1.933l-1.269-1.609a2.312,2.312,0,0,1,1.257-3.676l1.987-.489a2.773,2.773,0,0,0,1.651-1.162l1.134-1.708a2.3,2.3,0,0,1,3.875.063l1.078,1.744a2.774,2.774,0,0,0,1.612,1.215l1.97.554a2.312,2.312,0,0,1,1.138,3.715l-1.321,1.567a2.786,2.786,0,0,0-.655,1.913l.083,2.05a2.285,2.285,0,0,1-.634,1.689,2.318,2.318,0,0,1-1.665.718Z" transform="translate(-1834.169 -1281.061)" fill="#ffde3d"/>
      <path id="Path_1399" data-name="Path 1399" d="M1842.171,1279.434l1.078,1.744a2.543,2.543,0,0,0,1.474,1.111l1.97.554a2.551,2.551,0,0,1,1.255,4.1l-1.321,1.567a2.553,2.553,0,0,0-.6,1.749l.084,2.05a2.543,2.543,0,0,1-3.5,2.464l-1.895-.776a2.535,2.535,0,0,0-1.844-.03l-1.919.713a2.543,2.543,0,0,1-3.418-2.577l.15-2.047a2.553,2.553,0,0,0-.541-1.768l-1.269-1.609a2.551,2.551,0,0,1,1.387-4.056l1.987-.489a2.542,2.542,0,0,0,1.51-1.062l1.134-1.708A2.538,2.538,0,0,1,1842.171,1279.434Z" transform="translate(-1831.327 -1278.228)" opacity="0.3" fill="url(#radial-gradient)" style="mix-blend-mode: screen;isolation: isolate"/>
      <g id="Group_3258" data-name="Group 3258" transform="translate(0.24 0.239)" opacity="0.5" style="mix-blend-mode: color-dodge;isolation: isolate">
        <path id="Path_1400" data-name="Path 1400" d="M1846.418,1297.559a2.3,2.3,0,0,1-.873-.174l-1.895-.776a2.772,2.772,0,0,0-2.017-.033l-1.919.713a2.3,2.3,0,0,1-3.1-2.335l.15-2.047a2.787,2.787,0,0,0-.592-1.933l-1.269-1.609a2.312,2.312,0,0,1,1.257-3.676l1.987-.489a2.773,2.773,0,0,0,1.651-1.162l1.134-1.708a2.3,2.3,0,0,1,3.875.063l1.078,1.744a2.774,2.774,0,0,0,1.612,1.215l1.97.554a2.312,2.312,0,0,1,1.138,3.715l-1.321,1.567a2.786,2.786,0,0,0-.655,1.913l.083,2.05a2.286,2.286,0,0,1-.634,1.689A2.318,2.318,0,0,1,1846.418,1297.559Zm-3.818-1.634a3.235,3.235,0,0,1,1.23.242l1.895.776a1.828,1.828,0,0,0,2.516-1.771l-.083-2.05a3.262,3.262,0,0,1,.766-2.241l1.321-1.567a1.834,1.834,0,0,0-.9-2.947l-1.97-.554a3.249,3.249,0,0,1-1.888-1.423l-1.078-1.744a1.825,1.825,0,0,0-3.074-.05l-1.134,1.708a3.247,3.247,0,0,1-1.933,1.361l-1.987.489a1.834,1.834,0,0,0-1,2.917l1.269,1.61a3.262,3.262,0,0,1,.693,2.265l-.15,2.046a1.81,1.81,0,0,0,.479,1.377,1.809,1.809,0,0,0,1.979.475l1.919-.713A3.239,3.239,0,0,1,1842.6,1295.926Z" transform="translate(-1834.408 -1281.3)" fill="#fff"/>
      </g>
    </g>
  </g>
</svg>
