<svg xmlns="http://www.w3.org/2000/svg" xmlns:xlink="http://www.w3.org/1999/xlink" width="181.422" height="101.086" viewBox="0 0 181.422 101.086">
  <defs>
    <radialGradient id="radial-gradient" cx="0.62" cy="0.872" r="1.233" gradientUnits="objectBoundingBox">
      <stop offset="0.5"/>
      <stop offset="0.5" stop-color="#fff"/>
    </radialGradient>
  </defs>
  <g id="Group_3732" data-name="Group 3732" transform="translate(-706.679 -311.613)">
    <g id="Group_3684" data-name="Group 3684" transform="translate(-745.817 -463.055)">
      <path id="Path_3415" data-name="Path 3415" d="M1452.5,913.33a22.162,22.162,0,0,0,21.781,15.56c3.348-.173,6.981-1.069,9.862.646a34.98,34.98,0,0,1,3.537,3.032c5.381,4.27,13.178,1.614,20.042,1.864,7.51.274,14.531,4.286,22.044,4.393,4.936.07,9.717-1.553,14.574-2.427a48.688,48.688,0,0,1,21.847,1.08,5.921,5.921,0,0,0,3.21.331,5.369,5.369,0,0,0,2.092-1.414,75.975,75.975,0,0,0,22.687-43.82l-56.064,2.09c-13.9.518-27.509.591-41.146-2.361-2.305,6.85-13.346,12.883-19.485,15.762C1475.273,909.1,1464.448,912.311,1452.5,913.33Z" transform="translate(0 -84.332)" fill="#ea5036"/>
      <path id="Path_3416" data-name="Path 3416" d="M1578.737,928.421a5.075,5.075,0,0,0-.6-1.22,12.158,12.158,0,0,0-3.82-3.218q-23.608-14.809-48.4-27.607-1.414-.73-2.842-1.448a128.947,128.947,0,0,1-26.112-2.625c-2.3,6.85-13.346,12.883-19.485,15.762-2.2,1.033-13.028,4.247-24.981,5.266a21.923,21.923,0,0,0,10.974,13.1,33.852,33.852,0,0,0,7.319-3.7c9.454-5.976,18.02-13.568,28.4-17.738a2.384,2.384,0,0,1,2.173-.113,1.852,1.852,0,0,1,.691,1.29c.422,2.745-2.031,4.986-4.176,6.751a105.341,105.341,0,0,0-13.153,12.916,14.537,14.537,0,0,0-2.039,3.06,6.685,6.685,0,0,1,1.455.641,34.98,34.98,0,0,1,3.537,3.032,10.194,10.194,0,0,0,2.494,1.451q.206-.128.4-.262c4.888-3.37,8.058-8.629,11.771-13.261s8.645-8.994,14.577-9.243a8.746,8.746,0,0,1,4.748,1.025,8.089,8.089,0,0,1,2.637,2.565c2.322,3.5,2.261,8.125,1.1,12.164-1.037,3.6-2.849,6.915-4.409,10.327a34.97,34.97,0,0,0,8.766,1.493,30.8,30.8,0,0,0,6.247-.646,40.615,40.615,0,0,0,3.246-9.545c.884-3.572,2.327-7.752,5.89-8.672,2.779-.717,5.741,1.1,7.148,3.6s1.56,5.51,1.391,8.375c-.071,1.212-.178,2.478-.134,3.705a48.6,48.6,0,0,1,12.633,1.834,5.922,5.922,0,0,0,3.21.331,5.37,5.37,0,0,0,2.092-1.414A74.158,74.158,0,0,0,1578.737,928.421Z" transform="translate(0 -84.332)" fill="#d14633"/>
      <g id="Group_3673" data-name="Group 3673" transform="translate(1561.665 836.157)">
        <path id="Path_3417" data-name="Path 3417" d="M1947.983,1047.173a1.1,1.1,0,0,1-.954-1.659c3.717-6.4,3.909-24.289,3.911-24.469a1.1,1.1,0,1,1,2.208.018c-.006.759-.2,18.655-4.209,25.559A1.1,1.1,0,0,1,1947.983,1047.173Z" transform="translate(-1946.88 -1019.951)" fill="#231f20"/>
      </g>
      <g id="Group_3674" data-name="Group 3674" transform="translate(1501.681 839.786)">
        <path id="Path_3418" data-name="Path 3418" d="M1676.342,1059.976a1.1,1.1,0,0,1-.618-2.02,24.312,24.312,0,0,0,6.955-8.354,44.711,44.711,0,0,0,3.875-12.271,1.1,1.1,0,0,1,2.186.312,46.158,46.158,0,0,1-4.1,12.971,26.072,26.072,0,0,1-7.685,9.175A1.1,1.1,0,0,1,1676.342,1059.976Z" transform="translate(-1675.237 -1036.382)" fill="#231f20"/>
      </g>
      <g id="Group_3677" data-name="Group 3677" transform="translate(1490.433 784.071)">
        <path id="Path_3419" data-name="Path 3419" d="M1737.563,815.453c-1.531-6.618-5.936-6.668-11.282-8.489,1.168-1.573,2.545-2.646,2.551-4.8.009-3.066-2.871-5.81-5.2-7.505a14.349,14.349,0,0,0-14.192-1.95c1.4-6.261-5.01-8.639-10.282-8.642-5.964,0-8.91,2.658-12.4,7.361-2.173-4.838-10-4.51-12.586-1.8-1.587,1.662-2.777,5.6-3.02,5.285-6.246-8.237-14.976-10.066-18.024-5.023-6.85-3.423-18.424.54-18.479,9.134-3.8.644-7.73,2.041-9.514,6.177a12.344,12.344,0,0,0-.52,7.215c.677,2.6,2.225,3.176,4,4.678-10.623,9.661,2.421,25.341,14.673,20.177,2.147,4.381,4.976,5.72,10.181,6.657a19.888,19.888,0,0,0,9.9-.416c2.562-.9,4.388-2.719,6.675-3.957,2.409,3,3.95,4.312,8.433,4.419,4.64.111,8.111-1,10.819-4.548,6.067,5.232,12.451,7.875,20.784,6.909,3.373-.391,5.655-1.707,7.272-4.649,1.133-2.06.407-1.695,2.572-1.926,4.735-.507,11.827-2.137,13.549-7.4,1.042-3.186-.581-5.262-2.042-7.774C1735.917,822.536,1738.883,821.166,1737.563,815.453Z" transform="translate(-1624.298 -784.071)" fill="#eaaaa7"/>
        <path id="Path_3420" data-name="Path 3420" d="M1729.87,837.457c2.318-1.151,2.545-2.646,2.551-4.8.009-3.066-2.871-5.81-5.2-7.5a16.513,16.513,0,0,0-3.489-1.951c1.049,1,2.076,1.893,2.494,2.384a9.495,9.495,0,0,1,2.46,7.158c-.129,3.091-1.45,4.9-2.789,7.513,2.725.841,5.246,2.638,5.6,5.661.466,3.99-3.616,5.559-6.481,7.245,1.512,1.874,3.112,2.991,1.562,5.534-2.138,3.508-7.336,5.257-11.03,3.758-1.511,5.612-11.514,6.66-16.242,6.116-3.979-.458-6.825-2.411-9.856-4.745.175,2.472-3.715,5.784-6.251,5.979-5.8.447-8.47-3.958-12.251-7.183-1.888,2.154-6.009,3.747-8.7,4.729a9.622,9.622,0,0,1-7.378-.181c-3.916-1.728-6.167-5.11-8.915-8.233-3.553,2.175-6.707,4.089-11.206,3.358a11.933,11.933,0,0,1-5.842-2.846c2.246,6.561,10.266,11.56,17.972,8.312,2.147,4.381,4.976,5.72,10.181,6.657a19.892,19.892,0,0,0,9.9-.416c2.561-.9,4.388-2.718,6.675-3.957,2.409,3,3.949,4.312,8.433,4.42,4.64.111,8.11-1,10.819-4.548,3.467,7.022,10.826,8.691,19.159,7.724,3.373-.391,7.28-2.522,8.9-5.464,1.133-2.06,1.173-1.913,1.173-1.913s12.413,4.333,14.948-7.417c.707-3.277-.581-5.262-2.042-7.774,4.483-2.046,7.883-3.456,7.236-9.284C1741.556,839.468,1737.341,836.306,1729.87,837.457Z" transform="translate(-1627.888 -814.563)" fill="#d69a9a"/>
        <g id="Group_3675" data-name="Group 3675" transform="translate(32.414 2.989)">
          <path id="Path_3421" data-name="Path 3421" d="M1785.655,811.541c-.2-2.1,0-4.731-.732-6.79-4.437-5.479-9.964-7.851-13.835-6.96,3.382.654,3.966,1.423,4.9,2.41,2.225,2.342.859,3.469.2,5.337,2.493-1.121,3.778.762,4.718,1.806,1.329,1.478.7,3.513,0,4.9-.514,1.012,4.1-1.151,4.15,6.406C1786.166,816.768,1785.859,813.645,1785.655,811.541Z" transform="translate(-1771.087 -797.608)" fill="#d69a9a"/>
        </g>
        <path id="Path_3422" data-name="Path 3422" d="M1678.812,827.82c-.707-1.357-4.621-3.36-7.156-3.257-3.082-.123-6.5,1.858-6.763,4.808-.142,1.608.715,3.908-.132,5.307-1.042,1.72-4.264,1.715-6.02,2.5-4.241,1.9-2.683,6.181.356,8.349,1.513,1.08,3.332,2.284,3.166,4.386-.143,1.806-2.227,3.2-2.116,4.961.3,4.79,8.4.471,8.961-2.459.327-1.707-.835-3.723-1.931-4.879-.98-1.033-3.327-1.879-3.7-3.377-.416-1.68,1.572-4.222,2.823-5.141,1.391-1.022,3.33-.619,4.737-1.709,3.316-2.569-4.072-7.387.22-8.293,2.837-.6,3.044,1.663,5.226,2.453C1678.838,832.324,1679.75,829.623,1678.812,827.82Z" transform="translate(-1649.11 -815.617)" fill="#f4bdb8"/>
        <g id="Group_3676" data-name="Group 3676" transform="translate(19.962 19.045)">
          <path id="Path_3423" data-name="Path 3423" d="M1735.8,875.418c-1.833.019-3.185,1.1-5.075-.017-1.719-1.014-2.1-3.115-3.7-4.237a4.347,4.347,0,0,0-6.889,4.263c.148.749.7,5.488-2.991,4.288a1.755,1.755,0,0,0-2.415,1.508c-.524,3.351,4.823,4.146,6.845,2.943,3.991-2.375.057-5.2,1.586-8.036,1.868-3.458,4.541,3.409,5.792,4.168,2.493,1.513,6.548-.515,7.381,3.385.352,1.649-.219,3,1.757,3.512a3.661,3.661,0,0,0,4.083-2.107C1743.829,881.291,1739.888,875.375,1735.8,875.418Z" transform="translate(-1714.698 -870.317)" fill="#f4bdb8"/>
        </g>
        <path id="Path_3424" data-name="Path 3424" d="M1890.7,822.886c-.2-2.231-1.344-4.484-3.776-4.9-1.843-.313-3.653.956-5.384.1-2.334-1.16-1.293-3.745-1.9-5.775-1.158-3.9-6.637-3.622-9.257-1.462-2,1.649-3.5,5.205-6.38,5.477-3.593.34-5.651-3.348-9.37-2.461-5.416,1.291-5.885,5.325-4.6,7.966a4.738,4.738,0,0,0,3.631,2.576,4.2,4.2,0,0,0,2.341-.381c.915-.616.6-.918.58-1.844-.1-5.931,8.117-.707,10.753-1.171s2.829-4.291,5.875-4.683c3.879-.5,1.674,3.037,2.967,5.035,1.385,2.14,6.533.247,7.351,2.8.282.881-.606,2.016-.243,3.051.56,1.6,2.381,1.5,3.712.945C1889.161,827.262,1890.916,825.231,1890.7,822.886Z" transform="translate(-1799.728 -803.717)" fill="#f4bdb8"/>
        <path id="Path_3425" data-name="Path 3425" d="M1960.224,892.466a3.477,3.477,0,0,0-2.667-2.845c-1.667-.378-3.738.354-5.439.357-2.092,0-4.907-.335-6.554-1.751a2.453,2.453,0,0,1-.771-3.282c.432-.989,1.427-2.011.562-3.05-1.028-1.235-3.194-.4-4.25.351a6.082,6.082,0,0,0-2.193,4.658c.006,4.1,4.737,4.334,7.732,4.479,2.189.106,6.224.319,7.725,2.222.858,1.088.129,1.574-.38,2.55-.39.748-.408,1.8-1.376,1.9-1.012.108-1.88-1.249-2.807-1.613a4.319,4.319,0,0,0-3.6.32c-1.833.994-2.5,2.732-3.613,4.315-.52.741-1.618,2.219-2.751,1.786-1.273-.487-1.31-2.454-2.922-2.822a3.275,3.275,0,0,0-3.721,2.231,5.42,5.42,0,0,0,3.018,5.5c2.7,2.107,7.585,1,9.14-2.834.726-1.79.863-5.815,3.865-5.486,1.369.15,2.45,1.673,3.838,2.031,1.6.412,3.375.116,4.13-1.595.582-1.318-.125-2.732.717-3.975C1958.732,894.7,1960.305,894.195,1960.224,892.466Z" transform="translate(-1864.941 -859.804)" fill="#f4bdb8"/>
        <path id="Path_3426" data-name="Path 3426" d="M1779.743,876.377c-3.06-3.117-8.815-2.926-12.064-.846-2.408,1.542-3.764,4.977-4.344,7.86-.551,2.741,1.651,5.2,2.121,7.859.4,2.284.511,4.32-2.1,4.923-2.149.495-3.463-.051-5.153-1.314-1.514-1.133-3.127-2.422-5.068-2.705-2.123-.31-4.146.783-6.007,1.619-1,.45-3.662,2.09-4.857,1.554-1.375-.617.04-1.88.266-2.79.68-2.749-4.077-2.049-5.425-.78-.808.761-1.253,3.09-1.29,3.3-.4,2.249,1.811,4.636,3.806,5.3,5.062,1.688,8.588-4.731,13.543-4.1,2.083.264,3.159,1.837,4.432,3.358a8.406,8.406,0,0,0,7.943,2.766c2.981-.419,7-2.954,7.316-6.121.316-3.142-.881-6.039-2.025-8.923-.569-1.433-1.208-3.062-.465-4.549.705-1.413,1.041-3.07,2.582-3.51,1.64-.468,2.576,1.874,6.11,2.087,1.5.372,1.646-1.117,1.827-1.853A3.487,3.487,0,0,0,1779.743,876.377Z" transform="translate(-1711.156 -854.14)" fill="#f4bdb8"/>
      </g>
      <g id="Group_3678" data-name="Group 3678" transform="translate(1519.414 793.9)">
        <path id="Path_3427" data-name="Path 3427" d="M1762.057,829.977a4.939,4.939,0,0,0-2.782-1.375c-.963-.106-4.4.153-3.617,2.242.277.742,1.588-.07,2.292-.018,2.879.216,2.8.732,3.554.726C1762.4,831.545,1762.715,830.859,1762.057,829.977Z" transform="translate(-1755.543 -828.582)" fill="#231f20"/>
      </g>
      <g id="Group_3679" data-name="Group 3679" transform="translate(1563.42 793.118)">
        <path id="Path_3428" data-name="Path 3428" d="M1955.124,826.655a4.941,4.941,0,0,1,2.688-1.551c.954-.168,4.4-.13,3.754,2-.229.758-1.589.032-2.288.13-2.859.4-2.75.911-3.5.953C1954.883,828.241,1954.524,827.576,1955.124,826.655Z" transform="translate(-1954.828 -825.042)" fill="#231f20"/>
      </g>
      <g id="Group_3680" data-name="Group 3680" transform="translate(1517.036 800.552)">
        <circle id="Ellipse_226" data-name="Ellipse 226" cx="6.597" cy="6.597" r="6.597" transform="translate(1.566 0.563)" fill="#d69a9a"/>
        <circle id="Ellipse_227" data-name="Ellipse 227" cx="5.772" cy="5.772" r="5.772" transform="translate(0 8.163) rotate(-45)" fill="#fff"/>
        <path id="Path_3429" data-name="Path 3429" d="M1774.533,884.119a2.851,2.851,0,1,1-2.851-2.852A2.851,2.851,0,0,1,1774.533,884.119Z" transform="translate(-1763.518 -876.286)" fill="#231f20"/>
        <path id="Path_3430" data-name="Path 3430" d="M1772.51,886.312a.9.9,0,1,1,0,1.27A.9.9,0,0,1,1772.51,886.312Z" transform="translate(-1766.18 -880.011)" fill="#fff"/>
      </g>
      <g id="Group_3681" data-name="Group 3681" transform="translate(1559.145 801.415)">
        <circle id="Ellipse_228" data-name="Ellipse 228" cx="6.597" cy="6.597" r="6.597" transform="translate(0.347)" fill="#d69a9a"/>
        <circle id="Ellipse_229" data-name="Ellipse 229" cx="5.772" cy="5.772" r="5.772" transform="translate(0 11.892) rotate(-76.717)" fill="#fff"/>
        <path id="Path_3431" data-name="Path 3431" d="M1959.707,885.476a2.852,2.852,0,1,1-2.852-2.852A2.851,2.851,0,0,1,1959.707,885.476Z" transform="translate(-1949.911 -878.206)" fill="#231f20"/>
        <path id="Path_3432" data-name="Path 3432" d="M1957.684,887.67a.9.9,0,1,1,0,1.27A.9.9,0,0,1,1957.684,887.67Z" transform="translate(-1952.574 -881.933)" fill="#fff"/>
      </g>
      <g id="Group_3682" data-name="Group 3682" transform="translate(1597.576 793.124)">
        <path id="Path_3433" data-name="Path 3433" d="M2110.283,848.318a.773.773,0,0,1-.336-1.469,44.27,44.27,0,0,0,11.852-9.535c5.057-5.558,10.042-11.886,10.092-11.95a.773.773,0,0,1,1.215.955c-.05.064-5.068,6.434-10.164,12.035a44.865,44.865,0,0,1-12.325,9.888A.768.768,0,0,1,2110.283,848.318Z" transform="translate(-2109.509 -825.068)" fill="#231f20"/>
      </g>
      <path id="Path_3434" data-name="Path 3434" d="M2198.75,804.461a1.235,1.235,0,0,0,.405-.8c-.008-.305-.385-.588-.623-.4a1.639,1.639,0,0,0,.2-1.3c-.169-.418-.857-.587-1.058-.183a1.49,1.49,0,0,0,.119-.667.511.511,0,0,0-.426-.465.724.724,0,0,0-.39.131,10.677,10.677,0,0,0-2.486,1.984,3.005,3.005,0,0,0,.278-1.2.91.91,0,0,0-1.737-.454,2.9,2.9,0,0,0-.338,1.217,29.276,29.276,0,0,1-.791,4.832,14.537,14.537,0,0,1-2.761,4.9c1.622,1.228,3.579-1.716,4.659-2.666A55.362,55.362,0,0,0,2198.75,804.461Z" transform="translate(-573.984 -12.864)" fill="#231f20"/>
      <g id="Group_3683" data-name="Group 3683" transform="translate(1475.147 808.81)">
        <path id="Path_3435" data-name="Path 3435" d="M1555.847,915.615a.773.773,0,0,1-.526-1.34c.06-.055,6.012-5.562,11.921-10.3a44.861,44.861,0,0,1,13.719-7.839.773.773,0,0,1,.444,1.481,44.274,44.274,0,0,0-13.2,7.565c-5.864,4.7-11.777,10.17-11.836,10.225A.77.77,0,0,1,1555.847,915.615Z" transform="translate(-1555.074 -896.106)" fill="#231f20"/>
      </g>
      <path id="Path_3436" data-name="Path 3436" d="M1536.295,965.5a1.239,1.239,0,0,0-.525.723c-.039.3.288.641.553.489a1.641,1.641,0,0,0-.4,1.248c.1.439.755.713,1.016.346a1.491,1.491,0,0,0-.222.64.512.512,0,0,0,.348.526.725.725,0,0,0,.406-.068,10.673,10.673,0,0,0,2.766-1.571,3.017,3.017,0,0,0-.462,1.147.91.91,0,0,0,1.645.719,2.9,2.9,0,0,0,.524-1.149,29.235,29.235,0,0,1,1.537-4.649,14.525,14.525,0,0,1,3.494-4.413c-1.41-1.466-3.8,1.135-5.019,1.905A55.361,55.361,0,0,0,1536.295,965.5Z" transform="translate(-64.883 -136.339)" fill="#231f20"/>
      <path id="Path_3437" data-name="Path 3437" d="M1806.231,927.612a36.012,36.012,0,0,0,14.69,2.163,60.742,60.742,0,0,0,13.031-2.919s-.56,15.222-11.862,15.581C1807.354,942.906,1806.231,927.612,1806.231,927.612Z" transform="translate(-275.624 -111.256)" fill="#231f20"/>
      <path id="Path_3438" data-name="Path 3438" d="M1845.136,956.12a4.317,4.317,0,0,0-.578-.713,7.258,7.258,0,0,0-3.4-1.608,12.461,12.461,0,0,0-4.212-.5,5.288,5.288,0,0,0-3.711,1.846c-2.411-.9-5.209-1.191-7.495-.009a5.3,5.3,0,0,0-2.547,2.513c2.317,3.027,6.091,5.564,12.225,5.369C1840.565,962.854,1843.483,959.607,1845.136,956.12Z" transform="translate(-288.84 -131.833)" fill="#ea5036"/>
      <path id="Path_3439" data-name="Path 3439" d="M1923.046,1098.8c-.191.129-6.388,7.128-6.572,8.365s.054,11.779,2.448,12.343,8.02-10.13,8.02-10.13l5.142-4.606a31.652,31.652,0,0,0-4.151-3.976A12.9,12.9,0,0,0,1923.046,1098.8Z" transform="translate(-361.485 -245.233)" fill="#ea5036"/>
      <path id="Path_3440" data-name="Path 3440" d="M1651.892,1101.662c-.191.129-8.013,6.838-8.2,8.075s.316,12.893,2.71,13.457,8.02-10.13,8.02-10.13l5.141-4.606a10.745,10.745,0,0,0-3.381-4.421A15.716,15.716,0,0,0,1651.892,1101.662Z" transform="translate(-148.952 -247.461)" fill="#ea5036"/>
      <path id="Path_3441" data-name="Path 3441" d="M1669.16,1110.733a4.031,4.031,0,0,0-2.2,2.241,1.208,1.208,0,0,0,.081.944,1.354,1.354,0,0,0,1.493.385,4.953,4.953,0,0,0,2.058-1.2,2.5,2.5,0,0,0,.814-1.139C1671.822,1110.405,1670.151,1110.2,1669.16,1110.733Z" transform="translate(-167.058 -254.322)" fill="#f4bdb8"/>
      <path id="Path_3442" data-name="Path 3442" d="M1940.665,1107.884a4.032,4.032,0,0,0-1.48,2.773,1.208,1.208,0,0,0,.345.883,1.354,1.354,0,0,0,1.541-.053,4.952,4.952,0,0,0,1.636-1.73,2.491,2.491,0,0,0,.458-1.322C1943.126,1106.816,1941.464,1107.09,1940.665,1107.884Z" transform="translate(-379.219 -251.817)" fill="#f4bdb8"/>
    </g>
    <g id="Group_3262" data-name="Group 3262" transform="translate(867.006 311.613)">
      <path id="Path_1405" data-name="Path 1405" d="M2104.2,1279.36l1.286,2.152a3.113,3.113,0,0,0,1.783,1.387l2.4.716a3.114,3.114,0,0,1,1.456,5.032l-1.649,1.888a3.114,3.114,0,0,0-.768,2.125l.062,2.506a3.114,3.114,0,0,1-4.336,2.94l-2.305-.985a3.114,3.114,0,0,0-2.258-.073l-2.365.833a3.114,3.114,0,0,1-4.136-3.215l.225-2.5a3.115,3.115,0,0,0-.628-2.17l-1.523-1.991a3.114,3.114,0,0,1,1.78-4.927l2.444-.558a3.114,3.114,0,0,0,1.87-1.268l1.423-2.064A3.114,3.114,0,0,1,2104.2,1279.36Z" transform="translate(-2090.802 -1277.843)" fill="#ab4300"/>
      <path id="Path_1406" data-name="Path 1406" d="M2107.63,1300.031a2.813,2.813,0,0,1-1.111-.23l-2.305-.985a3.406,3.406,0,0,0-2.469-.08l-2.365.833a2.8,2.8,0,0,1-3.026-.763,2.783,2.783,0,0,1-.722-2.151l.224-2.5a3.4,3.4,0,0,0-.687-2.373l-1.523-1.991a2.822,2.822,0,0,1,1.613-4.465l2.444-.558a3.4,3.4,0,0,0,2.045-1.387l1.423-2.063a2.822,2.822,0,0,1,4.746.154l1.286,2.152a3.4,3.4,0,0,0,1.951,1.516l2.4.716a2.822,2.822,0,0,1,1.32,4.561l-1.649,1.888a3.4,3.4,0,0,0-.839,2.324l.061,2.506a2.789,2.789,0,0,1-.794,2.034A2.849,2.849,0,0,1,2107.63,1300.031Z" transform="translate(-2092.772 -1279.807)" fill="#ffde3d"/>
      <path id="Path_1407" data-name="Path 1407" d="M2104.2,1279.36l1.286,2.152a3.113,3.113,0,0,0,1.783,1.387l2.4.716a3.114,3.114,0,0,1,1.456,5.032l-1.649,1.888a3.114,3.114,0,0,0-.768,2.125l.062,2.506a3.114,3.114,0,0,1-4.336,2.94l-2.305-.985a3.114,3.114,0,0,0-2.258-.073l-2.365.833a3.114,3.114,0,0,1-4.136-3.215l.225-2.5a3.115,3.115,0,0,0-.628-2.17l-1.523-1.991a3.114,3.114,0,0,1,1.78-4.927l2.444-.558a3.114,3.114,0,0,0,1.87-1.268l1.423-2.064A3.114,3.114,0,0,1,2104.2,1279.36Z" transform="translate(-2090.802 -1277.843)" opacity="0.3" fill="url(#radial-gradient)" style="mix-blend-mode: screen;isolation: isolate"/>
      <path id="Path_1408" data-name="Path 1408" d="M2107.63,1300.128a2.812,2.812,0,0,1-1.111-.23l-2.305-.985a3.4,3.4,0,0,0-2.469-.08l-2.365.833a2.8,2.8,0,0,1-3.026-.763,2.784,2.784,0,0,1-.722-2.151l.224-2.5a3.4,3.4,0,0,0-.687-2.374l-1.523-1.991a2.822,2.822,0,0,1,1.613-4.465l2.444-.558a3.4,3.4,0,0,0,2.045-1.387l1.423-2.064a2.778,2.778,0,0,1,2.03-1.205v.587a2.2,2.2,0,0,0-1.55.949l-1.423,2.064a3.978,3.978,0,0,1-2.4,1.624l-2.444.558a2.239,2.239,0,0,0-1.28,3.542l1.523,1.991a3.979,3.979,0,0,1,.8,2.78l-.224,2.5a2.206,2.206,0,0,0,.572,1.706,2.22,2.22,0,0,0,2.4.606l2.364-.833a3.991,3.991,0,0,1,2.893.094l2.305.985a2.232,2.232,0,0,0,.882.184,2.262,2.262,0,0,0,1.607-.685,2.213,2.213,0,0,0,.629-1.613l-.062-2.506a3.977,3.977,0,0,1,.983-2.722l1.649-1.888a2.239,2.239,0,0,0-1.047-3.618l-2.4-.716a3.977,3.977,0,0,1-2.285-1.776l-1.286-2.152a2.218,2.218,0,0,0-1.632-1.072v-.587a2.8,2.8,0,0,1,2.132,1.36l1.286,2.152a3.4,3.4,0,0,0,1.951,1.517l2.4.716a2.822,2.822,0,0,1,1.32,4.561l-1.649,1.888a3.4,3.4,0,0,0-.839,2.324l.061,2.506a2.79,2.79,0,0,1-.794,2.034A2.848,2.848,0,0,1,2107.63,1300.128Z" transform="translate(-2092.772 -1279.904)" fill="#fff" opacity="0.5" style="mix-blend-mode: color-dodge;isolation: isolate"/>
    </g>
  </g>
</svg>
