<svg xmlns="http://www.w3.org/2000/svg" xmlns:xlink="http://www.w3.org/1999/xlink" width="78.499" height="72.181" viewBox="0 0 78.499 72.181">
  <defs>
    <linearGradient id="linear-gradient" x1="0.305" y1="0.96" x2="0.695" y2="0.04" gradientUnits="objectBoundingBox">
      <stop offset="0.396" stop-color="#1a1a1a"/>
      <stop offset="0.582" stop-color="#fff"/>
    </linearGradient>
    <linearGradient id="linear-gradient-2" x1="0.272" y1="0.03" x2="0.728" y2="0.97" gradientUnits="objectBoundingBox">
      <stop offset="0"/>
      <stop offset="1" stop-color="#fff"/>
    </linearGradient>
  </defs>
  <g id="Group_3484" data-name="Group 3484" transform="translate(-2681.419 -1153.641)">
    <g id="Group_3371" data-name="Group 3371" transform="translate(2681.419 1153.641)">
      <g id="Group_3369" data-name="Group 3369" transform="translate(0 3.937)" opacity="0.3" style="mix-blend-mode: multiply;isolation: isolate">
        <circle id="Ellipse_214" data-name="Ellipse 214" cx="33.465" cy="33.465" r="33.465" transform="translate(5.292 0.657)" fill="#050400"/>
        <circle id="Ellipse_215" data-name="Ellipse 215" cx="32.234" cy="32.234" r="32.234" transform="translate(6.523 1.887)" fill="#050400"/>
        <circle id="Ellipse_216" data-name="Ellipse 216" cx="32.234" cy="32.234" r="32.234" transform="translate(6.523 1.887)" fill="#050400" style="mix-blend-mode: overlay;isolation: isolate"/>
        <ellipse id="Ellipse_217" data-name="Ellipse 217" cx="24.176" cy="32.234" rx="24.176" ry="32.234" transform="translate(0 45.14) rotate(-69)" fill="#050400"/>
        <ellipse id="Ellipse_218" data-name="Ellipse 218" cx="24.176" cy="32.234" rx="24.176" ry="32.234" transform="translate(0 45.14) rotate(-69)" fill="#050400" style="mix-blend-mode: overlay;isolation: isolate"/>
      </g>
      <g id="Group_3370" data-name="Group 3370" transform="translate(0.984 0)">
        <circle id="Ellipse_219" data-name="Ellipse 219" cx="33.465" cy="33.465" r="33.465" transform="translate(5.292 0.657)" fill="#002405"/>
        <circle id="Ellipse_220" data-name="Ellipse 220" cx="32.234" cy="32.234" r="32.234" transform="translate(6.523 1.887)" fill="#4dcf30"/>
        <circle id="Ellipse_221" data-name="Ellipse 221" cx="32.234" cy="32.234" r="32.234" transform="translate(6.523 1.887)" fill="url(#linear-gradient)" style="mix-blend-mode: overlay;isolation: isolate"/>
        <ellipse id="Ellipse_222" data-name="Ellipse 222" cx="24.176" cy="32.234" rx="24.176" ry="32.234" transform="translate(0 45.14) rotate(-69)" fill="#4dcf30"/>
        <ellipse id="Ellipse_223" data-name="Ellipse 223" cx="24.176" cy="32.234" rx="24.176" ry="32.234" transform="translate(0 45.14) rotate(-69)" fill="url(#linear-gradient-2)" style="mix-blend-mode: overlay;isolation: isolate"/>
      </g>
    </g>
    <path id="Path_1576" data-name="Path 1576" d="M2808.233,1182.02h0c-.136-.563.532-1.055,1.476-.89a10.111,10.111,0,0,1,6.159,3.7c.588.756.468,1.578-.094,1.721h0C2815.21,1186.7,2808.369,1182.587,2808.233,1182.02Z" transform="translate(-75.082 -16.259)" fill="#fff"/>
    <path id="Path_1577" data-name="Path 1577" d="M2830.2,1197.168h0a1.709,1.709,0,0,1,1.048-1.147,1.747,1.747,0,0,1,2.344,1.409,1.709,1.709,0,0,1-.522,1.464h0C2832.717,1199.17,2830.114,1197.605,2830.2,1197.168Z" transform="translate(-88.096 -25.044)" fill="#fff"/>
    <path id="Icon_awesome-question" data-name="Icon awesome-question" d="M12.681,0A11.95,11.95,0,0,0,2.066,5.614a1.482,1.482,0,0,0,.319,2.028L5.046,9.659A1.48,1.48,0,0,0,7.1,9.4c1.545-1.935,2.691-3.05,5.1-3.05,1.9,0,4.244,1.221,4.244,3.061,0,1.391-1.148,2.105-3.022,3.156-2.185,1.225-5.076,2.749-5.076,6.563v.6a1.48,1.48,0,0,0,1.48,1.48H14.3a1.48,1.48,0,0,0,1.48-1.48V19.38c0-2.643,7.726-2.754,7.726-9.907C23.5,4.086,17.916,0,12.681,0Zm-.618,23.033a4.272,4.272,0,1,0,4.272,4.272A4.277,4.277,0,0,0,12.063,23.033Z" transform="translate(2708.017 1170.89)"/>
    <path id="Icon_awesome-question-2" data-name="Icon awesome-question" d="M11.966,0A11.165,11.165,0,0,0,2.049,5.245a1.384,1.384,0,0,0,.3,1.894L4.833,9.024a1.383,1.383,0,0,0,1.916-.239c1.443-1.808,2.514-2.849,4.769-2.849,1.773,0,3.965,1.141,3.965,2.86,0,1.3-1.073,1.967-2.823,2.948-2.041,1.144-4.742,2.569-4.742,6.132v.564A1.383,1.383,0,0,0,9.3,19.823h4.176A1.383,1.383,0,0,0,14.86,18.44v-.333c0-2.47,7.218-2.573,7.218-9.256C22.078,3.818,16.857,0,11.966,0Zm-.577,21.52a3.992,3.992,0,1,0,3.992,3.992A4,4,0,0,0,11.389,21.52Z" transform="translate(2708.729 1171.928)" fill="#fff"/>
  </g>
</svg>
