<svg xmlns="http://www.w3.org/2000/svg" xmlns:xlink="http://www.w3.org/1999/xlink" width="78.499" height="72.181" viewBox="0 0 78.499 72.181">
  <defs>
    <linearGradient id="linear-gradient" x1="0.305" y1="0.96" x2="0.695" y2="0.04" gradientUnits="objectBoundingBox">
      <stop offset="0.396" stop-color="#1a1a1a"/>
      <stop offset="0.582" stop-color="#fff"/>
    </linearGradient>
    <linearGradient id="linear-gradient-2" x1="0.272" y1="0.03" x2="0.728" y2="0.97" gradientUnits="objectBoundingBox">
      <stop offset="0"/>
      <stop offset="1" stop-color="#fff"/>
    </linearGradient>
  </defs>
  <g id="Group_3735" data-name="Group 3735" transform="translate(-359.926 -599.215)">
    <g id="Group_3376" data-name="Group 3376" transform="translate(-2321.493 -554.426)">
      <g id="Group_3371" data-name="Group 3371" transform="translate(2681.419 1153.641)">
        <g id="Group_3369" data-name="Group 3369" transform="translate(0 3.937)" opacity="0.3" style="mix-blend-mode: multiply;isolation: isolate">
          <circle id="Ellipse_214" data-name="Ellipse 214" cx="33.465" cy="33.465" r="33.465" transform="translate(5.292 0.657)" fill="#050400"/>
          <circle id="Ellipse_215" data-name="Ellipse 215" cx="32.234" cy="32.234" r="32.234" transform="translate(6.523 1.887)" fill="#050400"/>
          <circle id="Ellipse_216" data-name="Ellipse 216" cx="32.234" cy="32.234" r="32.234" transform="translate(6.523 1.887)" fill="#050400" style="mix-blend-mode: overlay;isolation: isolate"/>
          <ellipse id="Ellipse_217" data-name="Ellipse 217" cx="24.176" cy="32.234" rx="24.176" ry="32.234" transform="translate(0 45.14) rotate(-69)" fill="#050400"/>
          <ellipse id="Ellipse_218" data-name="Ellipse 218" cx="24.176" cy="32.234" rx="24.176" ry="32.234" transform="translate(0 45.14) rotate(-69)" fill="#050400" style="mix-blend-mode: overlay;isolation: isolate"/>
        </g>
        <g id="Group_3370" data-name="Group 3370" transform="translate(0.984 0)">
          <circle id="Ellipse_219" data-name="Ellipse 219" cx="33.465" cy="33.465" r="33.465" transform="translate(5.292 0.657)" fill="#002405"/>
          <circle id="Ellipse_220" data-name="Ellipse 220" cx="32.234" cy="32.234" r="32.234" transform="translate(6.523 1.887)" fill="#4dcf30"/>
          <circle id="Ellipse_221" data-name="Ellipse 221" cx="32.234" cy="32.234" r="32.234" transform="translate(6.523 1.887)" fill="url(#linear-gradient)" style="mix-blend-mode: overlay;isolation: isolate"/>
          <ellipse id="Ellipse_222" data-name="Ellipse 222" cx="24.176" cy="32.234" rx="24.176" ry="32.234" transform="translate(0 45.14) rotate(-69)" fill="#4dcf30"/>
          <ellipse id="Ellipse_223" data-name="Ellipse 223" cx="24.176" cy="32.234" rx="24.176" ry="32.234" transform="translate(0 45.14) rotate(-69)" fill="url(#linear-gradient-2)" style="mix-blend-mode: overlay;isolation: isolate"/>
        </g>
      </g>
      <path id="Path_1576" data-name="Path 1576" d="M2808.233,1182.02h0c-.136-.563.532-1.055,1.476-.89a10.111,10.111,0,0,1,6.159,3.7c.588.756.468,1.578-.094,1.721h0C2815.21,1186.7,2808.369,1182.587,2808.233,1182.02Z" transform="translate(-75.082 -16.259)" fill="#fff"/>
      <path id="Path_1577" data-name="Path 1577" d="M2830.2,1197.168h0a1.709,1.709,0,0,1,1.048-1.147,1.747,1.747,0,0,1,2.344,1.409,1.709,1.709,0,0,1-.522,1.464h0C2832.717,1199.17,2830.114,1197.605,2830.2,1197.168Z" transform="translate(-88.096 -25.044)" fill="#fff"/>
    </g>
    <g id="Group_3722" data-name="Group 3722" transform="translate(-511.778 -678.67)">
      <g id="Group_3710" data-name="Group 3710" transform="translate(915.818 1318.998)">
        <path id="Path_3492" data-name="Path 3492" d="M1214.042,1721.4a.379.379,0,0,1-.192-.052.384.384,0,0,1-.139-.524c1.291-2.223,1.358-8.437,1.358-8.5a.383.383,0,0,1,.383-.38h0a.383.383,0,0,1,.38.386c0,.264-.069,6.48-1.462,8.878A.384.384,0,0,1,1214.042,1721.4Z" transform="translate(-1213.659 -1711.942)" fill="#231f20"/>
      </g>
      <g id="Group_3711" data-name="Group 3711" transform="translate(898.665 1320.259)">
        <path id="Path_3493" data-name="Path 3493" d="M990.4,1736.568a.384.384,0,0,1-.215-.7,8.444,8.444,0,0,0,2.416-2.9,15.482,15.482,0,0,0,1.346-4.262.384.384,0,0,1,.759.108,16.027,16.027,0,0,1-1.423,4.505,9.054,9.054,0,0,1-2.669,3.187A.382.382,0,0,1,990.4,1736.568Z" transform="translate(-990.015 -1728.372)" fill="#231f20"/>
      </g>
      <path id="Path_3494" data-name="Path 3494" d="M970.036,1818.425s-2.58,1.133-2.518,1.574,4.217.315,4.217-.315-.881-1.448-.881-1.448Z" transform="translate(-70.578 -491.085)" fill="#231f20"/>
      <path id="Path_3495" data-name="Path 3495" d="M1208.19,1819.5s2.493,1.315,2.4,1.75-4.229.011-4.184-.617.983-1.38.983-1.38Z" transform="translate(-291.142 -492.023)" fill="#231f20"/>
      <g id="Group_3714" data-name="Group 3714" transform="translate(891.076 1300.906)">
        <path id="Path_3496" data-name="Path 3496" d="M930.418,1486.963c-.532-2.3-2.062-2.316-3.919-2.949.406-.547.884-.919.886-1.666,0-1.065-1-2.018-1.808-2.607a4.985,4.985,0,0,0-4.93-.677c.485-2.175-1.74-3-3.571-3-2.072,0-3.095.923-4.307,2.557-.755-1.68-3.475-1.567-4.372-.627-.551.577-.965,1.947-1.049,1.836-2.17-2.861-5.2-3.5-6.261-1.745-2.379-1.189-6.4.187-6.419,3.173a3.961,3.961,0,0,0-3.3,2.146,4.288,4.288,0,0,0-.181,2.506c.235.9.773,1.1,1.391,1.625-3.69,3.356.841,8.8,5.1,7.009.746,1.522,1.728,1.987,3.536,2.312a6.908,6.908,0,0,0,3.439-.144,16.189,16.189,0,0,0,2.319-1.375,3.205,3.205,0,0,0,2.929,1.535,4.138,4.138,0,0,0,3.758-1.58,8.849,8.849,0,0,0,7.219,2.4,2.989,2.989,0,0,0,2.526-1.615c.393-.715.141-.589.894-.669,1.645-.176,4.108-.742,4.706-2.572.362-1.107-.2-1.828-.709-2.7C929.847,1489.423,930.877,1488.947,930.418,1486.963Z" transform="translate(-891.076 -1476.062)" fill="#eaaaa7"/>
        <path id="Path_3497" data-name="Path 3497" d="M930.753,1520.147a1.523,1.523,0,0,0,.886-1.666c0-1.065-1-2.018-1.807-2.607a5.737,5.737,0,0,0-1.212-.678c.364.349.721.658.866.828a3.3,3.3,0,0,1,.854,2.486,5.808,5.808,0,0,1-.969,2.61,2.488,2.488,0,0,1,1.945,1.966c.162,1.386-1.256,1.931-2.251,2.517.525.651,1.081,1.039.542,1.922a3.341,3.341,0,0,1-3.831,1.306c-.525,1.949-4,2.313-5.641,2.124a6.73,6.73,0,0,1-3.423-1.648c.061.859-1.291,2.009-2.172,2.077-2.015.155-2.942-1.375-4.255-2.5a8.127,8.127,0,0,1-3.021,1.643,3.342,3.342,0,0,1-2.563-.063,9.5,9.5,0,0,1-3.1-2.86c-1.234.756-2.33,1.42-3.892,1.167a4.144,4.144,0,0,1-2.029-.989,4.781,4.781,0,0,0,6.243,2.887c.746,1.522,1.728,1.987,3.536,2.313a6.909,6.909,0,0,0,3.439-.144,16.182,16.182,0,0,0,2.318-1.375,3.2,3.2,0,0,0,2.929,1.535,4.138,4.138,0,0,0,3.758-1.58c1.2,2.439,3.76,3.019,6.655,2.683a4.283,4.283,0,0,0,3.091-1.9c.393-.716.407-.664.407-.664s4.312,1.5,5.192-2.576a3.413,3.413,0,0,0-.709-2.7c1.557-.711,2.738-1.2,2.513-3.225C934.813,1520.846,933.348,1519.748,930.753,1520.147Z" transform="translate(-895.33 -1512.195)" fill="#d69a9a"/>
        <g id="Group_3712" data-name="Group 3712" transform="translate(11.259 1.038)">
          <path id="Path_3498" data-name="Path 3498" d="M1042.925,1494.44a10.3,10.3,0,0,0-.254-2.358c-1.541-1.9-3.461-2.727-4.806-2.418a2.417,2.417,0,0,1,1.7.837c.773.813.3,1.2.07,1.854.866-.389,1.312.265,1.639.627a1.5,1.5,0,0,1,0,1.7c-.179.352,1.424-.4,1.441,2.225A4.523,4.523,0,0,0,1042.925,1494.44Z" transform="translate(-1037.865 -1489.6)" fill="#d69a9a"/>
        </g>
        <path id="Path_3499" data-name="Path 3499" d="M930.794,1517.682a3.535,3.535,0,0,0-2.486-1.131,2.193,2.193,0,0,0-2.349,1.67c-.049.558.249,1.357-.046,1.844-.362.6-1.481.6-2.091.869-1.473.661-.932,2.147.124,2.9.526.375,1.157.793,1.1,1.524-.05.627-.774,1.112-.735,1.723.105,1.664,2.918.164,3.113-.854a2.188,2.188,0,0,0-.671-1.695c-.34-.359-1.156-.653-1.284-1.173-.144-.584.546-1.466.981-1.786.483-.355,1.157-.215,1.646-.594,1.152-.892-1.414-2.566.076-2.881.986-.208,1.057.578,1.815.852C930.8,1519.247,931.12,1518.309,930.794,1517.682Z" transform="translate(-920.477 -1513.444)" fill="#f4bdb8"/>
        <g id="Group_3713" data-name="Group 3713" transform="translate(6.934 6.615)">
          <path id="Path_3500" data-name="Path 3500" d="M988.807,1564.081c-.637.007-1.106.381-1.763-.006-.6-.352-.728-1.082-1.284-1.472a1.51,1.51,0,0,0-2.393,1.481c.051.26.243,1.906-1.039,1.489a.609.609,0,0,0-.839.524c-.182,1.164,1.675,1.44,2.377,1.022,1.386-.825.02-1.807.551-2.791.649-1.2,1.577,1.184,2.012,1.448.866.526,2.274-.179,2.564,1.176.122.573-.076,1.042.61,1.22a1.272,1.272,0,0,0,1.418-.732A2.7,2.7,0,0,0,988.807,1564.081Z" transform="translate(-981.477 -1562.309)" fill="#f4bdb8"/>
        </g>
        <path id="Path_3501" data-name="Path 3501" d="M1130.554,1506a1.727,1.727,0,0,0-1.312-1.7c-.64-.109-1.269.332-1.87.033-.811-.4-.449-1.3-.659-2.006-.4-1.354-2.305-1.258-3.215-.508-.694.573-1.216,1.808-2.216,1.9-1.248.118-1.963-1.163-3.255-.855-1.881.448-2.044,1.85-1.6,2.767a1.646,1.646,0,0,0,1.261.895,1.458,1.458,0,0,0,.813-.132c.318-.214.207-.319.2-.641-.036-2.06,2.82-.245,3.735-.407s.983-1.491,2.04-1.627c1.347-.173.581,1.055,1.031,1.749.481.743,2.269.086,2.553.974.1.306-.21.7-.084,1.06.195.555.827.522,1.29.328A1.917,1.917,0,0,0,1130.554,1506Z" transform="translate(-1098.953 -1499.343)" fill="#f4bdb8"/>
        <path id="Path_3502" data-name="Path 3502" d="M1209.325,1577.149a1.208,1.208,0,0,0-.927-.988,9.134,9.134,0,0,0-1.889.124,3.681,3.681,0,0,1-2.277-.608.852.852,0,0,1-.268-1.14c.15-.344.5-.7.2-1.059-.357-.429-1.11-.137-1.477.122a2.111,2.111,0,0,0-.761,1.618c0,1.425,1.645,1.505,2.685,1.556.76.037,2.162.111,2.683.772.3.378.045.547-.132.886-.135.26-.142.625-.478.661-.352.038-.653-.434-.975-.56a1.5,1.5,0,0,0-1.25.111c-.637.345-.87.949-1.255,1.5-.181.258-.562.771-.956.62-.442-.169-.455-.852-1.015-.98a1.138,1.138,0,0,0-1.293.775,1.883,1.883,0,0,0,1.048,1.912,2.152,2.152,0,0,0,3.175-.984c.252-.622.3-2.02,1.342-1.905.475.052.851.581,1.333.705a1.143,1.143,0,0,0,1.435-.554c.2-.458-.043-.949.249-1.381S1209.353,1577.75,1209.325,1577.149Z" transform="translate(-1176.228 -1565.804)" fill="#f4bdb8"/>
        <path id="Path_3503" data-name="Path 3503" d="M1017.823,1566.815a3.6,3.6,0,0,0-4.191-.294,4.3,4.3,0,0,0-1.509,2.73c-.191.952.573,1.8.737,2.73.14.794.177,1.5-.731,1.71a1.92,1.92,0,0,1-1.79-.456,4.086,4.086,0,0,0-1.76-.94,3.89,3.89,0,0,0-2.087.563c-.348.156-1.272.726-1.687.54-.477-.214.014-.653.092-.969.236-.955-1.416-.712-1.884-.271a2.765,2.765,0,0,0-.448,1.148,1.907,1.907,0,0,0,1.322,1.841c1.758.586,2.983-1.643,4.7-1.426.724.092,1.1.638,1.539,1.166a2.92,2.92,0,0,0,2.759.961c1.035-.146,2.43-1.026,2.541-2.126a6.638,6.638,0,0,0-.7-3.1,1.933,1.933,0,0,1-.162-1.58c.245-.491.362-1.066.9-1.219.569-.163.895.651,2.122.725.522.129.572-.388.635-.644A1.211,1.211,0,0,0,1017.823,1566.815Z" transform="translate(-993.999 -1559.091)" fill="#f4bdb8"/>
      </g>
      <g id="Group_3715" data-name="Group 3715" transform="translate(899.711 1304.428)">
        <path id="Path_3504" data-name="Path 3504" d="M1005.694,1522.077a1.717,1.717,0,0,0-1.078-.01c-.317.112-1.352.712-.793,1.247.2.19.486-.262.714-.351a5.93,5.93,0,0,1,1.221-.31C1006.039,1522.515,1006.034,1522.253,1005.694,1522.077Z" transform="translate(-1003.661 -1521.985)" fill="#231f20"/>
      </g>
      <g id="Group_3716" data-name="Group 3716" transform="translate(916.202 1303.962)">
        <path id="Path_3505" data-name="Path 3505" d="M1218.956,1515.958a1.717,1.717,0,0,1,1.074.1c.3.143,1.276.842.666,1.319-.216.17-.458-.308-.676-.42a5.932,5.932,0,0,0-1.185-.428C1218.57,1516.361,1218.6,1516.1,1218.956,1515.958Z" transform="translate(-1218.659 -1515.907)" fill="#231f20"/>
      </g>
      <path id="Path_3506" data-name="Path 3506" d="M1039.961,1288.078a2.049,2.049,0,0,0-.4,1.981,2.8,2.8,0,0,0-1.921,2.744,1.978,1.978,0,0,0,.243,1.178,2.5,2.5,0,0,0,1.83.833,2.379,2.379,0,0,0-.513,1.93,2.05,2.05,0,0,0,1.261,1.518,3.789,3.789,0,0,0,2.158-.081,2.743,2.743,0,0,0,2.435,1.564,4.447,4.447,0,0,0,2.818-1.018c.4-.309.8-.767.685-1.259a4.747,4.747,0,0,0,2.563-.215,3.079,3.079,0,0,0,1.492-2.574,2.758,2.758,0,0,0-1.04-1.6,1.388,1.388,0,0,0,.8-1.17,2.158,2.158,0,0,0-.43-1.394,3.077,3.077,0,0,0-3.332-1.134,2.222,2.222,0,0,0-.977-2.367,5.589,5.589,0,0,0-2.621-.645,2.343,2.343,0,0,0-2.25,1.1A2.429,2.429,0,0,0,1039.961,1288.078Z" transform="translate(-135.316)" fill="#9de4f4"/>
      <g id="Group_3717" data-name="Group 3717" transform="translate(900.852 1306.827)">
        <circle id="Ellipse_230" data-name="Ellipse 230" cx="2.291" cy="2.291" r="2.291" transform="translate(0.009 0)" fill="#d69a9a"/>
        <circle id="Ellipse_231" data-name="Ellipse 231" cx="2.005" cy="2.005" r="2.005" transform="matrix(0.16, -0.987, 0.987, 0.16, 0, 4.298)" fill="#fff"/>
        <path id="Path_3507" data-name="Path 3507" d="M1030.145,1566.707a.99.99,0,1,1-.99-.99A.99.99,0,0,1,1030.145,1566.707Z" transform="translate(-1027.425 -1564.76)" fill="#231f20"/>
        <path id="Path_3508" data-name="Path 3508" d="M1031.672,1570.589a.312.312,0,1,1,0,.441A.312.312,0,0,1,1031.672,1570.589Z" transform="translate(-1030.58 -1569.175)" fill="#fff"/>
      </g>
      <g id="Group_3718" data-name="Group 3718" transform="translate(913.029 1306.529)">
        <circle id="Ellipse_232" data-name="Ellipse 232" cx="2.291" cy="2.291" r="2.291" transform="translate(0 0)" fill="#d69a9a"/>
        <circle id="Ellipse_233" data-name="Ellipse 233" cx="2.005" cy="2.005" r="2.005" transform="translate(0.286 0.635)" fill="#fff"/>
        <path id="Path_3509" data-name="Path 3509" d="M1188.792,1562.829a.99.99,0,1,1-.99-.99A.99.99,0,0,1,1188.792,1562.829Z" transform="translate(-1186.081 -1560.883)" fill="#231f20"/>
        <path id="Path_3510" data-name="Path 3510" d="M1190.32,1566.712a.312.312,0,1,1,0,.441A.312.312,0,0,1,1190.32,1566.712Z" transform="translate(-1189.237 -1565.298)" fill="#fff"/>
      </g>
      <path id="Path_3511" data-name="Path 3511" d="M1079.291,1621.969c.054-.4,2.133-1.708,4.363-1.991,2.46-.311,4,.075,3.963.394s-2.361-.352-4.063.007C1081.324,1620.851,1079.138,1623.107,1079.291,1621.969Z" transform="translate(-173.772 -307.928)" fill="#231f20"/>
      <g id="Group_3719" data-name="Group 3719" transform="translate(896.096 1315.243)">
        <path id="Path_3512" data-name="Path 3512" d="M961.107,1666.911a4.825,4.825,0,0,1-3.139-.981,4.12,4.12,0,0,1-1.447-2.654.268.268,0,0,1,.535-.043,3.637,3.637,0,0,0,1.257,2.287,4.9,4.9,0,0,0,3.8.79c3.623-.449,4.476-2.774,4.484-2.8a.268.268,0,0,1,.507.177c-.038.108-.975,2.663-4.925,3.153A8.743,8.743,0,0,1,961.107,1666.911Z" transform="translate(-956.52 -1662.986)" fill="#231f20"/>
      </g>
      <path id="Path_3513" data-name="Path 3513" d="M1067.375,1641.489c.112-.229.251-.667.5-.547.3.144-.072,1.037-.359,1.461a1.038,1.038,0,0,1,.35-.163.352.352,0,0,1,.35.115c.131.182-.015.429-.156.6.136-.027.254.125.248.264a.68.68,0,0,1-.182.368,7.432,7.432,0,0,1-2.587,1.985c-.157.072-.093-.315-.094-.488a.181.181,0,0,1,.042-.133,4.553,4.553,0,0,0,.972-1.579Z" transform="translate(-160.98 -327.371)" fill="#231f20"/>
      <g id="Group_3720" data-name="Group 3720" transform="translate(925.788 1310.844)">
        <path id="Path_3514" data-name="Path 3514" d="M1343.905,1615.548a.265.265,0,0,1-.133-.036.268.268,0,0,1-.1-.366,13.31,13.31,0,0,0,1.572-5.09,5.185,5.185,0,0,0-1.128-3.966.268.268,0,0,1,.364-.395c.06.054,1.454,1.371,1.3,4.387a13.6,13.6,0,0,1-1.642,5.33A.268.268,0,0,1,1343.905,1615.548Z" transform="translate(-1343.637 -1605.624)" fill="#231f20"/>
      </g>
      <path id="Path_3515" data-name="Path 3515" d="M1326.4,1703.726a.43.43,0,0,1-.157.268c-.091.055-.244,0-.233-.108a.571.571,0,0,1-.341.3c-.154.029-.332-.141-.252-.275a.516.516,0,0,1-.173.16.177.177,0,0,1-.216-.037.252.252,0,0,1-.035-.139,3.712,3.712,0,0,1,.114-1.1,1.046,1.046,0,0,1-.3.307.316.316,0,0,1-.458-.423,1.008,1.008,0,0,1,.292-.327,10.155,10.155,0,0,0,1.264-1.138,5.048,5.048,0,0,0,.916-1.727c.663.244.17,1.368.094,1.862A19.253,19.253,0,0,1,1326.4,1703.726Z" transform="translate(-400.007 -381.448)" fill="#231f20"/>
      <g id="Group_3721" data-name="Group 3721" transform="translate(906.988 1288.7)">
        <path id="Path_3516" data-name="Path 3516" d="M1098.528,1319.669h1.577s.377-1.477,1.525-1.425c.6.027,1.072.379.971,1.254s-1.78,1.011-2.225,1.969a6.275,6.275,0,0,0-.323,2.171l1.753-.094a3.706,3.706,0,0,1,.135-1.672c.391-.553,1.712-.688,2.007-1.731a2.537,2.537,0,0,0-2.6-3.21C1098.831,1316.93,1098.528,1319.669,1098.528,1319.669Z" transform="translate(-1098.528 -1316.93)" fill="#889499"/>
        <path id="Path_3517" data-name="Path 3517" d="M1118.582,1407.452c.013.041,0,1.672,0,1.672l1.955-.094-.189-1.672Z" transform="translate(-1117.044 -1400.422)" fill="#889499"/>
      </g>
    </g>
  </g>
</svg>
