<svg xmlns="http://www.w3.org/2000/svg" xmlns:xlink="http://www.w3.org/1999/xlink" width="47.213" height="49.906" viewBox="0 0 47.213 49.906">
  <defs>
    <radialGradient id="radial-gradient" cx="0.63" cy="0.594" r="0.754" gradientUnits="objectBoundingBox">
      <stop offset="0" stop-color="#f2f2f2"/>
      <stop offset="1"/>
    </radialGradient>
    <linearGradient id="linear-gradient" x1="0.2" y1="0.289" x2="0.774" y2="0.693" xlink:href="#radial-gradient"/>
    <linearGradient id="linear-gradient-2" x1="0.078" y1="0.5" x2="0.922" y2="0.5" gradientUnits="objectBoundingBox">
      <stop offset="0"/>
      <stop offset="1" stop-color="#f2f2f2"/>
    </linearGradient>
  </defs>
  <g id="Group_3314" data-name="Group 3314" transform="translate(0 0)">
    <g id="Group_3311" data-name="Group 3311" transform="translate(6.153 5.633)">
      <g id="Group_3309" data-name="Group 3309" transform="translate(1.34 2.68)" opacity="0.3" style="mix-blend-mode: multiply;isolation: isolate">
        <path id="Path_1476" data-name="Path 1476" d="M1304.024,1232.283c-5.133,0-9.772-2.534-13.239-4.741-3.626-2.308-5.868-6.291-6.311-11.216a23.682,23.682,0,0,1,3.858-14.662c4.22-6.63,10.873-10.748,17.364-10.748a13.031,13.031,0,0,1,7.12,2.016c7.729,4.92,16.861,13.253,6.987,28.764-4.472,7.024-9.781,10.587-15.778,10.587Z" transform="translate(-1284.393 -1190.916)"/>
        <path id="Path_1477" data-name="Path 1477" d="M1289.413,1202.539c-5.885,9.245-4.878,20.417,2.248,24.953s18.325,9.7,28.093-5.64.345-23.3-6.781-27.839S1295.3,1193.294,1289.413,1202.539Z" transform="translate(-1284.91 -1191.432)"/>
        <path id="Path_1478" data-name="Path 1478" d="M1289.413,1202.539c-5.885,9.245-4.878,20.417,2.248,24.953s18.325,9.7,28.093-5.64.345-23.3-6.781-27.839S1295.3,1193.294,1289.413,1202.539Z" transform="translate(-1284.91 -1191.432)" style="mix-blend-mode: soft-light;isolation: isolate"/>
      </g>
      <g id="Group_3310" data-name="Group 3310">
        <path id="Path_1479" data-name="Path 1479" d="M1301.652,1227.539c-5.133,0-9.772-2.534-13.24-4.741-3.626-2.308-5.867-6.292-6.311-11.217a23.684,23.684,0,0,1,3.858-14.662c4.219-6.629,10.873-10.747,17.364-10.747a13.037,13.037,0,0,1,7.12,2.015c7.728,4.92,16.861,13.253,6.987,28.764-4.471,7.025-9.78,10.587-15.778,10.587Z" transform="translate(-1282.021 -1186.172)" fill="#512100"/>
        <path id="Path_1480" data-name="Path 1480" d="M1287.041,1197.8c-5.885,9.245-4.878,20.417,2.248,24.953s18.325,9.7,28.093-5.64.345-23.3-6.782-27.839S1292.926,1188.55,1287.041,1197.8Z" transform="translate(-1282.538 -1186.688)" fill="#ff880a"/>
        <path id="Path_1481" data-name="Path 1481" d="M1287.041,1197.8c-5.885,9.245-4.878,20.417,2.248,24.953s18.325,9.7,28.093-5.64.345-23.3-6.782-27.839S1292.926,1188.55,1287.041,1197.8Z" transform="translate(-1282.538 -1186.688)" fill="url(#radial-gradient)" style="mix-blend-mode: soft-light;isolation: isolate"/>
      </g>
    </g>
    <g id="Group_3312" data-name="Group 3312">
      <ellipse id="Ellipse_192" data-name="Ellipse 192" cx="19.843" cy="15.296" rx="19.843" ry="15.296" transform="translate(0 33.479) rotate(-57.521)" fill="#fdc307"/>
      <ellipse id="Ellipse_193" data-name="Ellipse 193" cx="19.843" cy="15.296" rx="19.843" ry="15.296" transform="translate(0 33.479) rotate(-57.521)" opacity="0.4" fill="url(#linear-gradient)" style="mix-blend-mode: screen;isolation: isolate"/>
    </g>
    <g id="Group_3313" data-name="Group 3313" transform="translate(7.155 7.874)">
      <ellipse id="Ellipse_194" data-name="Ellipse 194" cx="13.229" cy="10.197" rx="13.229" ry="10.197" transform="translate(0 22.319) rotate(-57.521)" fill="#ff8d09"/>
      <ellipse id="Ellipse_195" data-name="Ellipse 195" cx="13.229" cy="10.197" rx="13.229" ry="10.197" transform="translate(0 22.319) rotate(-57.521)" opacity="0.5" fill="url(#linear-gradient-2)" style="mix-blend-mode: overlay;isolation: isolate"/>
    </g>
    <path id="Path_1482" data-name="Path 1482" d="M1294.4,1204.54c3.146-4.942,8.288-7.549,12.653-6.833-3.737.367-7.663,2.842-10.243,6.9-3.923,6.163-3.252,13.611,1.5,16.635a8.075,8.075,0,0,0,3.053,1.149,8.484,8.484,0,0,1-5.463-1.212C1291.151,1218.151,1290.479,1210.7,1294.4,1204.54Z" transform="translate(-1280.144 -1185.507)" opacity="0.2"/>
    <path id="Path_1483" data-name="Path 1483" d="M1302.657,1194.3a1.7,1.7,0,0,0,2.227.512,13.61,13.61,0,0,1,4.309-1.583,9.176,9.176,0,0,1,5.547.646,7.586,7.586,0,0,1,1.025.588,7.941,7.941,0,0,1,2.725,3.226,11.763,11.763,0,0,1,1.018,5.658,2.3,2.3,0,0,0,2.2,2.436,2.352,2.352,0,0,0,2.07-1.066,2.411,2.411,0,0,0,.378-1.271h0a16.229,16.229,0,0,0-1.761-7.733,12.164,12.164,0,0,0-3.942-4.46,11.52,11.52,0,0,0-2.011-1.1,13.1,13.1,0,0,0-7.94-.643,17.213,17.213,0,0,0-5.24,2.133,1.869,1.869,0,0,0-.6,2.655Z" transform="translate(-1284.706 -1181.848)" fill="#fff" opacity="0.3"/>
  </g>
</svg>
